<?xml version="1.0" encoding="utf-8"?>
<!-- Generator: Adobe Illustrator 25.0.1, SVG Export Plug-In . SVG Version: 6.00 Build 0)  -->
<svg version="1.1" id="Capa_1" xmlns="http://www.w3.org/2000/svg" xmlns:xlink="http://www.w3.org/1999/xlink" x="0px" y="0px"
	 viewBox="0 0 231.41 568.79" style="enable-background:new 0 0 231.41 568.79;" xml:space="preserve">
<style type="text/css">
	.st0{fill:#AEADAD;}
</style>
<g>
	<g>
		<g>
			<path class="st0" d="M34.71,235.44h-1.82c-0.1,0-0.18-0.08-0.18-0.18s0.08-0.18,0.18-0.18h1.82c0.1,0,0.18,0.08,0.18,0.18
				S34.81,235.44,34.71,235.44z"/>
			<path class="st0" d="M34.71,235.56h-1.82c-0.17,0-0.31-0.14-0.31-0.31s0.14-0.31,0.31-0.31h1.82c0.17,0,0.31,0.14,0.31,0.31
				S34.88,235.56,34.71,235.56z M32.88,235.19c-0.03,0-0.06,0.03-0.06,0.06s0.03,0.06,0.06,0.06h1.82c0.03,0,0.06-0.03,0.06-0.06
				s-0.03-0.06-0.06-0.06H32.88z"/>
		</g>
	</g>
	<g>
		<g>
			<path class="st0" d="M32.88,235.44c-0.1,0-0.18-0.08-0.18-0.18V134.4c0-0.1,0.08-0.18,0.18-0.18c0.1,0,0.18,0.08,0.18,0.18
				v100.85C33.06,235.35,32.98,235.44,32.88,235.44z"/>
			<path class="st0" d="M32.88,235.56c-0.17,0-0.31-0.14-0.31-0.31V134.4c0-0.17,0.14-0.31,0.31-0.31s0.31,0.14,0.31,0.31v100.85
				C33.19,235.42,33.05,235.56,32.88,235.56z M32.88,134.34c-0.03,0-0.06,0.03-0.06,0.06v100.85c0,0.06,0.12,0.06,0.12,0V134.4
				C32.94,134.37,32.91,134.34,32.88,134.34z"/>
		</g>
	</g>
	<g>
		<g>
			<path class="st0" d="M34.71,235.44c-0.1,0-0.18-0.08-0.18-0.18v-106.9c0-0.1,0.08-0.18,0.18-0.18s0.18,0.08,0.18,0.18v106.9
				C34.89,235.35,34.81,235.44,34.71,235.44z"/>
			<path class="st0" d="M34.71,235.56c-0.17,0-0.31-0.14-0.31-0.31v-106.9c0-0.17,0.14-0.31,0.31-0.31s0.31,0.14,0.31,0.31v106.9
				C35.01,235.42,34.88,235.56,34.71,235.56z M34.71,128.29c-0.03,0-0.06,0.03-0.06,0.06v106.9c0,0.06,0.12,0.06,0.12,0v-106.9
				C34.76,128.32,34.74,128.29,34.71,128.29z"/>
		</g>
	</g>
	<g>
		<g>
			<path class="st0" d="M32.51,235.44c-0.1,0-0.18-0.08-0.18-0.18v-99.64c0-0.1,0.08-0.18,0.18-0.18c0.1,0,0.18,0.08,0.18,0.18
				v99.64C32.7,235.35,32.62,235.44,32.51,235.44z"/>
			<path class="st0" d="M32.51,235.56c-0.17,0-0.31-0.14-0.31-0.31v-99.64c0-0.17,0.14-0.31,0.31-0.31s0.31,0.14,0.31,0.31v99.64
				C32.82,235.42,32.68,235.56,32.51,235.56z M32.51,135.56c-0.03,0-0.06,0.03-0.06,0.06v99.64c0,0.06,0.12,0.06,0.12,0v-99.64
				C32.57,135.58,32.55,135.56,32.51,135.56z"/>
		</g>
	</g>
	<g>
		<g>
			<path class="st0" d="M32.51,235.44H20.45c-0.1,0-0.18-0.08-0.18-0.18s0.08-0.18,0.18-0.18h12.06c0.1,0,0.18,0.08,0.18,0.18
				S32.62,235.44,32.51,235.44z"/>
			<path class="st0" d="M32.51,235.56H20.45c-0.17,0-0.31-0.14-0.31-0.31s0.14-0.31,0.31-0.31h12.06c0.17,0,0.31,0.14,0.31,0.31
				S32.68,235.56,32.51,235.56z M20.45,235.19c-0.03,0-0.06,0.03-0.06,0.06s0.03,0.06,0.06,0.06h12.06c0.03,0,0.06-0.03,0.06-0.06
				s-0.03-0.06-0.06-0.06H20.45z"/>
		</g>
	</g>
	<g>
		<g>
			<path class="st0" d="M32.51,235.44H20.45c-0.1,0-0.18-0.08-0.18-0.18s0.08-0.18,0.18-0.18h12.06c0.1,0,0.18,0.08,0.18,0.18
				S32.62,235.44,32.51,235.44z"/>
			<path class="st0" d="M32.51,235.56H20.45c-0.17,0-0.31-0.14-0.31-0.31s0.14-0.31,0.31-0.31h12.06c0.17,0,0.31,0.14,0.31,0.31
				S32.68,235.56,32.51,235.56z M20.45,235.19c-0.03,0-0.06,0.03-0.06,0.06s0.03,0.06,0.06,0.06h12.06c0.03,0,0.06-0.03,0.06-0.06
				s-0.03-0.06-0.06-0.06H20.45z"/>
		</g>
	</g>
	<g>
		<g>
			<path class="st0" d="M10.04,477.59c-0.05,0-0.09-0.04-0.09-0.09v-0.73c0-0.05,0.04-0.09,0.09-0.09c0.05,0,0.09,0.04,0.09,0.09
				v0.73C10.13,477.55,10.09,477.59,10.04,477.59z"/>
			<path class="st0" d="M10.04,477.72c-0.12,0-0.22-0.1-0.22-0.22v-0.73c0-0.12,0.1-0.22,0.22-0.22c0.12,0,0.22,0.1,0.22,0.22v0.73
				C10.25,477.62,10.16,477.72,10.04,477.72z"/>
		</g>
	</g>
	<g>
		<g>
			<path class="st0" d="M7.66,475.04H6.2c-0.05,0-0.09-0.04-0.09-0.09s0.04-0.09,0.09-0.09h1.46c0.05,0,0.09,0.04,0.09,0.09
				S7.71,475.04,7.66,475.04z"/>
			<path class="st0" d="M7.66,475.16H6.2c-0.12,0-0.22-0.1-0.22-0.22s0.1-0.22,0.22-0.22h1.46c0.12,0,0.22,0.1,0.22,0.22
				S7.78,475.16,7.66,475.16z"/>
		</g>
	</g>
	<g>
		<g>
			<path class="st0" d="M6.2,475.04c-0.03,0-0.05-0.01-0.07-0.03c-0.03-0.04-0.03-0.1,0.01-0.13l0.31-0.26
				c0.04-0.03,0.1-0.03,0.13,0.01c0.03,0.04,0.03,0.1-0.01,0.13l-0.31,0.26C6.24,475.03,6.22,475.04,6.2,475.04z"/>
			<path class="st0" d="M6.2,475.16c-0.06,0-0.13-0.03-0.17-0.08c-0.04-0.04-0.05-0.1-0.05-0.16c0.01-0.06,0.03-0.11,0.08-0.15
				l0.31-0.25c0.04-0.04,0.1-0.06,0.15-0.05c0.06,0,0.11,0.03,0.15,0.08s0.06,0.1,0.05,0.16s-0.03,0.11-0.08,0.15l-0.31,0.25
				C6.3,475.14,6.25,475.16,6.2,475.16z M6.18,474.92C6.18,474.92,6.17,474.92,6.18,474.92L6.18,474.92z"/>
		</g>
	</g>
	<g>
		<g>
			<path class="st0" d="M9.12,477.59H7.66c-0.05,0-0.09-0.04-0.09-0.09s0.04-0.09,0.09-0.09h1.46c0.05,0,0.09,0.04,0.09,0.09
				S9.17,477.59,9.12,477.59z"/>
			<path class="st0" d="M9.12,477.72H7.66c-0.12,0-0.22-0.1-0.22-0.22s0.1-0.22,0.22-0.22h1.46c0.12,0,0.22,0.1,0.22,0.22
				S9.24,477.72,9.12,477.72z"/>
		</g>
	</g>
	<g>
		<g>
			<path class="st0" d="M7.66,480.15H6.2c-0.05,0-0.09-0.04-0.09-0.09s0.04-0.09,0.09-0.09h1.46c0.05,0,0.09,0.04,0.09,0.09
				S7.71,480.15,7.66,480.15z"/>
			<path class="st0" d="M7.66,480.28H6.2c-0.12,0-0.22-0.1-0.22-0.22s0.1-0.22,0.22-0.22h1.46c0.12,0,0.22,0.1,0.22,0.22
				S7.78,480.28,7.66,480.28z"/>
		</g>
	</g>
	<g>
		<g>
			<path class="st0" d="M6.2,480.15c-0.05,0-0.09-0.04-0.09-0.09v-0.73c0-0.05,0.04-0.09,0.09-0.09c0.05,0,0.09,0.04,0.09,0.09v0.73
				C6.29,480.11,6.25,480.15,6.2,480.15z"/>
			<path class="st0" d="M6.2,480.28c-0.12,0-0.22-0.1-0.22-0.22v-0.73c0-0.12,0.1-0.22,0.22-0.22c0.12,0,0.22,0.1,0.22,0.22v0.73
				C6.41,480.18,6.32,480.28,6.2,480.28z"/>
		</g>
	</g>
	<g>
		<g>
			<path class="st0" d="M6.2,480.15c-0.03,0-0.05-0.01-0.07-0.03c-0.03-0.04-0.03-0.1,0.01-0.13l0.31-0.26
				c0.04-0.03,0.1-0.03,0.13,0.01c0.03,0.04,0.03,0.1-0.01,0.13l-0.31,0.26C6.24,480.15,6.22,480.15,6.2,480.15z"/>
			<path class="st0" d="M6.2,480.28c-0.06,0-0.13-0.03-0.17-0.08c-0.04-0.04-0.05-0.1-0.05-0.16c0.01-0.06,0.03-0.11,0.08-0.15
				l0.31-0.26c0.1-0.08,0.23-0.06,0.3,0.03c0.04,0.04,0.06,0.1,0.05,0.16s-0.03,0.11-0.08,0.15l-0.31,0.26
				C6.29,480.26,6.25,480.28,6.2,480.28z"/>
		</g>
	</g>
	<g>
		<g>
			<path class="st0" d="M6.51,479.9c-0.05,0-0.09-0.04-0.09-0.09v-0.22c0-0.05,0.04-0.09,0.09-0.09c0.05,0,0.09,0.04,0.09,0.09v0.22
				C6.6,479.86,6.56,479.9,6.51,479.9z"/>
			<path class="st0" d="M6.51,480.02c-0.12,0-0.22-0.1-0.22-0.22v-0.22c0-0.12,0.1-0.22,0.22-0.22s0.22,0.1,0.22,0.22v0.22
				C6.73,479.92,6.63,480.02,6.51,480.02z"/>
		</g>
	</g>
	<g>
		<g>
			<path class="st0" d="M7.35,479.9H6.51c-0.05,0-0.09-0.04-0.09-0.09s0.04-0.09,0.09-0.09h0.84c0.05,0,0.09,0.04,0.09,0.09
				S7.4,479.9,7.35,479.9z"/>
			<path class="st0" d="M7.35,480.02H6.51c-0.12,0-0.22-0.1-0.22-0.22s0.1-0.22,0.22-0.22h0.84c0.12,0,0.22,0.1,0.22,0.22
				S7.47,480.02,7.35,480.02z"/>
		</g>
	</g>
	<g>
		<g>
			<path class="st0" d="M11.31,473.79c-0.1,0-0.18-0.08-0.18-0.18c0-0.73-0.59-1.32-1.31-1.32c-0.1,0-0.18-0.08-0.18-0.18
				s0.08-0.18,0.18-0.18c0.93,0,1.68,0.75,1.68,1.68C11.5,473.71,11.42,473.79,11.31,473.79z"/>
			<path class="st0" d="M11.31,473.92c-0.17,0-0.31-0.14-0.31-0.31c0-0.66-0.53-1.19-1.19-1.19c-0.17,0-0.31-0.14-0.31-0.31
				s0.14-0.31,0.31-0.31c0.99,0,1.8,0.81,1.8,1.81C11.62,473.78,11.48,473.92,11.31,473.92z M9.82,472.05
				c-0.03,0-0.06,0.03-0.06,0.06s0.03,0.06,0.06,0.06c0.79,0,1.44,0.65,1.44,1.44c0,0.06,0.12,0.06,0.12,0
				C11.37,472.75,10.68,472.05,9.82,472.05z"/>
		</g>
	</g>
	<g>
		<g>
			<path class="st0" d="M9.82,472.3H5.51c-0.1,0-0.18-0.08-0.18-0.18s0.08-0.18,0.18-0.18h4.31c0.1,0,0.18,0.08,0.18,0.18
				S9.92,472.3,9.82,472.3z"/>
			<path class="st0" d="M9.82,472.42H5.51c-0.17,0-0.31-0.14-0.31-0.31s0.14-0.31,0.31-0.31h4.31c0.17,0,0.31,0.14,0.31,0.31
				S9.99,472.42,9.82,472.42z M5.51,472.05c-0.03,0-0.06,0.03-0.06,0.06s0.03,0.06,0.06,0.06h4.31c0.03,0,0.06-0.03,0.06-0.06
				s-0.03-0.06-0.06-0.06H5.51z"/>
		</g>
	</g>
	<g>
		<g>
			<path class="st0" d="M4.01,473.79c-0.1,0-0.18-0.08-0.18-0.18c0-0.93,0.75-1.68,1.68-1.68c0.1,0,0.18,0.08,0.18,0.18
				s-0.08,0.18-0.18,0.18c-0.73,0-1.32,0.59-1.32,1.32C4.19,473.71,4.11,473.79,4.01,473.79z"/>
			<path class="st0" d="M4.01,473.92c-0.17,0-0.31-0.14-0.31-0.31c0-1,0.81-1.81,1.81-1.81c0.17,0,0.31,0.14,0.31,0.31
				s-0.14,0.31-0.31,0.31c-0.66,0-1.19,0.53-1.19,1.19C4.32,473.78,4.18,473.92,4.01,473.92z M5.51,472.05
				c-0.86,0-1.56,0.7-1.56,1.56c0,0.06,0.12,0.06,0.12,0c0-0.79,0.65-1.44,1.44-1.44c0.03,0,0.06-0.03,0.06-0.06
				S5.54,472.05,5.51,472.05z"/>
		</g>
	</g>
	<g>
		<g>
			<path class="st0" d="M7.66,485.14c-0.02,0-0.05-0.01-0.06-0.03l-0.6-0.6c-0.02-0.02-0.03-0.04-0.03-0.07
				c0-0.02,0.01-0.05,0.03-0.07l0.6-0.6c0.04-0.04,0.09-0.04,0.13,0c0.04,0.04,0.04,0.09,0,0.13l-0.54,0.54l0.54,0.53
				c0.04,0.04,0.04,0.09,0,0.13C7.71,485.13,7.68,485.14,7.66,485.14z"/>
			<path class="st0" d="M7.66,485.26c-0.06,0-0.11-0.02-0.15-0.06l-0.6-0.6c-0.04-0.04-0.06-0.09-0.06-0.15
				c0-0.06,0.02-0.11,0.06-0.15l0.61-0.61c0.09-0.08,0.22-0.08,0.31,0c0.04,0.04,0.06,0.09,0.06,0.15c0,0.06-0.02,0.11-0.06,0.15
				l-0.45,0.45l0.45,0.45c0.04,0.04,0.06,0.09,0.06,0.15c0,0.06-0.02,0.11-0.06,0.15C7.78,485.24,7.72,485.26,7.66,485.26z"/>
		</g>
	</g>
	<g>
		<g>
			<path class="st0" d="M7.66,470.52c-0.02,0-0.05-0.01-0.06-0.03l-0.6-0.6c-0.02-0.02-0.03-0.04-0.03-0.07
				c0-0.02,0.01-0.05,0.03-0.07l0.6-0.6c0.04-0.04,0.09-0.04,0.13,0c0.04,0.04,0.04,0.09,0,0.13l-0.54,0.54l0.54,0.53
				c0.04,0.04,0.04,0.09,0,0.13C7.71,470.51,7.68,470.52,7.66,470.52z"/>
			<path class="st0" d="M7.66,470.65c-0.06,0-0.11-0.02-0.15-0.06l-0.6-0.6c-0.04-0.04-0.06-0.1-0.06-0.15
				c0-0.06,0.02-0.11,0.06-0.15l0.61-0.61c0.09-0.08,0.22-0.08,0.3,0c0.09,0.09,0.09,0.22,0,0.31l-0.45,0.45l0.45,0.45
				c0.04,0.04,0.06,0.09,0.06,0.15c0,0.06-0.02,0.11-0.06,0.16C7.78,470.62,7.72,470.65,7.66,470.65z"/>
		</g>
	</g>
	<g>
		<g>
			<path class="st0" d="M7.66,486.09c-0.42,0-0.84-0.11-1.22-0.34l-0.79-0.78c-0.07-0.07-0.07-0.19,0-0.26
				c0.07-0.07,0.19-0.07,0.26,0l0.75,0.75c0.92,0.54,2.15,0.23,2.72-0.72c0.05-0.09,0.16-0.12,0.25-0.06
				c0.09,0.05,0.12,0.16,0.06,0.25C9.25,485.68,8.47,486.09,7.66,486.09z"/>
			<path class="st0" d="M7.66,486.21c-0.45,0-0.9-0.12-1.28-0.35l-0.81-0.8c-0.06-0.06-0.09-0.14-0.09-0.22
				c0-0.08,0.03-0.16,0.09-0.22c0.11-0.12,0.32-0.12,0.44,0l0.74,0.74c0.87,0.5,2.01,0.2,2.54-0.68c0.04-0.07,0.11-0.12,0.19-0.14
				c0.08-0.02,0.16-0.01,0.23,0.03c0.15,0.09,0.19,0.28,0.11,0.42C9.36,485.75,8.53,486.21,7.66,486.21z M5.78,484.79
				c-0.01,0-0.03,0-0.04,0.02c-0.02,0.02-0.02,0.03-0.02,0.04c0,0.01,0,0.03,0.02,0.04l0.79,0.78c0.33,0.19,0.73,0.3,1.13,0.3
				c0.79,0,1.53-0.42,1.93-1.09c0.02-0.03,0.01-0.06-0.02-0.08c-0.01-0.01-0.03-0.01-0.05-0.01c-0.01,0-0.02,0.01-0.03,0.03
				c-0.6,1-1.9,1.35-2.89,0.76l-0.02-0.02l-0.75-0.75C5.81,484.79,5.79,484.79,5.78,484.79z"/>
		</g>
	</g>
	<g>
		<g>
			<path class="st0" d="M6.51,474.56c-0.02,0-0.04-0.01-0.06-0.02l-0.31-0.26c-0.04-0.03-0.04-0.09-0.01-0.13
				c0.03-0.04,0.09-0.05,0.13-0.01l0.31,0.26c0.04,0.03,0.04,0.09,0.01,0.13C6.56,474.55,6.54,474.56,6.51,474.56z"/>
			<path class="st0" d="M6.51,474.69c-0.05,0-0.1-0.02-0.14-0.05l-0.31-0.25c-0.04-0.04-0.07-0.09-0.08-0.15
				c-0.01-0.06,0.01-0.11,0.05-0.16c0.04-0.05,0.09-0.07,0.15-0.08c0.06,0,0.11,0.01,0.16,0.05l0.31,0.25
				c0.09,0.08,0.11,0.21,0.03,0.3C6.63,474.66,6.57,474.69,6.51,474.69z"/>
		</g>
	</g>
	<g>
		<g>
			<path class="st0" d="M10.04,477.59H9.96c-0.05,0-0.09-0.04-0.09-0.09s0.04-0.09,0.09-0.09h0.07c0.05,0,0.09,0.04,0.09,0.09
				S10.09,477.59,10.04,477.59z"/>
			<path class="st0" d="M10.04,477.72H9.96c-0.12,0-0.22-0.1-0.22-0.22s0.1-0.22,0.22-0.22h0.07c0.12,0,0.22,0.1,0.22,0.22
				S10.16,477.72,10.04,477.72z"/>
		</g>
	</g>
	<g>
		<g>
			<path class="st0" d="M7.35,479.9c-0.05,0-0.09-0.04-0.09-0.09v-0.22c0-0.05,0.04-0.09,0.09-0.09c0.05,0,0.09,0.04,0.09,0.09v0.22
				C7.44,479.86,7.4,479.9,7.35,479.9z"/>
			<path class="st0" d="M7.35,480.02c-0.12,0-0.22-0.1-0.22-0.22v-0.22c0-0.12,0.1-0.22,0.22-0.22s0.22,0.1,0.22,0.22v0.22
				C7.57,479.92,7.47,480.02,7.35,480.02z"/>
		</g>
	</g>
	<g>
		<g>
			<path class="st0" d="M7.66,480.15c-0.02,0-0.04-0.01-0.06-0.02l-0.31-0.26c-0.04-0.03-0.04-0.09-0.01-0.13
				c0.03-0.04,0.09-0.04,0.13-0.01l0.31,0.26c0.04,0.03,0.04,0.09,0.01,0.13C7.71,480.14,7.69,480.15,7.66,480.15z"/>
			<path class="st0" d="M7.66,480.28c-0.05,0-0.1-0.02-0.14-0.05l-0.31-0.26c-0.04-0.04-0.07-0.09-0.08-0.15
				c-0.01-0.06,0.01-0.11,0.05-0.16c0.08-0.09,0.21-0.1,0.3-0.03l0.31,0.26c0.04,0.04,0.07,0.09,0.08,0.15
				c0.01,0.06-0.01,0.11-0.05,0.16C7.79,480.25,7.73,480.28,7.66,480.28z"/>
		</g>
	</g>
	<g>
		<g>
			<path class="st0" d="M7.66,480.15c-0.05,0-0.09-0.04-0.09-0.09v-0.73c0-0.05,0.04-0.09,0.09-0.09c0.05,0,0.09,0.04,0.09,0.09
				v0.73C7.75,480.11,7.71,480.15,7.66,480.15z"/>
			<path class="st0" d="M7.66,480.28c-0.12,0-0.22-0.1-0.22-0.22v-0.73c0-0.12,0.1-0.22,0.22-0.22s0.22,0.1,0.22,0.22v0.73
				C7.88,480.18,7.78,480.28,7.66,480.28z"/>
		</g>
	</g>
	<g>
		<g>
			<path class="st0" d="M7.29,477.59c-0.05,0-0.09-0.04-0.09-0.09v-0.73c0-0.05,0.04-0.09,0.09-0.09c0.05,0,0.09,0.04,0.09,0.09
				v0.73C7.39,477.55,7.34,477.59,7.29,477.59z"/>
			<path class="st0" d="M7.29,477.72c-0.12,0-0.22-0.1-0.22-0.22v-0.73c0-0.12,0.1-0.22,0.22-0.22s0.22,0.1,0.22,0.22v0.73
				C7.51,477.62,7.41,477.72,7.29,477.72z"/>
		</g>
	</g>
	<g>
		<g>
			<path class="st0" d="M7.66,477.59H7.29c-0.05,0-0.09-0.04-0.09-0.09s0.04-0.09,0.09-0.09h0.37c0.05,0,0.09,0.04,0.09,0.09
				S7.71,477.59,7.66,477.59z"/>
			<path class="st0" d="M7.66,477.72H7.29c-0.12,0-0.22-0.1-0.22-0.22s0.1-0.22,0.22-0.22h0.37c0.12,0,0.22,0.1,0.22,0.22
				S7.78,477.72,7.66,477.72z"/>
		</g>
	</g>
	<g>
		<g>
			<path class="st0" d="M4.01,480.85c-0.1,0-0.18-0.08-0.18-0.18v-7.05c0-0.1,0.08-0.18,0.18-0.18c0.1,0,0.18,0.08,0.18,0.18v7.05
				C4.19,480.77,4.11,480.85,4.01,480.85z"/>
			<path class="st0" d="M4.01,480.97c-0.17,0-0.31-0.14-0.31-0.31v-7.05c0-0.17,0.14-0.31,0.31-0.31s0.31,0.14,0.31,0.31v7.05
				C4.32,480.83,4.18,480.97,4.01,480.97z M4.01,473.55c-0.03,0-0.06,0.03-0.06,0.06v7.05c0,0.06,0.12,0.06,0.12,0v-7.05
				C4.07,473.58,4.04,473.55,4.01,473.55z"/>
		</g>
	</g>
	<g>
		<g>
			<path class="st0" d="M5.51,482.35c-0.93,0-1.68-0.75-1.68-1.68c0-0.1,0.08-0.18,0.18-0.18c0.1,0,0.18,0.08,0.18,0.18
				c0,0.73,0.59,1.32,1.32,1.32c0.1,0,0.18,0.08,0.18,0.18S5.61,482.35,5.51,482.35z"/>
			<path class="st0" d="M5.51,482.47c-1,0-1.81-0.81-1.81-1.81c0-0.17,0.14-0.31,0.31-0.31s0.31,0.14,0.31,0.31
				c0,0.66,0.53,1.19,1.19,1.19c0.17,0,0.31,0.14,0.31,0.31S5.68,482.47,5.51,482.47z M4.01,480.61c-0.03,0-0.06,0.03-0.06,0.06
				c0,0.86,0.7,1.56,1.56,1.56c0.03,0,0.06-0.03,0.06-0.06s-0.03-0.06-0.06-0.06c-0.79,0-1.44-0.65-1.44-1.44
				C4.07,480.63,4.04,480.61,4.01,480.61z"/>
		</g>
	</g>
	<g>
		<g>
			<path class="st0" d="M7.66,485.14c-0.02,0-0.05-0.01-0.06-0.03c-0.04-0.04-0.04-0.09,0-0.13l0.53-0.54l-0.53-0.54
				c-0.04-0.04-0.04-0.09,0-0.13c0.04-0.04,0.09-0.04,0.13,0l0.6,0.6c0.04,0.04,0.04,0.09,0,0.13l-0.6,0.6
				C7.71,485.13,7.69,485.14,7.66,485.14z"/>
			<path class="st0" d="M7.66,485.27c-0.06,0-0.11-0.02-0.15-0.06c-0.08-0.08-0.08-0.22,0-0.31l0.45-0.45L7.51,484
				c-0.08-0.09-0.08-0.22,0-0.31c0.08-0.08,0.23-0.08,0.31,0l0.6,0.6c0.04,0.04,0.06,0.09,0.06,0.15s-0.02,0.11-0.06,0.15l-0.6,0.6
				C7.78,485.24,7.72,485.27,7.66,485.27z M7.64,485.03C7.64,485.03,7.64,485.03,7.64,485.03L7.64,485.03z M7.64,483.87L7.64,483.87
				L7.64,483.87L7.64,483.87z"/>
		</g>
	</g>
	<g>
		<g>
			<path class="st0" d="M3.57,480.81c-0.1,0-0.18-0.08-0.18-0.18v-6.97c0-0.1,0.08-0.18,0.18-0.18s0.18,0.08,0.18,0.18v6.97
				C3.75,480.73,3.67,480.81,3.57,480.81z"/>
			<path class="st0" d="M3.57,480.93c-0.17,0-0.31-0.14-0.31-0.31v-6.97c0-0.17,0.14-0.31,0.31-0.31s0.31,0.14,0.31,0.31v6.97
				C3.88,480.79,3.74,480.93,3.57,480.93z M3.57,473.59c-0.03,0-0.06,0.03-0.06,0.06v6.97c0,0.06,0.12,0.07,0.12,0v-6.97
				C3.63,473.62,3.6,473.59,3.57,473.59z"/>
		</g>
	</g>
	<g>
		<g>
			<path class="st0" d="M8.81,472.88H5.6c-0.1,0-0.18-0.08-0.18-0.18s0.08-0.18,0.18-0.18h3.21c0.1,0,0.18,0.08,0.18,0.18
				S8.91,472.88,8.81,472.88z"/>
			<path class="st0" d="M8.81,473.01H5.6c-0.17,0-0.31-0.14-0.31-0.31s0.14-0.31,0.31-0.31h3.21c0.17,0,0.31,0.14,0.31,0.31
				S8.98,473.01,8.81,473.01z M5.6,472.64c-0.03,0-0.06,0.03-0.06,0.06s0.03,0.06,0.06,0.06h3.21c0.03,0,0.06-0.03,0.06-0.06
				s-0.03-0.06-0.06-0.06H5.6z"/>
		</g>
	</g>
	<g>
		<g>
			<path class="st0" d="M10.64,474.71c-0.05,0-0.09-0.02-0.13-0.05l-1.83-1.83c-0.07-0.07-0.07-0.19,0-0.26
				c0.07-0.07,0.19-0.07,0.26,0l1.83,1.82c0.07,0.07,0.07,0.19,0,0.26C10.73,474.69,10.69,474.71,10.64,474.71z"/>
			<path class="st0" d="M10.64,474.83c-0.08,0-0.16-0.03-0.22-0.09l-1.83-1.83c-0.06-0.06-0.09-0.14-0.09-0.22
				c0-0.08,0.03-0.16,0.09-0.22c0.06-0.06,0.13-0.09,0.22-0.09c0,0,0,0,0,0c0.08,0,0.16,0.03,0.22,0.09l1.83,1.82
				c0.06,0.06,0.09,0.14,0.09,0.22s-0.03,0.16-0.09,0.22C10.8,474.8,10.72,474.83,10.64,474.83z M8.81,472.64
				C8.81,472.64,8.81,472.64,8.81,472.64c-0.02,0-0.03,0.01-0.04,0.02c-0.02,0.01-0.02,0.03-0.02,0.04s0,0.03,0.02,0.04l1.83,1.83
				c0.03,0.03,0.05,0.03,0.08,0c0.01-0.01,0.02-0.03,0.02-0.04c0-0.01,0-0.03-0.02-0.04l-1.83-1.82
				C8.84,472.65,8.82,472.64,8.81,472.64z"/>
		</g>
	</g>
	<g>
		<g>
			<path class="st0" d="M10.64,479.93c-0.1,0-0.18-0.08-0.18-0.18v-5.22c0-0.1,0.08-0.18,0.18-0.18c0.1,0,0.18,0.08,0.18,0.18v5.22
				C10.82,479.85,10.74,479.93,10.64,479.93z"/>
			<path class="st0" d="M10.64,480.06c-0.17,0-0.31-0.14-0.31-0.31v-5.22c0-0.17,0.14-0.31,0.31-0.31s0.31,0.14,0.31,0.31v5.22
				C10.95,479.92,10.81,480.06,10.64,480.06z M10.64,474.47c-0.03,0-0.06,0.03-0.06,0.06v5.22c0,0.06,0.12,0.06,0.12,0v-5.22
				C10.7,474.49,10.67,474.47,10.64,474.47z"/>
		</g>
	</g>
	<g>
		<g>
			<path class="st0" d="M8.81,481.76c-0.05,0-0.09-0.02-0.13-0.05c-0.07-0.07-0.07-0.19,0-0.26l1.83-1.83
				c0.07-0.07,0.19-0.07,0.26,0c0.07,0.07,0.07,0.19,0,0.26l-1.83,1.83C8.9,481.74,8.86,481.76,8.81,481.76z"/>
			<path class="st0" d="M8.81,481.88c-0.08,0-0.16-0.03-0.22-0.09c-0.06-0.06-0.09-0.13-0.09-0.22c0-0.08,0.03-0.16,0.09-0.22
				l1.83-1.83c0.11-0.12,0.32-0.12,0.44,0c0.06,0.06,0.09,0.13,0.09,0.22c0,0.08-0.03,0.16-0.09,0.22l-1.83,1.83
				C8.97,481.85,8.89,481.88,8.81,481.88z M10.64,479.69c-0.01,0-0.03,0-0.04,0.02l-1.83,1.83c-0.02,0.01-0.02,0.03-0.02,0.04
				c0,0.01,0,0.03,0.02,0.04c0.03,0.03,0.05,0.03,0.08,0l1.83-1.83c0.02-0.01,0.02-0.03,0.02-0.04c0-0.01,0-0.03-0.02-0.04
				C10.67,479.69,10.65,479.69,10.64,479.69z"/>
		</g>
	</g>
	<g>
		<g>
			<path class="st0" d="M8.81,481.76H5.6c-0.1,0-0.18-0.08-0.18-0.18s0.08-0.18,0.18-0.18h3.21c0.1,0,0.18,0.08,0.18,0.18
				S8.91,481.76,8.81,481.76z"/>
			<path class="st0" d="M8.81,481.88H5.6c-0.17,0-0.31-0.14-0.31-0.31s0.14-0.31,0.31-0.31h3.21c0.17,0,0.31,0.14,0.31,0.31
				S8.98,481.88,8.81,481.88z M5.6,481.52c-0.03,0-0.06,0.03-0.06,0.06s0.03,0.06,0.06,0.06h3.21c0.03,0,0.06-0.03,0.06-0.06
				s-0.03-0.06-0.06-0.06H5.6z"/>
		</g>
	</g>
	<g>
		<g>
			<path class="st0" d="M5.6,481.76c-0.61,0-1.1-0.49-1.1-1.1c0-0.1,0.08-0.18,0.18-0.18s0.18,0.08,0.18,0.18
				c0,0.4,0.33,0.73,0.73,0.73c0.1,0,0.18,0.08,0.18,0.18S5.7,481.76,5.6,481.76z"/>
			<path class="st0" d="M5.6,481.88c-0.67,0-1.22-0.55-1.22-1.22c0-0.17,0.14-0.31,0.31-0.31s0.31,0.14,0.31,0.31
				c0,0.33,0.27,0.61,0.61,0.61c0.17,0,0.31,0.14,0.31,0.31S5.77,481.88,5.6,481.88z M4.68,480.6c-0.03,0-0.06,0.03-0.06,0.06
				c0,0.54,0.44,0.97,0.97,0.97c0.03,0,0.06-0.03,0.06-0.06s-0.03-0.06-0.06-0.06c-0.47,0-0.86-0.38-0.86-0.86
				C4.74,480.63,4.71,480.6,4.68,480.6z"/>
		</g>
	</g>
	<g>
		<g>
			<path class="st0" d="M4.68,480.85c-0.1,0-0.18-0.08-0.18-0.18v-7.05c0-0.1,0.08-0.18,0.18-0.18s0.18,0.08,0.18,0.18v7.05
				C4.87,480.76,4.78,480.85,4.68,480.85z"/>
			<path class="st0" d="M4.68,480.97c-0.17,0-0.31-0.14-0.31-0.31v-7.05c0-0.17,0.14-0.31,0.31-0.31s0.31,0.14,0.31,0.31v7.05
				C4.99,480.83,4.85,480.97,4.68,480.97z M4.68,473.55c-0.03,0-0.06,0.03-0.06,0.06v7.05c0,0.06,0.12,0.06,0.12,0v-7.05
				C4.74,473.58,4.71,473.55,4.68,473.55z"/>
		</g>
	</g>
	<g>
		<g>
			<path class="st0" d="M4.68,473.79c-0.1,0-0.18-0.08-0.18-0.18c0-0.6,0.49-1.09,1.1-1.09c0.1,0,0.18,0.08,0.18,0.18
				s-0.08,0.18-0.18,0.18c-0.4,0-0.73,0.33-0.73,0.73C4.87,473.71,4.78,473.79,4.68,473.79z"/>
			<path class="st0" d="M4.68,473.92c-0.17,0-0.31-0.14-0.31-0.31c0-0.67,0.55-1.22,1.22-1.22c0.17,0,0.31,0.14,0.31,0.31
				s-0.14,0.31-0.31,0.31c-0.33,0-0.61,0.27-0.61,0.6C4.99,473.78,4.85,473.92,4.68,473.92z M5.6,472.64
				c-0.54,0-0.97,0.43-0.97,0.97c0,0.06,0.12,0.06,0.12,0c0-0.47,0.38-0.85,0.86-0.85c0.03,0,0.06-0.03,0.06-0.06
				S5.63,472.64,5.6,472.64z"/>
		</g>
	</g>
	<g>
		<g>
			<path class="st0" d="M7.35,479.68H6.51c-0.05,0-0.09-0.04-0.09-0.09s0.04-0.09,0.09-0.09h0.84c0.05,0,0.09,0.04,0.09,0.09
				S7.4,479.68,7.35,479.68z"/>
			<path class="st0" d="M7.35,479.8H6.51c-0.12,0-0.22-0.1-0.22-0.22s0.1-0.22,0.22-0.22h0.84c0.12,0,0.22,0.1,0.22,0.22
				S7.47,479.8,7.35,479.8z"/>
		</g>
	</g>
	<g>
		<g>
			<path class="st0" d="M7.35,479.68c-0.03,0-0.05-0.01-0.07-0.03c-0.03-0.04-0.03-0.1,0.01-0.13l0.31-0.26
				c0.04-0.03,0.1-0.03,0.13,0.01c0.03,0.04,0.03,0.1-0.01,0.13l-0.31,0.26C7.39,479.67,7.37,479.68,7.35,479.68z"/>
			<path class="st0" d="M7.35,479.8c-0.06,0-0.12-0.03-0.17-0.08c-0.04-0.04-0.06-0.1-0.05-0.16s0.03-0.11,0.08-0.15l0.31-0.26
				c0.09-0.07,0.23-0.06,0.3,0.03c0.04,0.05,0.06,0.1,0.05,0.16c-0.01,0.06-0.03,0.11-0.08,0.15l-0.31,0.26
				C7.45,479.79,7.4,479.8,7.35,479.8z M7.69,479.35L7.69,479.35C7.69,479.35,7.69,479.35,7.69,479.35z"/>
		</g>
	</g>
	<g>
		<g>
			<path class="st0" d="M7.66,479.42H6.2c-0.05,0-0.09-0.04-0.09-0.09s0.04-0.09,0.09-0.09h1.46c0.05,0,0.09,0.04,0.09,0.09
				S7.71,479.42,7.66,479.42z"/>
			<path class="st0" d="M7.66,479.55H6.2c-0.12,0-0.22-0.1-0.22-0.22s0.1-0.22,0.22-0.22h1.46c0.12,0,0.22,0.1,0.22,0.22
				S7.78,479.55,7.66,479.55z"/>
		</g>
	</g>
	<g>
		<g>
			<path class="st0" d="M6.51,479.68c-0.02,0-0.04-0.01-0.06-0.02l-0.31-0.26c-0.04-0.03-0.04-0.09-0.01-0.13
				c0.03-0.04,0.09-0.05,0.13-0.01l0.31,0.26c0.04,0.03,0.04,0.09,0.01,0.13C6.56,479.67,6.54,479.68,6.51,479.68z"/>
			<path class="st0" d="M6.51,479.8c-0.05,0-0.1-0.02-0.14-0.05l-0.31-0.26c-0.04-0.04-0.07-0.09-0.08-0.15
				c-0.01-0.06,0.01-0.11,0.05-0.16c0.04-0.04,0.09-0.07,0.15-0.08c0.06,0,0.11,0.01,0.16,0.05l0.31,0.26
				c0.04,0.04,0.07,0.09,0.08,0.15s-0.01,0.11-0.05,0.16C6.64,479.77,6.58,479.8,6.51,479.8z M6.18,479.36L6.18,479.36L6.18,479.36z
				"/>
		</g>
	</g>
	<g>
		<g>
			<path class="st0" d="M11.47,472.84c-0.06,0-0.12-0.03-0.16-0.09l-1.94-3.22c-0.05-0.09-0.02-0.2,0.06-0.25
				c0.08-0.05,0.2-0.02,0.25,0.06l1.94,3.22c0.05,0.09,0.02,0.2-0.06,0.25C11.54,472.83,11.51,472.84,11.47,472.84z"/>
			<path class="st0" d="M11.47,472.96c-0.11,0-0.21-0.06-0.26-0.15l-1.94-3.22c-0.09-0.15-0.04-0.34,0.11-0.42
				c0.07-0.04,0.15-0.05,0.23-0.04c0.08,0.02,0.15,0.07,0.19,0.14l1.94,3.22c0.04,0.07,0.05,0.15,0.03,0.23s-0.07,0.15-0.14,0.19
				C11.59,472.95,11.53,472.96,11.47,472.96z M9.54,469.37c-0.01,0-0.02,0-0.03,0.01c-0.03,0.02-0.04,0.05-0.02,0.08l1.94,3.22
				c0.02,0.03,0.05,0.04,0.08,0.02c0.02-0.01,0.03-0.03,0.03-0.04c0-0.01,0-0.03-0.01-0.04l-1.94-3.22
				c-0.01-0.02-0.03-0.03-0.04-0.03C9.55,469.37,9.54,469.37,9.54,469.37z"/>
		</g>
	</g>
	<g>
		<g>
			<path class="st0" d="M6.51,474.78c-0.05,0-0.09-0.04-0.09-0.09v-0.22c0-0.05,0.04-0.09,0.09-0.09c0.05,0,0.09,0.04,0.09,0.09
				v0.22C6.6,474.74,6.56,474.78,6.51,474.78z"/>
			<path class="st0" d="M6.51,474.9c-0.12,0-0.22-0.1-0.22-0.22v-0.22c0-0.12,0.1-0.22,0.22-0.22c0.12,0,0.22,0.1,0.22,0.22v0.22
				C6.73,474.81,6.63,474.9,6.51,474.9z"/>
		</g>
	</g>
	<g>
		<g>
			<path class="st0" d="M7.35,474.78H6.51c-0.05,0-0.09-0.04-0.09-0.09s0.04-0.09,0.09-0.09h0.84c0.05,0,0.09,0.04,0.09,0.09
				S7.4,474.78,7.35,474.78z"/>
			<path class="st0" d="M7.35,474.9H6.51c-0.12,0-0.22-0.1-0.22-0.22s0.1-0.22,0.22-0.22h0.84c0.12,0,0.22,0.1,0.22,0.22
				S7.47,474.9,7.35,474.9z"/>
		</g>
	</g>
	<g>
		<g>
			<path class="st0" d="M7.35,474.56H6.51c-0.05,0-0.09-0.04-0.09-0.09s0.04-0.09,0.09-0.09h0.84c0.05,0,0.09,0.04,0.09,0.09
				S7.4,474.56,7.35,474.56z"/>
			<path class="st0" d="M7.35,474.69H6.51c-0.12,0-0.22-0.1-0.22-0.22s0.1-0.22,0.22-0.22h0.84c0.12,0,0.22,0.1,0.22,0.22
				S7.47,474.69,7.35,474.69z"/>
		</g>
	</g>
	<g>
		<g>
			<path class="st0" d="M9.54,485.02c-0.03,0-0.07-0.01-0.09-0.03c-0.09-0.05-0.12-0.16-0.06-0.25l1.94-3.22
				c0.05-0.09,0.17-0.12,0.25-0.06c0.09,0.05,0.12,0.16,0.06,0.25l-1.94,3.22C9.66,484.99,9.6,485.02,9.54,485.02z"/>
			<path class="st0" d="M9.54,485.15c-0.06,0-0.11-0.02-0.16-0.05c-0.07-0.04-0.12-0.11-0.14-0.19c-0.02-0.08-0.01-0.16,0.03-0.23
				l1.94-3.22c0.04-0.07,0.11-0.12,0.19-0.14c0.08-0.02,0.16-0.01,0.23,0.04c0.15,0.09,0.19,0.28,0.11,0.42L9.8,485
				C9.75,485.09,9.65,485.15,9.54,485.15z M11.48,481.56c-0.02,0-0.04,0.01-0.06,0.03l-1.94,3.22c-0.01,0.01-0.01,0.03-0.01,0.04
				c0,0.01,0.01,0.03,0.03,0.04l0.03,0.01c0.02,0,0.04-0.01,0.05-0.03l1.94-3.22c0.02-0.03,0.01-0.06-0.02-0.08
				C11.5,481.56,11.49,481.56,11.48,481.56z"/>
		</g>
	</g>
	<g>
		<g>
			<path class="st0" d="M3.57,473.83c-0.02,0-0.03,0-0.05-0.01c-0.1-0.03-0.15-0.13-0.13-0.23l0.28-1c0.03-0.1,0.13-0.15,0.23-0.13
				c0.1,0.03,0.15,0.13,0.13,0.23l-0.28,1C3.72,473.78,3.65,473.83,3.57,473.83z"/>
			<path class="st0" d="M3.57,473.96c-0.03,0-0.06,0-0.09-0.01c-0.08-0.02-0.14-0.07-0.18-0.14c-0.04-0.07-0.05-0.16-0.03-0.24
				l0.28-1c0.04-0.16,0.22-0.26,0.38-0.22c0.16,0.05,0.26,0.22,0.22,0.38l-0.28,1C3.83,473.87,3.7,473.96,3.57,473.96z M3.85,472.59
				c-0.03,0-0.05,0.02-0.06,0.04l-0.28,1c-0.01,0.02,0,0.04,0.01,0.04s0.01,0.02,0.03,0.03l0.02,0c0.03,0,0.05-0.02,0.06-0.04
				l0.28-1c0.01-0.03-0.01-0.06-0.04-0.07C3.86,472.6,3.85,472.59,3.85,472.59z"/>
		</g>
	</g>
	<g>
		<g>
			<path class="st0" d="M11.75,473.83c-0.08,0-0.15-0.05-0.18-0.13l-0.28-1c-0.03-0.1,0.03-0.2,0.13-0.23
				c0.1-0.03,0.2,0.03,0.23,0.13l0.28,1c0.03,0.1-0.03,0.2-0.13,0.23C11.79,473.83,11.77,473.83,11.75,473.83z"/>
			<path class="st0" d="M11.75,473.96c-0.14,0-0.26-0.09-0.3-0.22l-0.28-1c-0.05-0.16,0.05-0.33,0.21-0.38
				c0.16-0.05,0.33,0.05,0.38,0.21l0.28,1c0.02,0.08,0.01,0.16-0.03,0.23c-0.04,0.07-0.11,0.12-0.19,0.15
				C11.81,473.96,11.78,473.96,11.75,473.96z M11.47,472.59c0,0-0.01,0-0.02,0c-0.03,0.01-0.05,0.04-0.04,0.07l0.28,1
				c0.01,0.03,0.05,0.04,0.07,0.04c0.02-0.01,0.03-0.02,0.04-0.03s0.01-0.02,0.01-0.04l-0.28-1
				C11.52,472.61,11.5,472.59,11.47,472.59z"/>
		</g>
	</g>
	<g>
		<g>
			<path class="st0" d="M6.2,475.04c-0.05,0-0.09-0.04-0.09-0.09v-0.73c0-0.05,0.04-0.09,0.09-0.09c0.05,0,0.09,0.04,0.09,0.09v0.73
				C6.29,475,6.25,475.04,6.2,475.04z"/>
			<path class="st0" d="M6.2,475.16c-0.12,0-0.22-0.1-0.22-0.22v-0.73c0-0.12,0.1-0.22,0.22-0.22c0.12,0,0.22,0.1,0.22,0.22v0.73
				C6.42,475.07,6.32,475.16,6.2,475.16z"/>
		</g>
	</g>
	<g>
		<g>
			<path class="st0" d="M8.81,477.34H7.97c-0.05,0-0.09-0.04-0.09-0.09s0.04-0.09,0.09-0.09h0.84c0.05,0,0.09,0.04,0.09,0.09
				S8.86,477.34,8.81,477.34z"/>
			<path class="st0" d="M8.81,477.46H7.97c-0.12,0-0.22-0.1-0.22-0.22s0.1-0.22,0.22-0.22h0.84c0.12,0,0.22,0.1,0.22,0.22
				S8.93,477.46,8.81,477.46z"/>
		</g>
	</g>
	<g>
		<g>
			<path class="st0" d="M8.81,477.12H7.97c-0.05,0-0.09-0.04-0.09-0.09s0.04-0.09,0.09-0.09h0.84c0.05,0,0.09,0.04,0.09,0.09
				S8.86,477.12,8.81,477.12z"/>
			<path class="st0" d="M8.81,477.24H7.97c-0.12,0-0.22-0.1-0.22-0.22s0.1-0.22,0.22-0.22h0.84c0.12,0,0.22,0.1,0.22,0.22
				S8.93,477.24,8.81,477.24z"/>
		</g>
	</g>
	<g>
		<g>
			<path class="st0" d="M7.66,470.53c-0.02,0-0.05-0.01-0.06-0.03c-0.04-0.04-0.04-0.09,0-0.13l0.53-0.54l-0.53-0.54
				c-0.04-0.04-0.04-0.09,0-0.13c0.04-0.04,0.09-0.04,0.13,0l0.6,0.6c0.04,0.04,0.04,0.09,0,0.13l-0.6,0.6
				C7.71,470.52,7.69,470.53,7.66,470.53z"/>
			<path class="st0" d="M7.66,470.65c-0.06,0-0.11-0.02-0.15-0.06c-0.08-0.08-0.09-0.22,0-0.31l0.45-0.45l-0.45-0.45
				c-0.08-0.09-0.08-0.22,0-0.31c0.04-0.04,0.1-0.06,0.15-0.06c0,0,0,0,0,0c0.06,0,0.11,0.02,0.15,0.07l0.6,0.6
				c0.04,0.04,0.06,0.1,0.06,0.15c0,0.06-0.02,0.11-0.06,0.15l-0.6,0.6C7.78,470.63,7.72,470.65,7.66,470.65z M7.64,470.41
				C7.64,470.41,7.64,470.41,7.64,470.41L7.64,470.41z"/>
		</g>
	</g>
	<g>
		<g>
			<path class="st0" d="M5.78,469.61c-0.03,0-0.06-0.01-0.09-0.03c-0.09-0.05-0.12-0.16-0.06-0.25c0.67-1.12,2.13-1.49,3.26-0.82
				l0.78,0.78c0.07,0.07,0.07,0.19,0,0.26c-0.07,0.07-0.19,0.07-0.26,0l-0.75-0.75c-0.92-0.54-2.15-0.23-2.72,0.72
				C5.91,469.58,5.84,469.61,5.78,469.61z"/>
			<path class="st0" d="M9.54,469.74c-0.08,0-0.16-0.03-0.22-0.09l-0.74-0.74c-0.86-0.5-2.02-0.19-2.54,0.68
				c-0.08,0.14-0.29,0.19-0.43,0.1c-0.07-0.04-0.12-0.11-0.14-0.19s-0.01-0.16,0.03-0.23c0.34-0.57,0.89-0.98,1.54-1.14
				c0.65-0.16,1.32-0.06,1.9,0.28l0.81,0.8c0.12,0.12,0.12,0.32,0,0.44C9.7,469.71,9.62,469.74,9.54,469.74z M7.67,468.41
				c0.36,0,0.72,0.09,1.05,0.29l0.02,0.02l0.75,0.75c0.02,0.02,0.06,0.02,0.08,0c0.02-0.02,0.02-0.06,0-0.08l-0.78-0.78
				c-0.49-0.29-1.1-0.38-1.68-0.23c-0.58,0.15-1.08,0.51-1.38,1.02c-0.01,0.02-0.01,0.04-0.01,0.04c0,0.01,0.01,0.02,0.03,0.04
				l0.03,0.01c0.02,0,0.04-0.01,0.05-0.03C6.23,468.79,6.95,468.41,7.67,468.41z"/>
		</g>
	</g>
	<g>
		<g>
			<path class="st0" d="M3.85,472.84c-0.03,0-0.07-0.01-0.09-0.03c-0.09-0.05-0.12-0.16-0.06-0.25l1.94-3.22
				c0.05-0.09,0.17-0.12,0.25-0.06c0.09,0.05,0.12,0.16,0.06,0.25L4,472.75C3.97,472.81,3.91,472.84,3.85,472.84z"/>
			<path class="st0" d="M3.85,472.96c-0.06,0-0.11-0.02-0.16-0.04c-0.07-0.04-0.12-0.11-0.14-0.19s-0.01-0.16,0.03-0.23l1.94-3.22
				c0.04-0.07,0.11-0.12,0.19-0.14c0.08-0.02,0.16-0.01,0.23,0.04c0.15,0.09,0.19,0.28,0.11,0.42l-1.94,3.22
				C4.05,472.91,3.95,472.96,3.85,472.96z M5.78,469.37c-0.01,0-0.01,0-0.01,0c-0.01,0-0.03,0.01-0.04,0.03l-1.94,3.22
				c-0.01,0.02-0.01,0.04-0.01,0.04c0,0.01,0.01,0.02,0.03,0.04l0.03,0.01c0.02,0,0.04-0.01,0.05-0.03l1.94-3.22
				c0.02-0.03,0.01-0.06-0.02-0.08C5.8,469.37,5.79,469.37,5.78,469.37z"/>
		</g>
	</g>
	<g>
		<g>
			<path class="st0" d="M11.32,480.85c-0.1,0-0.18-0.08-0.18-0.18v-7.05c0-0.1,0.08-0.18,0.18-0.18c0.1,0,0.18,0.08,0.18,0.18v7.05
				C11.5,480.76,11.42,480.85,11.32,480.85z"/>
			<path class="st0" d="M11.32,480.97c-0.17,0-0.31-0.14-0.31-0.31v-7.05c0-0.17,0.14-0.31,0.31-0.31s0.31,0.14,0.31,0.31v7.05
				C11.62,480.83,11.49,480.97,11.32,480.97z M11.32,473.55c-0.03,0-0.06,0.03-0.06,0.06v7.05c0,0.06,0.12,0.06,0.12,0v-7.05
				C11.38,473.58,11.35,473.55,11.32,473.55z"/>
		</g>
	</g>
	<g>
		<g>
			<path class="st0" d="M11.75,480.81c-0.1,0-0.18-0.08-0.18-0.18v-6.97c0-0.1,0.08-0.18,0.18-0.18c0.1,0,0.18,0.08,0.18,0.18v6.97
				C11.94,480.73,11.85,480.81,11.75,480.81z"/>
			<path class="st0" d="M11.75,480.93c-0.17,0-0.31-0.14-0.31-0.31v-6.97c0-0.17,0.14-0.31,0.31-0.31s0.31,0.14,0.31,0.31v6.97
				C12.06,480.79,11.92,480.93,11.75,480.93z M11.75,473.59c-0.03,0-0.06,0.03-0.06,0.06v6.97c0,0.06,0.12,0.07,0.12,0v-6.97
				C11.81,473.62,11.78,473.59,11.75,473.59z"/>
		</g>
	</g>
	<g>
		<g>
			<path class="st0" d="M7.66,474.31H6.2c-0.05,0-0.09-0.04-0.09-0.09s0.04-0.09,0.09-0.09h1.46c0.05,0,0.09,0.04,0.09,0.09
				S7.71,474.31,7.66,474.31z"/>
			<path class="st0" d="M7.66,474.43H6.2c-0.12,0-0.22-0.1-0.22-0.22S6.08,474,6.2,474h1.46c0.12,0,0.22,0.1,0.22,0.22
				S7.78,474.43,7.66,474.43z"/>
		</g>
	</g>
	<g>
		<g>
			<path class="st0" d="M3.85,481.8c-0.08,0-0.15-0.05-0.18-0.13l-0.28-0.99c-0.03-0.1,0.03-0.2,0.13-0.23
				c0.1-0.03,0.2,0.03,0.23,0.13l0.28,0.99c0.03,0.1-0.03,0.2-0.13,0.23C3.88,481.8,3.86,481.8,3.85,481.8z"/>
			<path class="st0" d="M3.85,481.93c-0.14,0-0.26-0.09-0.3-0.23l-0.28-0.99c-0.02-0.08-0.01-0.16,0.03-0.23
				c0.04-0.07,0.11-0.12,0.19-0.15c0.17-0.05,0.33,0.05,0.38,0.21l0.28,0.99c0.04,0.16-0.05,0.33-0.21,0.38
				C3.9,481.92,3.87,481.93,3.85,481.93z M3.57,480.57c-0.01,0-0.01,0-0.02,0c-0.02,0.01-0.03,0.02-0.04,0.03s-0.01,0.02-0.01,0.04
				l0.28,0.99c0.01,0.03,0.04,0.04,0.08,0.04c0.03-0.01,0.05-0.04,0.04-0.07l-0.28-0.99C3.62,480.58,3.59,480.57,3.57,480.57z"/>
		</g>
	</g>
	<g>
		<g>
			<path class="st0" d="M11.47,481.8c-0.02,0-0.03,0-0.05-0.01c-0.1-0.03-0.15-0.13-0.13-0.23l0.28-0.99
				c0.03-0.1,0.13-0.15,0.23-0.13c0.1,0.03,0.15,0.13,0.13,0.23l-0.28,0.99C11.63,481.75,11.56,481.8,11.47,481.8z"/>
			<path class="st0" d="M11.47,481.93c-0.03,0-0.05,0-0.08-0.01c-0.17-0.05-0.26-0.22-0.22-0.38l0.28-0.99
				c0.05-0.16,0.22-0.26,0.38-0.21c0.08,0.02,0.15,0.08,0.19,0.15c0.04,0.07,0.05,0.16,0.03,0.23l-0.28,0.99
				C11.73,481.83,11.61,481.93,11.47,481.93z M11.75,480.57c-0.03,0-0.05,0.02-0.06,0.04l-0.28,0.99c-0.01,0.03,0.01,0.06,0.04,0.07
				l0.01,0c0.03,0,0.05-0.02,0.06-0.04l0.28-0.99c0.01-0.02,0-0.04,0-0.04s-0.02-0.02-0.04-0.03
				C11.76,480.57,11.76,480.57,11.75,480.57z"/>
		</g>
	</g>
	<g>
		<g>
			<path class="st0" d="M7.66,477.59c-0.03,0-0.05-0.01-0.07-0.03c-0.03-0.04-0.03-0.1,0.01-0.13l0.31-0.26
				c0.04-0.03,0.1-0.03,0.13,0.01c0.03,0.04,0.03,0.1-0.01,0.13l-0.31,0.26C7.7,477.59,7.68,477.59,7.66,477.59z"/>
			<path class="st0" d="M7.66,477.72c-0.06,0-0.13-0.03-0.17-0.08c-0.08-0.09-0.06-0.23,0.03-0.3l0.31-0.26
				c0.1-0.08,0.23-0.06,0.31,0.03c0.08,0.09,0.06,0.23-0.03,0.31l-0.31,0.26C7.76,477.7,7.71,477.72,7.66,477.72z"/>
		</g>
	</g>
	<g>
		<g>
			<path class="st0" d="M7.97,477.34c-0.05,0-0.09-0.04-0.09-0.09v-0.22c0-0.05,0.04-0.09,0.09-0.09c0.05,0,0.09,0.04,0.09,0.09
				v0.22C8.06,477.3,8.02,477.34,7.97,477.34z"/>
			<path class="st0" d="M7.97,477.46c-0.12,0-0.22-0.1-0.22-0.22v-0.22c0-0.12,0.1-0.22,0.22-0.22c0.12,0,0.22,0.1,0.22,0.22v0.22
				C8.19,477.36,8.09,477.46,7.97,477.46z"/>
		</g>
	</g>
	<g>
		<g>
			<path class="st0" d="M7.97,477.12c-0.02,0-0.04-0.01-0.06-0.02l-0.31-0.26c-0.04-0.03-0.04-0.09-0.01-0.13
				c0.03-0.04,0.09-0.04,0.13-0.01l0.31,0.26c0.04,0.03,0.04,0.09,0.01,0.13C8.02,477.11,8,477.12,7.97,477.12z"/>
			<path class="st0" d="M7.97,477.24c-0.05,0-0.1-0.02-0.14-0.05l-0.31-0.26c-0.09-0.08-0.1-0.21-0.03-0.3
				c0.08-0.09,0.21-0.1,0.31-0.03l0.31,0.25c0.09,0.08,0.1,0.21,0.03,0.3C8.09,477.22,8.03,477.24,7.97,477.24z"/>
		</g>
	</g>
	<g>
		<g>
			<path class="st0" d="M7.66,477.59c-0.05,0-0.09-0.04-0.09-0.09v-0.73c0-0.05,0.04-0.09,0.09-0.09c0.05,0,0.09,0.04,0.09,0.09
				v0.73C7.75,477.55,7.71,477.59,7.66,477.59z"/>
			<path class="st0" d="M7.66,477.72c-0.12,0-0.22-0.1-0.22-0.22v-0.73c0-0.12,0.1-0.22,0.22-0.22c0.12,0,0.22,0.1,0.22,0.22v0.73
				C7.88,477.62,7.78,477.72,7.66,477.72z"/>
		</g>
	</g>
	<g>
		<g>
			<path class="st0" d="M8.81,477.34c-0.05,0-0.09-0.04-0.09-0.09v-0.22c0-0.05,0.04-0.09,0.09-0.09s0.09,0.04,0.09,0.09v0.22
				C8.9,477.3,8.86,477.34,8.81,477.34z"/>
			<path class="st0" d="M8.81,477.46c-0.12,0-0.22-0.1-0.22-0.22v-0.22c0-0.12,0.1-0.22,0.22-0.22c0.12,0,0.22,0.1,0.22,0.22v0.22
				C9.03,477.36,8.93,477.46,8.81,477.46z"/>
		</g>
	</g>
	<g>
		<g>
			<path class="st0" d="M9.12,477.59c-0.02,0-0.04-0.01-0.06-0.02l-0.31-0.26c-0.04-0.03-0.04-0.09-0.01-0.13
				c0.03-0.04,0.09-0.04,0.13-0.01l0.31,0.26c0.04,0.03,0.04,0.09,0.01,0.13C9.17,477.58,9.15,477.59,9.12,477.59z"/>
			<path class="st0" d="M9.12,477.72c-0.05,0-0.1-0.02-0.14-0.05l-0.31-0.26c-0.09-0.08-0.11-0.21-0.03-0.3
				c0.07-0.09,0.21-0.11,0.31-0.03l0.31,0.26c0.04,0.04,0.07,0.09,0.08,0.15s-0.01,0.11-0.05,0.16
				C9.25,477.69,9.19,477.72,9.12,477.72z"/>
		</g>
	</g>
	<g>
		<g>
			<path class="st0" d="M8.81,477.12c-0.03,0-0.05-0.01-0.07-0.03c-0.03-0.04-0.03-0.1,0.01-0.13l0.31-0.26
				c0.04-0.03,0.1-0.03,0.13,0.01c0.03,0.04,0.03,0.1-0.01,0.13l-0.31,0.26C8.85,477.11,8.83,477.12,8.81,477.12z"/>
			<path class="st0" d="M8.81,477.24c-0.06,0-0.13-0.03-0.17-0.08c-0.04-0.04-0.05-0.1-0.05-0.16c0.01-0.06,0.03-0.11,0.08-0.15
				l0.31-0.25c0.04-0.04,0.1-0.05,0.16-0.05c0.06,0.01,0.11,0.03,0.15,0.08c0.04,0.04,0.05,0.1,0.05,0.16s-0.03,0.11-0.08,0.15
				l-0.31,0.25C8.91,477.23,8.86,477.24,8.81,477.24z"/>
		</g>
	</g>
	<g>
		<g>
			<path class="st0" d="M9.12,477.59c-0.05,0-0.09-0.04-0.09-0.09v-0.73c0-0.05,0.04-0.09,0.09-0.09c0.05,0,0.09,0.04,0.09,0.09
				v0.73C9.21,477.55,9.17,477.59,9.12,477.59z"/>
			<path class="st0" d="M9.12,477.72c-0.12,0-0.22-0.1-0.22-0.22v-0.73c0-0.12,0.1-0.22,0.22-0.22c0.12,0,0.22,0.1,0.22,0.22v0.73
				C9.34,477.62,9.24,477.72,9.12,477.72z"/>
		</g>
	</g>
	<g>
		<g>
			<path class="st0" d="M5.78,485.02c-0.06,0-0.12-0.03-0.16-0.09l-1.94-3.22c-0.05-0.09-0.02-0.2,0.06-0.25
				c0.08-0.05,0.2-0.02,0.25,0.06l1.94,3.22c0.05,0.09,0.02,0.2-0.06,0.25C5.85,485.02,5.81,485.02,5.78,485.02z"/>
			<path class="st0" d="M5.78,485.15c-0.11,0-0.21-0.06-0.26-0.15l-1.94-3.22c-0.09-0.15-0.04-0.34,0.1-0.42
				c0.07-0.04,0.15-0.06,0.23-0.04c0.08,0.02,0.15,0.07,0.19,0.14l1.94,3.22c0.04,0.07,0.05,0.15,0.03,0.23
				c-0.02,0.08-0.07,0.15-0.14,0.19C5.9,485.13,5.84,485.15,5.78,485.15z M3.84,481.56c-0.01,0-0.02,0-0.03,0.01
				c-0.03,0.02-0.04,0.05-0.02,0.08l1.94,3.22c0.02,0.03,0.06,0.04,0.08,0.02c0.02-0.01,0.03-0.03,0.03-0.04
				c0-0.01,0-0.03-0.01-0.04l-1.94-3.22c-0.01-0.02-0.03-0.03-0.04-0.03C3.86,481.56,3.85,481.56,3.84,481.56z"/>
		</g>
	</g>
	<g>
		<g>
			<path class="st0" d="M7.66,476.86H7.3c-0.05,0-0.09-0.04-0.09-0.09s0.04-0.09,0.09-0.09h0.37c0.05,0,0.09,0.04,0.09,0.09
				S7.71,476.86,7.66,476.86z"/>
			<path class="st0" d="M7.66,476.99H7.3c-0.12,0-0.22-0.1-0.22-0.22s0.1-0.22,0.22-0.22h0.37c0.12,0,0.22,0.1,0.22,0.22
				S7.78,476.99,7.66,476.99z"/>
		</g>
	</g>
	<g>
		<g>
			<path class="st0" d="M9.12,476.86H7.66c-0.05,0-0.09-0.04-0.09-0.09s0.04-0.09,0.09-0.09h1.46c0.05,0,0.09,0.04,0.09,0.09
				S9.17,476.86,9.12,476.86z"/>
			<path class="st0" d="M9.12,476.99H7.66c-0.12,0-0.22-0.1-0.22-0.22s0.1-0.22,0.22-0.22h1.46c0.12,0,0.22,0.1,0.22,0.22
				S9.24,476.99,9.12,476.99z"/>
		</g>
	</g>
	<g>
		<g>
			<path class="st0" d="M10.04,476.86H9.96c-0.05,0-0.09-0.04-0.09-0.09s0.04-0.09,0.09-0.09h0.07c0.05,0,0.09,0.04,0.09,0.09
				S10.09,476.86,10.04,476.86z"/>
			<path class="st0" d="M10.04,476.99H9.96c-0.12,0-0.22-0.1-0.22-0.22s0.1-0.22,0.22-0.22h0.07c0.12,0,0.22,0.1,0.22,0.22
				S10.15,476.99,10.04,476.99z"/>
		</g>
	</g>
	<g>
		<g>
			<path class="st0" d="M9.82,482.35H5.5c-0.1,0-0.18-0.08-0.18-0.18s0.08-0.18,0.18-0.18h4.31c0.1,0,0.18,0.08,0.18,0.18
				S9.92,482.35,9.82,482.35z"/>
			<path class="st0" d="M9.82,482.47H5.5c-0.17,0-0.31-0.14-0.31-0.31s0.14-0.31,0.31-0.31h4.31c0.17,0,0.31,0.14,0.31,0.31
				S9.99,482.47,9.82,482.47z M5.5,482.1c-0.03,0-0.06,0.03-0.06,0.06s0.03,0.06,0.06,0.06h4.31c0.03,0,0.06-0.03,0.06-0.06
				s-0.03-0.06-0.06-0.06H5.5z"/>
		</g>
	</g>
	<g>
		<g>
			<path class="st0" d="M9.96,476.86H9.12c-0.05,0-0.09-0.04-0.09-0.09s0.04-0.09,0.09-0.09h0.84c0.05,0,0.09,0.04,0.09,0.09
				S10.01,476.86,9.96,476.86z"/>
			<path class="st0" d="M9.96,476.99H9.12c-0.12,0-0.22-0.1-0.22-0.22s0.1-0.22,0.22-0.22h0.84c0.12,0,0.22,0.1,0.22,0.22
				S10.08,476.99,9.96,476.99z"/>
		</g>
	</g>
	<g>
		<g>
			<path class="st0" d="M9.96,477.59H9.12c-0.05,0-0.09-0.04-0.09-0.09c0-0.05,0.04-0.09,0.09-0.09h0.84c0.05,0,0.09,0.04,0.09,0.09
				C10.05,477.55,10.01,477.59,9.96,477.59z"/>
			<path class="st0" d="M9.96,477.72H9.12c-0.12,0-0.22-0.1-0.22-0.22s0.1-0.22,0.22-0.22h0.84c0.12,0,0.22,0.1,0.22,0.22
				S10.08,477.72,9.96,477.72z"/>
		</g>
	</g>
	<g>
		<g>
			<path class="st0" d="M7.66,470.96c-0.63,0-1.14-0.51-1.14-1.13s0.51-1.13,1.14-1.13c0.05,0,0.09,0.04,0.09,0.09
				s-0.04,0.09-0.09,0.09c-0.53,0-0.95,0.43-0.95,0.95s0.43,0.95,0.95,0.95c0.05,0,0.09,0.04,0.09,0.09S7.71,470.96,7.66,470.96z"/>
			<path class="st0" d="M7.66,471.09c-0.7,0-1.26-0.56-1.26-1.26c0-0.69,0.57-1.26,1.26-1.26c0.12,0,0.22,0.1,0.22,0.22
				s-0.1,0.22-0.22,0.22c-0.46,0-0.83,0.37-0.83,0.82s0.37,0.82,0.83,0.82c0.12,0,0.22,0.1,0.22,0.22S7.78,471.09,7.66,471.09z"/>
		</g>
	</g>
	<g>
		<g>
			<path class="st0" d="M7.66,470.96c-0.05,0-0.09-0.04-0.09-0.09s0.04-0.09,0.09-0.09c0.52,0,0.95-0.43,0.95-0.95
				s-0.43-0.95-0.95-0.95c-0.05,0-0.09-0.04-0.09-0.09s0.04-0.09,0.09-0.09c0.62,0,1.13,0.51,1.13,1.13S8.29,470.96,7.66,470.96z"/>
			<path class="st0" d="M7.66,471.09c-0.12,0-0.22-0.1-0.22-0.22s0.1-0.22,0.22-0.22c0.45,0,0.82-0.37,0.82-0.82
				s-0.37-0.82-0.82-0.82c-0.12,0-0.22-0.1-0.22-0.22s0.1-0.22,0.22-0.22c0.69,0,1.26,0.56,1.26,1.26
				C8.92,470.52,8.36,471.09,7.66,471.09z"/>
		</g>
	</g>
	<g>
		<g>
			<path class="st0" d="M7.66,485.58c-0.63,0-1.14-0.51-1.14-1.13c0-0.63,0.51-1.14,1.14-1.14c0.05,0,0.09,0.04,0.09,0.09
				s-0.04,0.09-0.09,0.09c-0.53,0-0.95,0.43-0.95,0.95c0,0.52,0.43,0.95,0.95,0.95c0.05,0,0.09,0.04,0.09,0.09
				C7.75,485.54,7.71,485.58,7.66,485.58z"/>
			<path class="st0" d="M7.66,485.7c-0.7,0-1.26-0.56-1.26-1.26c0-0.7,0.57-1.26,1.26-1.26c0.12,0,0.22,0.1,0.22,0.22
				s-0.1,0.22-0.22,0.22c-0.46,0-0.83,0.37-0.83,0.83c0,0.45,0.37,0.82,0.83,0.82c0.12,0,0.22,0.1,0.22,0.22S7.78,485.7,7.66,485.7z
				"/>
		</g>
	</g>
	<g>
		<g>
			<path class="st0" d="M7.66,485.58c-0.05,0-0.09-0.04-0.09-0.09c0-0.05,0.04-0.09,0.09-0.09c0.52,0,0.95-0.43,0.95-0.95
				c0-0.53-0.43-0.95-0.95-0.95c-0.05,0-0.09-0.04-0.09-0.09s0.04-0.09,0.09-0.09c0.62,0,1.13,0.51,1.13,1.14
				C8.79,485.07,8.29,485.58,7.66,485.58z"/>
			<path class="st0" d="M7.66,485.7c-0.12,0-0.22-0.1-0.22-0.22s0.1-0.22,0.22-0.22c0.45,0,0.82-0.37,0.82-0.82
				c0-0.46-0.37-0.83-0.82-0.83c-0.12,0-0.22-0.1-0.22-0.22s0.1-0.22,0.22-0.22c0.69,0,1.26,0.57,1.26,1.26
				C8.92,485.14,8.36,485.7,7.66,485.7z"/>
		</g>
	</g>
	<g>
		<g>
			<path class="st0" d="M9.82,482.35c-0.1,0-0.18-0.08-0.18-0.18s0.08-0.18,0.18-0.18c0.73,0,1.32-0.59,1.32-1.32
				c0-0.1,0.08-0.18,0.18-0.18c0.1,0,0.18,0.08,0.18,0.18C11.5,481.59,10.75,482.35,9.82,482.35z"/>
			<path class="st0" d="M9.82,482.47c-0.17,0-0.31-0.14-0.31-0.31s0.14-0.31,0.31-0.31c0.66,0,1.19-0.53,1.19-1.19
				c0-0.17,0.14-0.31,0.31-0.31s0.31,0.14,0.31,0.31C11.62,481.66,10.81,482.47,9.82,482.47z M11.32,480.6
				c-0.03,0-0.06,0.03-0.06,0.06c0,0.79-0.65,1.44-1.44,1.44c-0.03,0-0.06,0.03-0.06,0.06s0.03,0.06,0.06,0.06
				c0.86,0,1.56-0.7,1.56-1.56C11.38,480.63,11.35,480.6,11.32,480.6z"/>
		</g>
	</g>
	<g>
		<g>
			<path class="st0" d="M7.35,474.78c-0.05,0-0.09-0.04-0.09-0.09v-0.22c0-0.05,0.04-0.09,0.09-0.09c0.05,0,0.09,0.04,0.09,0.09
				v0.22C7.44,474.74,7.4,474.78,7.35,474.78z"/>
			<path class="st0" d="M7.35,474.9c-0.12,0-0.22-0.1-0.22-0.22v-0.22c0-0.12,0.1-0.22,0.22-0.22s0.22,0.1,0.22,0.22v0.22
				C7.57,474.81,7.47,474.9,7.35,474.9z"/>
		</g>
	</g>
	<g>
		<g>
			<path class="st0" d="M7.66,475.04c-0.02,0-0.04-0.01-0.06-0.02l-0.31-0.26c-0.04-0.03-0.04-0.09-0.01-0.13
				c0.03-0.04,0.09-0.04,0.13-0.01l0.31,0.26c0.04,0.03,0.04,0.09,0.01,0.13C7.71,475.03,7.69,475.04,7.66,475.04z"/>
			<path class="st0" d="M7.66,475.16c-0.05,0-0.1-0.02-0.14-0.05l-0.31-0.26c-0.04-0.04-0.07-0.09-0.08-0.15
				c-0.01-0.06,0.01-0.11,0.05-0.16c0.04-0.04,0.09-0.07,0.15-0.08c0.06-0.01,0.12,0.01,0.16,0.05l0.31,0.26
				c0.04,0.04,0.07,0.09,0.08,0.15c0.01,0.06-0.01,0.11-0.05,0.16C7.79,475.13,7.73,475.16,7.66,475.16z M7.33,474.71L7.33,474.71
				L7.33,474.71L7.33,474.71z"/>
		</g>
	</g>
	<g>
		<g>
			<path class="st0" d="M7.66,475.04c-0.05,0-0.09-0.04-0.09-0.09v-0.73c0-0.05,0.04-0.09,0.09-0.09c0.05,0,0.09,0.04,0.09,0.09
				v0.73C7.75,475,7.71,475.04,7.66,475.04z"/>
			<path class="st0" d="M7.66,475.16c-0.12,0-0.22-0.1-0.22-0.22v-0.73c0-0.12,0.1-0.22,0.22-0.22c0.12,0,0.22,0.1,0.22,0.22v0.73
				C7.88,475.07,7.78,475.16,7.66,475.16z"/>
		</g>
	</g>
	<g>
		<g>
			<path class="st0" d="M7.35,474.56c-0.03,0-0.05-0.01-0.07-0.03c-0.03-0.04-0.03-0.1,0.01-0.13l0.31-0.26
				c0.04-0.03,0.1-0.03,0.13,0.01c0.03,0.04,0.03,0.1-0.01,0.13l-0.31,0.26C7.39,474.55,7.37,474.56,7.35,474.56z"/>
			<path class="st0" d="M7.35,474.69c-0.06,0-0.12-0.03-0.17-0.08c-0.08-0.1-0.06-0.23,0.03-0.31l0.31-0.26
				c0.09-0.08,0.23-0.06,0.3,0.03c0.04,0.05,0.06,0.1,0.05,0.16c-0.01,0.06-0.03,0.11-0.08,0.15l-0.31,0.26
				C7.45,474.67,7.4,474.69,7.35,474.69z"/>
		</g>
	</g>
	<g>
		<g>
			<path class="st0" d="M62.4,36.64c-0.03,0-0.06-0.02-0.08-0.05c-0.02-0.04-0.01-0.1,0.04-0.12l0.46-0.24
				c0.04-0.02,0.1-0.01,0.12,0.04c0.02,0.04,0.01,0.1-0.04,0.12l-0.46,0.24C62.43,36.63,62.41,36.64,62.4,36.64z"/>
			<path class="st0" d="M62.4,36.76c-0.08,0-0.15-0.04-0.19-0.12c-0.03-0.05-0.03-0.11-0.02-0.17c0.02-0.06,0.05-0.1,0.11-0.13
				l0.46-0.24c0.05-0.03,0.1-0.03,0.16-0.02c0.06,0.02,0.1,0.06,0.13,0.11c0.03,0.05,0.03,0.11,0.02,0.17
				c-0.02,0.06-0.06,0.1-0.11,0.13l-0.45,0.24C62.47,36.75,62.43,36.76,62.4,36.76z M62.41,36.58L62.41,36.58L62.41,36.58z"/>
		</g>
	</g>
	<g>
		<g>
			<path class="st0" d="M63.48,34.29c-0.03,0-0.06-0.02-0.08-0.05l-0.24-0.46c-0.02-0.04-0.01-0.1,0.04-0.12
				c0.05-0.02,0.1-0.01,0.12,0.04l0.24,0.46c0.02,0.04,0.01,0.1-0.04,0.12C63.51,34.29,63.5,34.29,63.48,34.29z"/>
			<path class="st0" d="M63.48,34.42c-0.08,0-0.15-0.04-0.19-0.12l-0.24-0.46c-0.03-0.05-0.03-0.11-0.02-0.17
				c0.02-0.06,0.06-0.1,0.11-0.13c0.1-0.05,0.23-0.02,0.29,0.09l0.24,0.46c0.03,0.05,0.03,0.11,0.02,0.17
				c-0.02,0.06-0.05,0.1-0.11,0.13C63.56,34.41,63.52,34.42,63.48,34.42z"/>
		</g>
	</g>
	<g>
		<g>
			<path class="st0" d="M62.85,36.4c-0.01,0-0.02,0-0.03,0c-0.05-0.01-0.08-0.07-0.06-0.11l0.63-2.1c0.02-0.05,0.07-0.07,0.11-0.06
				c0.05,0.01,0.08,0.07,0.06,0.11l-0.63,2.1C62.93,36.37,62.89,36.4,62.85,36.4z"/>
			<path class="st0" d="M62.85,36.52l-0.06-0.01c-0.12-0.04-0.18-0.16-0.15-0.27l0.63-2.1c0.04-0.11,0.15-0.18,0.27-0.15
				c0.12,0.04,0.18,0.16,0.15,0.27l-0.63,2.1C63.03,36.46,62.95,36.52,62.85,36.52z"/>
		</g>
	</g>
	<g>
		<g>
			<path class="st0" d="M0.35,52.19H0.31c-0.1,0-0.18-0.08-0.18-0.18c0-0.1,0.08-0.18,0.18-0.18h0.05c0.1,0,0.18,0.08,0.18,0.18
				C0.54,52.11,0.46,52.19,0.35,52.19z"/>
			<path class="st0" d="M0.35,52.32H0.31C0.14,52.32,0,52.18,0,52.01s0.14-0.31,0.31-0.31h0.05c0.17,0,0.31,0.14,0.31,0.31
				S0.52,52.32,0.35,52.32z M0.31,51.95c-0.03,0-0.06,0.03-0.06,0.06s0.03,0.06,0.06,0.06h0.05c0.03,0,0.06-0.03,0.06-0.06
				s-0.03-0.06-0.06-0.06H0.31z"/>
		</g>
	</g>
	<g>
		<g>
			<path class="st0" d="M65.39,26.8H20.45c-0.1,0-0.18-0.08-0.18-0.18c0-0.1,0.08-0.18,0.18-0.18h44.94c0.1,0,0.18,0.08,0.18,0.18
				C65.58,26.72,65.49,26.8,65.39,26.8z"/>
			<path class="st0" d="M65.39,26.93H20.45c-0.17,0-0.31-0.14-0.31-0.31s0.14-0.31,0.31-0.31h44.94c0.17,0,0.31,0.14,0.31,0.31
				S65.56,26.93,65.39,26.93z M20.45,26.56c-0.03,0-0.06,0.03-0.06,0.06s0.03,0.06,0.06,0.06h44.94c0.03,0,0.06-0.03,0.06-0.06
				s-0.03-0.06-0.06-0.06H20.45z"/>
		</g>
	</g>
	<g>
		<g>
			<path class="st0" d="M11.77,473.7c-0.1,0-0.18-0.08-0.18-0.18c0-0.48-0.2-0.95-0.56-1.27c-0.08-0.07-0.08-0.18-0.01-0.26
				c0.07-0.08,0.18-0.08,0.26-0.01c0.43,0.39,0.68,0.95,0.68,1.54C11.96,473.62,11.87,473.7,11.77,473.7z"/>
			<path class="st0" d="M11.77,473.83c-0.17,0-0.31-0.14-0.31-0.31c0-0.45-0.19-0.88-0.52-1.17c-0.06-0.06-0.1-0.13-0.1-0.21
				c0-0.08,0.02-0.16,0.08-0.22c0.11-0.12,0.31-0.14,0.43-0.02c0.46,0.42,0.72,1.01,0.72,1.63
				C12.08,473.69,11.94,473.83,11.77,473.83z M11.15,472.06c-0.02,0-0.03,0.01-0.04,0.02c-0.02,0.03-0.02,0.06,0,0.08
				c0.38,0.35,0.6,0.84,0.6,1.36c0,0.06,0.12,0.06,0.12,0c0-0.55-0.23-1.08-0.64-1.45C11.18,472.07,11.17,472.06,11.15,472.06z"/>
		</g>
	</g>
	<g>
		<g>
			<path class="st0" d="M11.77,480.94c-0.1,0-0.18-0.08-0.18-0.18v-7.23c0-0.1,0.08-0.18,0.18-0.18c0.1,0,0.18,0.08,0.18,0.18v7.23
				C11.96,480.86,11.87,480.94,11.77,480.94z"/>
			<path class="st0" d="M11.77,481.06c-0.17,0-0.31-0.14-0.31-0.31v-7.23c0-0.17,0.14-0.31,0.31-0.31s0.31,0.14,0.31,0.31v7.23
				C12.08,480.92,11.94,481.06,11.77,481.06z M11.77,473.46c-0.03,0-0.06,0.03-0.06,0.06v7.23c0,0.06,0.12,0.06,0.12,0v-7.23
				C11.83,473.49,11.8,473.46,11.77,473.46z"/>
		</g>
	</g>
	<g>
		<g>
			<path class="st0" d="M11.15,482.34c-0.05,0-0.1-0.02-0.14-0.06c-0.07-0.07-0.06-0.19,0.01-0.26c0.35-0.33,0.56-0.79,0.56-1.27
				c0-0.1,0.08-0.18,0.18-0.18c0.1,0,0.18,0.08,0.18,0.18c0,0.58-0.25,1.14-0.68,1.54C11.24,482.32,11.2,482.34,11.15,482.34z"/>
			<path class="st0" d="M11.15,482.47c-0.09,0-0.17-0.04-0.23-0.1c-0.11-0.12-0.1-0.32,0.02-0.44c0.33-0.3,0.52-0.73,0.52-1.17
				c0-0.17,0.14-0.31,0.31-0.31s0.31,0.14,0.31,0.31c0,0.62-0.26,1.21-0.72,1.63C11.31,482.44,11.23,482.47,11.15,482.47z
				 M11.77,480.7c-0.03,0-0.06,0.03-0.06,0.06c0,0.51-0.22,1.01-0.6,1.36c-0.02,0.02-0.03,0.06,0,0.08c0.04,0.04,0.06,0.02,0.08,0
				c0.4-0.37,0.64-0.9,0.64-1.45C11.83,480.72,11.8,480.7,11.77,480.7z"/>
		</g>
	</g>
	<g>
		<g>
			<path class="st0" d="M4.17,482.34c-0.04,0-0.09-0.02-0.12-0.05c-0.43-0.39-0.68-0.96-0.68-1.54c0-0.1,0.08-0.18,0.18-0.18
				s0.18,0.08,0.18,0.18c0,0.48,0.2,0.94,0.56,1.27c0.07,0.07,0.08,0.18,0.01,0.26C4.27,482.32,4.22,482.34,4.17,482.34z"/>
			<path class="st0" d="M4.17,482.47c-0.08,0-0.15-0.03-0.21-0.08c-0.46-0.42-0.72-1.01-0.72-1.63c0-0.17,0.14-0.31,0.31-0.31
				s0.31,0.14,0.31,0.31c0,0.45,0.19,0.87,0.52,1.17c0.12,0.12,0.13,0.31,0.02,0.44C4.34,482.43,4.25,482.47,4.17,482.47z
				 M3.55,480.7c-0.03,0-0.06,0.03-0.06,0.06c0,0.55,0.23,1.08,0.64,1.45c0.02,0.02,0.05,0.04,0.08,0c0.02-0.02,0.02-0.06,0-0.08
				c-0.38-0.35-0.6-0.84-0.6-1.36C3.61,480.72,3.58,480.7,3.55,480.7z"/>
		</g>
	</g>
	<g>
		<g>
			<path class="st0" d="M3.55,480.94c-0.1,0-0.18-0.08-0.18-0.18v-7.23c0-0.1,0.08-0.18,0.18-0.18s0.18,0.08,0.18,0.18v7.23
				C3.73,480.86,3.65,480.94,3.55,480.94z"/>
			<path class="st0" d="M3.55,481.06c-0.17,0-0.31-0.14-0.31-0.31v-7.23c0-0.17,0.14-0.31,0.31-0.31s0.31,0.14,0.31,0.31v7.23
				C3.86,480.92,3.72,481.06,3.55,481.06z M3.55,473.46c-0.03,0-0.06,0.03-0.06,0.06v7.23c0,0.06,0.12,0.06,0.12,0v-7.23
				C3.61,473.49,3.58,473.46,3.55,473.46z"/>
		</g>
	</g>
	<g>
		<g>
			<path class="st0" d="M3.55,473.7c-0.1,0-0.18-0.08-0.18-0.18c0-0.59,0.25-1.15,0.68-1.54c0.08-0.07,0.19-0.06,0.26,0.01
				c0.07,0.08,0.06,0.19-0.01,0.26c-0.35,0.32-0.56,0.78-0.56,1.27C3.73,473.62,3.65,473.7,3.55,473.7z"/>
			<path class="st0" d="M3.55,473.83c-0.17,0-0.31-0.14-0.31-0.31c0-0.62,0.26-1.22,0.72-1.63c0.13-0.11,0.32-0.1,0.44,0.02
				c0.06,0.06,0.08,0.14,0.08,0.22c0,0.08-0.04,0.16-0.1,0.21c-0.33,0.3-0.52,0.73-0.52,1.17C3.86,473.69,3.72,473.83,3.55,473.83z
				 M4.17,472.06c-0.01,0-0.03,0-0.04,0.02c-0.4,0.37-0.63,0.89-0.63,1.44c0,0.06,0.12,0.06,0.12,0c0-0.52,0.22-1.01,0.6-1.36
				c0.02-0.01,0.02-0.03,0.02-0.04s0-0.03-0.02-0.04C4.2,472.07,4.18,472.06,4.17,472.06z"/>
		</g>
	</g>
	<g>
		<g>
			<path class="st0" d="M7.66,484.9c-0.02,0-0.05-0.01-0.06-0.03l-0.37-0.36c-0.02-0.02-0.03-0.04-0.03-0.07
				c0-0.02,0.01-0.05,0.03-0.07l0.37-0.37c0.02-0.02,0.04-0.03,0.07-0.03l0,0c0.02,0,0.05,0.01,0.07,0.03l0.36,0.37
				c0.04,0.04,0.04,0.09,0,0.13l-0.36,0.36C7.71,484.89,7.69,484.9,7.66,484.9z M7.43,484.45l0.24,0.23l0.23-0.23l-0.23-0.24
				L7.43,484.45z"/>
			<path class="st0" d="M7.66,485.02c-0.06,0-0.11-0.02-0.15-0.06l-0.37-0.36c-0.04-0.04-0.06-0.1-0.06-0.15
				c0-0.06,0.02-0.11,0.06-0.15l0.37-0.37c0.09-0.08,0.22-0.08,0.31,0l0.36,0.37c0.08,0.09,0.08,0.22,0,0.31l-0.36,0.36
				C7.77,485,7.72,485.02,7.66,485.02z M7.6,484.45l0.06,0.06l0.06-0.06l-0.06-0.06L7.6,484.45z"/>
		</g>
	</g>
	<g>
		<g>
			<path class="st0" d="M7.66,470.28c-0.02,0-0.05-0.01-0.06-0.03l-0.37-0.36c-0.02-0.02-0.03-0.04-0.03-0.07
				c0-0.02,0.01-0.05,0.03-0.07l0.37-0.37c0.02-0.02,0.04-0.03,0.07-0.03l0,0c0.02,0,0.05,0.01,0.07,0.03l0.36,0.37
				c0.04,0.04,0.04,0.09,0,0.13l-0.36,0.36C7.71,470.28,7.69,470.28,7.66,470.28z M7.43,469.83l0.24,0.23l0.23-0.23l-0.23-0.24
				L7.43,469.83z"/>
			<path class="st0" d="M7.66,470.41c-0.06,0-0.11-0.02-0.15-0.06l-0.37-0.36c-0.04-0.04-0.06-0.1-0.06-0.15
				c0-0.06,0.02-0.11,0.06-0.15l0.37-0.37c0.09-0.09,0.23-0.08,0.31,0l0.36,0.37c0.08,0.09,0.08,0.22,0,0.3l-0.36,0.36
				C7.77,470.39,7.72,470.41,7.66,470.41z M7.6,469.83l0.06,0.06l0.06-0.06l-0.06-0.06L7.6,469.83z"/>
		</g>
	</g>
	<g>
		<g>
			<path class="st0" d="M14.97,553.23c-2.07,0-3.75-1.68-3.75-3.75c0-2.07,1.68-3.75,3.75-3.75c2.07,0,3.75,1.68,3.75,3.75
				C18.72,551.55,17.04,553.23,14.97,553.23z M14.97,545.92c-1.96,0-3.56,1.6-3.56,3.56c0,1.96,1.6,3.56,3.56,3.56
				c1.96,0,3.56-1.6,3.56-3.56C18.53,547.52,16.93,545.92,14.97,545.92z"/>
			<path class="st0" d="M14.97,553.36c-2.13,0-3.87-1.74-3.87-3.87c0-2.13,1.74-3.87,3.87-3.87c2.13,0,3.87,1.74,3.87,3.87
				C18.84,551.62,17.1,553.36,14.97,553.36z M14.97,546.05c-1.9,0-3.44,1.54-3.44,3.44c0,1.9,1.54,3.44,3.44,3.44
				c1.9,0,3.44-1.54,3.44-3.44C18.41,547.59,16.87,546.05,14.97,546.05z"/>
		</g>
	</g>
	<g>
		<g>
			<path class="st0" d="M14.97,564.55c-2.07,0-3.75-1.68-3.75-3.75s1.68-3.75,3.75-3.75c2.07,0,3.75,1.68,3.75,3.75
				S17.04,564.55,14.97,564.55z M14.97,557.25c-1.96,0-3.56,1.6-3.56,3.56s1.6,3.56,3.56,3.56c1.96,0,3.56-1.6,3.56-3.56
				S16.93,557.25,14.97,557.25z"/>
			<path class="st0" d="M14.97,564.68c-2.13,0-3.87-1.74-3.87-3.87s1.74-3.87,3.87-3.87c2.13,0,3.87,1.74,3.87,3.87
				S17.1,564.68,14.97,564.68z M14.97,557.37c-1.9,0-3.44,1.54-3.44,3.44s1.54,3.44,3.44,3.44c1.9,0,3.44-1.54,3.44-3.44
				S16.87,557.37,14.97,557.37z"/>
		</g>
	</g>
	<g>
		<g>
			<path class="st0" d="M3.69,472.74c-0.03,0-0.07-0.01-0.09-0.03c-0.09-0.05-0.12-0.16-0.06-0.25l1.94-3.22
				c0.05-0.09,0.17-0.11,0.25-0.06c0.09,0.05,0.12,0.16,0.06,0.25l-1.94,3.22C3.81,472.71,3.75,472.74,3.69,472.74z"/>
			<path class="st0" d="M3.69,472.87c-0.06,0-0.11-0.02-0.16-0.04c-0.15-0.09-0.19-0.28-0.11-0.42l1.94-3.22
				c0.04-0.07,0.11-0.12,0.19-0.14c0.08-0.02,0.16-0.01,0.23,0.04c0.15,0.09,0.19,0.28,0.1,0.42l-1.94,3.22
				C3.9,472.81,3.8,472.87,3.69,472.87z M5.63,469.28c-0.01,0-0.01,0-0.01,0c-0.01,0-0.03,0.01-0.04,0.03l-1.94,3.22
				c-0.02,0.03-0.01,0.06,0.02,0.08l0.03,0.01c0.02,0,0.04-0.01,0.05-0.03l1.94-3.22c0.02-0.03,0.01-0.06-0.02-0.08
				C5.64,469.28,5.63,469.28,5.63,469.28z"/>
		</g>
	</g>
	<g>
		<g>
			<path class="st0" d="M5.62,469.52c-0.03,0-0.07-0.01-0.09-0.03c-0.09-0.05-0.11-0.17-0.06-0.25c0.35-0.59,0.91-1,1.58-1.16
				c0.66-0.17,1.35-0.06,1.94,0.29l0.85,0.84c0.07,0.07,0.07,0.19,0,0.26c-0.07,0.07-0.19,0.07-0.26,0l-0.81-0.81
				c-1-0.6-2.35-0.26-2.97,0.78C5.75,469.49,5.69,469.52,5.62,469.52z"/>
			<path class="st0" d="M9.7,469.65c-0.08,0-0.16-0.03-0.22-0.09l-0.81-0.81c-0.93-0.55-2.19-0.22-2.78,0.75
				c-0.09,0.14-0.28,0.19-0.42,0.11c-0.15-0.09-0.19-0.28-0.11-0.42c0.37-0.62,0.96-1.05,1.65-1.22c0.7-0.17,1.42-0.07,2.03,0.3
				l0.87,0.86c0.06,0.06,0.09,0.14,0.09,0.22c0,0.08-0.03,0.16-0.09,0.22C9.86,469.61,9.78,469.65,9.7,469.65z M7.67,468.23
				c0.39,0,0.79,0.1,1.15,0.32l0.84,0.83c0.03,0.03,0.05,0.03,0.08,0c0.02-0.02,0.02-0.06,0-0.08l-0.85-0.84
				c-0.53-0.32-1.19-0.41-1.82-0.26c-0.63,0.16-1.16,0.55-1.5,1.11c-0.02,0.03-0.01,0.06,0.02,0.08c0.03,0.02,0.06,0.01,0.08-0.02
				C6.11,468.64,6.89,468.23,7.67,468.23z"/>
		</g>
	</g>
	<g>
		<g>
			<path class="st0" d="M11.63,472.74c-0.06,0-0.12-0.03-0.16-0.09l-1.94-3.22c-0.05-0.09-0.02-0.2,0.06-0.25
				c0.08-0.05,0.2-0.02,0.25,0.06l1.94,3.22c0.05,0.09,0.02,0.2-0.06,0.25C11.7,472.74,11.66,472.74,11.63,472.74z"/>
			<path class="st0" d="M11.63,472.87c-0.11,0-0.21-0.06-0.26-0.15l-1.94-3.22c-0.09-0.15-0.04-0.34,0.1-0.42
				c0.07-0.04,0.15-0.06,0.23-0.04c0.08,0.02,0.15,0.07,0.19,0.14l1.94,3.22c0.09,0.15,0.04,0.34-0.1,0.42
				C11.74,472.85,11.69,472.87,11.63,472.87z M9.69,469.28c-0.01,0-0.02,0-0.03,0.01c-0.03,0.02-0.04,0.05-0.02,0.08l1.94,3.22
				c0.02,0.04,0.06,0.04,0.08,0.02c0.03-0.02,0.04-0.05,0.02-0.08l-1.94-3.22c-0.01-0.02-0.03-0.03-0.04-0.03
				C9.71,469.28,9.7,469.28,9.69,469.28z"/>
		</g>
	</g>
	<g>
		<g>
			<path class="st0" d="M11.93,473.83c-0.08,0-0.15-0.05-0.18-0.13l-0.3-1.09c-0.03-0.1,0.03-0.2,0.13-0.23
				c0.09-0.03,0.2,0.03,0.23,0.13l0.3,1.09c0.03,0.1-0.03,0.2-0.13,0.23C11.97,473.83,11.95,473.83,11.93,473.83z"/>
			<path class="st0" d="M11.93,473.96c-0.14,0-0.26-0.09-0.3-0.23l-0.3-1.09c-0.02-0.08-0.01-0.16,0.03-0.23
				c0.04-0.07,0.11-0.12,0.19-0.15c0.07-0.02,0.16-0.01,0.23,0.03c0.07,0.04,0.13,0.11,0.15,0.19l0.3,1.09
				c0.02,0.08,0.01,0.16-0.03,0.23c-0.04,0.07-0.11,0.12-0.19,0.15C11.99,473.96,11.96,473.96,11.93,473.96z M11.63,472.5
				c0,0-0.01,0-0.01,0c-0.02,0.01-0.03,0.02-0.04,0.03c-0.01,0.01-0.01,0.02,0,0.04l0.3,1.09c0.01,0.03,0.06,0.04,0.07,0.04
				c0.02-0.01,0.04-0.02,0.04-0.03s0.01-0.02,0.01-0.04l-0.3-1.09c0-0.02-0.02-0.03-0.03-0.04C11.65,472.5,11.64,472.5,11.63,472.5z
				"/>
		</g>
	</g>
	<g>
		<g>
			<path class="st0" d="M11.93,480.81c-0.1,0-0.18-0.08-0.18-0.18v-6.97c0-0.1,0.08-0.18,0.18-0.18c0.1,0,0.18,0.08,0.18,0.18v6.97
				C12.12,480.73,12.04,480.81,11.93,480.81z"/>
			<path class="st0" d="M11.93,480.93c-0.17,0-0.31-0.14-0.31-0.31v-6.97c0-0.17,0.14-0.31,0.31-0.31s0.31,0.14,0.31,0.31v6.97
				C12.24,480.79,12.1,480.93,11.93,480.93z M11.93,473.59c-0.03,0-0.06,0.03-0.06,0.06v6.97c0,0.07,0.12,0.06,0.12,0v-6.97
				C11.99,473.62,11.97,473.59,11.93,473.59z"/>
		</g>
	</g>
	<g>
		<g>
			<path class="st0" d="M11.63,481.9c-0.02,0-0.03,0-0.05-0.01c-0.1-0.03-0.16-0.13-0.13-0.23l0.3-1.09
				c0.03-0.1,0.13-0.15,0.23-0.13c0.1,0.03,0.16,0.13,0.13,0.23l-0.3,1.09C11.79,481.85,11.71,481.9,11.63,481.9z"/>
			<path class="st0" d="M11.63,482.02c-0.02,0-0.05,0-0.09-0.01c-0.08-0.02-0.14-0.07-0.18-0.15c-0.04-0.07-0.05-0.15-0.03-0.23
				l0.3-1.09c0.05-0.16,0.21-0.26,0.38-0.21c0.08,0.02,0.15,0.07,0.19,0.15c0.04,0.07,0.05,0.15,0.03,0.23l-0.3,1.09
				C11.89,481.93,11.77,482.02,11.63,482.02z M11.94,480.57c-0.03,0-0.05,0.02-0.06,0.04l-0.3,1.09c-0.01,0.02,0,0.03,0,0.04
				c0.01,0.01,0.02,0.02,0.04,0.03l0.02,0c0.03,0,0.05-0.02,0.06-0.04l0.3-1.09c0.01-0.02,0-0.03,0-0.04
				c-0.01-0.01-0.02-0.02-0.04-0.03C11.94,480.57,11.94,480.57,11.94,480.57z"/>
		</g>
	</g>
	<g>
		<g>
			<path class="st0" d="M9.7,485.12c-0.03,0-0.07-0.01-0.09-0.03c-0.09-0.05-0.11-0.16-0.06-0.25l1.94-3.22
				c0.05-0.09,0.16-0.11,0.25-0.06c0.09,0.05,0.11,0.16,0.06,0.25l-1.94,3.22C9.82,485.09,9.76,485.12,9.7,485.12z"/>
			<path class="st0" d="M9.7,485.25c-0.06,0-0.11-0.01-0.16-0.04c-0.15-0.09-0.19-0.28-0.11-0.42l1.94-3.22
				c0.09-0.15,0.28-0.19,0.42-0.11c0.15,0.09,0.19,0.28,0.11,0.42l-1.94,3.22C9.9,485.19,9.8,485.25,9.7,485.25z M11.63,481.66
				c-0.02,0-0.04,0.01-0.05,0.03l-1.94,3.22c-0.02,0.03-0.01,0.06,0.02,0.08c0.03,0.01,0.06,0.01,0.08-0.02l1.94-3.22
				c0.02-0.03,0.01-0.06-0.02-0.08C11.65,481.66,11.64,481.66,11.63,481.66z"/>
		</g>
	</g>
	<g>
		<g>
			<path class="st0" d="M7.66,486.27c-0.46,0-0.91-0.12-1.31-0.37l-0.85-0.84c-0.07-0.07-0.07-0.19,0-0.26
				c0.07-0.07,0.19-0.07,0.26,0l0.81,0.81c0.47,0.27,1.06,0.36,1.62,0.22c0.57-0.14,1.05-0.49,1.35-1c0.05-0.09,0.16-0.11,0.25-0.06
				c0.09,0.05,0.12,0.16,0.06,0.25c-0.35,0.59-0.91,1-1.57,1.16C8.07,486.25,7.86,486.27,7.66,486.27z"/>
			<path class="st0" d="M7.66,486.4c-0.48,0-0.96-0.13-1.38-0.38l-0.87-0.86c-0.06-0.06-0.09-0.14-0.09-0.22s0.03-0.16,0.09-0.22
				c0.11-0.12,0.32-0.12,0.44,0l0.8,0.8c0.44,0.25,1,0.32,1.52,0.2c0.54-0.13,0.99-0.47,1.27-0.94c0.04-0.07,0.11-0.12,0.19-0.14
				c0.08-0.02,0.16-0.01,0.23,0.03c0.07,0.04,0.12,0.11,0.14,0.19s0.01,0.16-0.03,0.23c-0.37,0.61-0.95,1.05-1.65,1.22
				C8.09,486.37,7.87,486.4,7.66,486.4z M5.62,484.88c-0.01,0-0.03,0-0.04,0.02c-0.02,0.02-0.02,0.03-0.02,0.04s0,0.03,0.02,0.04
				l0.85,0.84c0.52,0.3,1.19,0.41,1.82,0.26c0.63-0.16,1.16-0.55,1.5-1.11c0.01-0.02,0.01-0.04,0.01-0.04
				c0-0.01-0.01-0.02-0.03-0.04c-0.02-0.01-0.04-0.01-0.05-0.01c-0.01,0-0.02,0.01-0.03,0.03c-0.32,0.53-0.82,0.9-1.43,1.05
				c-0.59,0.15-1.22,0.06-1.72-0.23l-0.02-0.02l-0.81-0.81C5.65,484.88,5.63,484.88,5.62,484.88z"/>
		</g>
	</g>
	<g>
		<g>
			<path class="st0" d="M5.62,485.12c-0.06,0-0.12-0.03-0.16-0.09l-1.94-3.22c-0.05-0.09-0.02-0.2,0.06-0.25
				c0.09-0.05,0.2-0.02,0.25,0.06l1.94,3.22c0.05,0.09,0.02,0.2-0.06,0.25C5.69,485.11,5.66,485.12,5.62,485.12z"/>
			<path class="st0" d="M5.62,485.25c-0.11,0-0.21-0.06-0.26-0.15l-1.94-3.22c-0.04-0.07-0.06-0.15-0.04-0.23s0.07-0.15,0.14-0.19
				c0.15-0.08,0.34-0.04,0.42,0.11l1.94,3.22c0.09,0.15,0.04,0.33-0.1,0.42C5.73,485.23,5.68,485.25,5.62,485.25z M3.69,481.66
				c-0.01,0-0.02,0-0.03,0.01c-0.02,0.01-0.02,0.03-0.03,0.04c0,0.01,0,0.03,0.01,0.04l1.94,3.22c0.02,0.03,0.05,0.04,0.08,0.02
				c0.03-0.02,0.04-0.05,0.02-0.08l-1.94-3.22C3.73,481.67,3.71,481.66,3.69,481.66z"/>
		</g>
	</g>
	<g>
		<g>
			<path class="st0" d="M3.69,481.9c-0.08,0-0.15-0.05-0.18-0.13l-0.3-1.09c-0.03-0.1,0.03-0.2,0.13-0.23
				c0.1-0.03,0.2,0.03,0.23,0.13l0.3,1.09c0.03,0.1-0.03,0.2-0.13,0.23C3.72,481.9,3.7,481.9,3.69,481.9z"/>
			<path class="st0" d="M3.69,482.02c-0.14,0-0.26-0.09-0.3-0.22l-0.3-1.09c-0.02-0.08-0.01-0.16,0.03-0.23
				c0.04-0.07,0.11-0.12,0.19-0.14c0.08-0.02,0.16-0.01,0.23,0.03c0.07,0.04,0.13,0.11,0.15,0.19l0.3,1.09
				c0.02,0.08,0.01,0.16-0.03,0.23c-0.04,0.07-0.11,0.12-0.19,0.14C3.74,482.02,3.71,482.02,3.69,482.02z M3.39,480.57
				c0,0-0.01,0-0.01,0c-0.03,0.01-0.05,0.04-0.04,0.07l0.3,1.09c0.01,0.03,0.07,0.04,0.07,0.04c0.03-0.01,0.05-0.04,0.04-0.07
				l-0.3-1.09c-0.01-0.02-0.02-0.03-0.03-0.04C3.41,480.57,3.4,480.57,3.39,480.57z"/>
		</g>
	</g>
	<g>
		<g>
			<path class="st0" d="M3.39,480.81c-0.1,0-0.18-0.08-0.18-0.18v-6.97c0-0.1,0.08-0.18,0.18-0.18s0.18,0.08,0.18,0.18v6.97
				C3.57,480.73,3.49,480.81,3.39,480.81z"/>
			<path class="st0" d="M3.39,480.93c-0.17,0-0.31-0.14-0.31-0.31v-6.97c0-0.17,0.14-0.31,0.31-0.31s0.31,0.14,0.31,0.31v6.97
				C3.69,480.79,3.56,480.93,3.39,480.93z M3.39,473.59c-0.03,0-0.06,0.03-0.06,0.06v6.97c0,0.06,0.12,0.06,0.12,0v-6.97
				C3.44,473.62,3.42,473.59,3.39,473.59z"/>
		</g>
	</g>
	<g>
		<g>
			<path class="st0" d="M3.39,473.83c-0.02,0-0.03,0-0.05-0.01c-0.1-0.03-0.16-0.13-0.13-0.23l0.3-1.09
				c0.03-0.1,0.13-0.15,0.23-0.13c0.1,0.03,0.16,0.13,0.13,0.23l-0.3,1.09C3.54,473.78,3.47,473.83,3.39,473.83z"/>
			<path class="st0" d="M3.39,473.96c-0.03,0-0.06,0-0.08-0.01c-0.08-0.02-0.14-0.07-0.18-0.14c-0.04-0.07-0.05-0.16-0.03-0.24
				l0.3-1.09c0.04-0.16,0.21-0.26,0.38-0.22c0.08,0.02,0.15,0.07,0.19,0.15c0.04,0.07,0.05,0.16,0.03,0.24l-0.3,1.09
				C3.65,473.87,3.52,473.96,3.39,473.96z M3.69,472.5c-0.03,0-0.05,0.02-0.06,0.04l-0.3,1.09c-0.01,0.02,0,0.04,0.01,0.04
				s0.01,0.02,0.03,0.03l0.02,0c0.03,0,0.05-0.02,0.06-0.04l0.3-1.09c0.01-0.03-0.01-0.06-0.04-0.07
				C3.7,472.5,3.69,472.5,3.69,472.5z"/>
		</g>
	</g>
	<g>
		<g>
			<path class="st0" d="M20.45,568.67H9.49c-0.1,0-0.18-0.08-0.18-0.18s0.08-0.18,0.18-0.18h10.96c0.1,0,0.18,0.08,0.18,0.18
				S20.55,568.67,20.45,568.67z"/>
			<path class="st0" d="M20.45,568.79H9.49c-0.17,0-0.31-0.14-0.31-0.31s0.14-0.31,0.31-0.31h10.96c0.17,0,0.31,0.14,0.31,0.31
				S20.62,568.79,20.45,568.79z M9.49,568.43c-0.03,0-0.06,0.03-0.06,0.06s0.03,0.06,0.06,0.06h10.96c0.03,0,0.06-0.03,0.06-0.06
				s-0.03-0.06-0.06-0.06H9.49z"/>
		</g>
	</g>
	<g>
		<g>
			<path class="st0" d="M20.45,568.67c-0.1,0-0.18-0.08-0.18-0.18V284.4c0-0.1,0.08-0.18,0.18-0.18s0.18,0.08,0.18,0.18v284.09
				C20.63,568.59,20.55,568.67,20.45,568.67z"/>
			<path class="st0" d="M20.45,568.79c-0.17,0-0.31-0.14-0.31-0.31V284.4c0-0.17,0.14-0.31,0.31-0.31c0.17,0,0.31,0.14,0.31,0.31
				v284.09C20.76,568.65,20.62,568.79,20.45,568.79z M20.45,284.34c-0.03,0-0.06,0.03-0.06,0.06v284.09c0,0.06,0.12,0.06,0.12,0
				V284.4C20.51,284.36,20.48,284.34,20.45,284.34z"/>
		</g>
	</g>
	<g>
		<g>
			<path class="st0" d="M20.45,284.58H0.35c-0.1,0-0.18-0.08-0.18-0.18c0-0.1,0.08-0.18,0.18-0.18h20.09c0.1,0,0.18,0.08,0.18,0.18
				C20.63,284.5,20.55,284.58,20.45,284.58z"/>
			<path class="st0" d="M20.45,284.7H0.35c-0.17,0-0.31-0.14-0.31-0.31s0.14-0.31,0.31-0.31h20.09c0.17,0,0.31,0.14,0.31,0.31
				S20.62,284.7,20.45,284.7z M0.35,284.34c-0.03,0-0.06,0.03-0.06,0.06s0.03,0.06,0.06,0.06h20.09c0.03,0,0.06-0.03,0.06-0.06
				s-0.03-0.06-0.06-0.06H0.35z"/>
		</g>
	</g>
	<g>
		<g>
			<path class="st0" d="M9.49,513.86H0.35c-0.1,0-0.18-0.08-0.18-0.18s0.08-0.18,0.18-0.18h9.13c0.1,0,0.18,0.08,0.18,0.18
				S9.59,513.86,9.49,513.86z"/>
			<path class="st0" d="M9.49,513.98H0.35c-0.17,0-0.31-0.14-0.31-0.31s0.14-0.31,0.31-0.31h9.13c0.17,0,0.31,0.14,0.31,0.31
				S9.66,513.98,9.49,513.98z M0.35,513.62c-0.03,0-0.06,0.03-0.06,0.06s0.03,0.06,0.06,0.06h9.13c0.03,0,0.06-0.03,0.06-0.06
				s-0.03-0.06-0.06-0.06H0.35z"/>
		</g>
	</g>
	<g>
		<g>
			<path class="st0" d="M9.49,568.67c-0.1,0-0.18-0.08-0.18-0.18v-54.81c0-0.1,0.08-0.18,0.18-0.18c0.1,0,0.18,0.08,0.18,0.18v54.81
				C9.67,568.59,9.59,568.67,9.49,568.67z"/>
			<path class="st0" d="M9.49,568.79c-0.17,0-0.31-0.14-0.31-0.31v-54.81c0-0.17,0.14-0.31,0.31-0.31s0.31,0.14,0.31,0.31v54.81
				C9.8,568.65,9.66,568.79,9.49,568.79z M9.49,513.62c-0.03,0-0.06,0.03-0.06,0.06v54.81c0,0.06,0.12,0.06,0.12,0v-54.81
				C9.55,513.64,9.52,513.62,9.49,513.62z"/>
		</g>
	</g>
	<g>
		<g>
			<path class="st0" d="M0.35,513.86c-0.1,0-0.18-0.08-0.18-0.18V284.4c0-0.1,0.08-0.18,0.18-0.18s0.18,0.08,0.18,0.18v229.28
				C0.54,513.77,0.46,513.86,0.35,513.86z"/>
			<path class="st0" d="M0.35,513.98c-0.17,0-0.31-0.14-0.31-0.31V284.4c0-0.17,0.14-0.31,0.31-0.31s0.31,0.14,0.31,0.31v229.28
				C0.66,513.84,0.52,513.98,0.35,513.98z M0.35,284.34c-0.03,0-0.06,0.03-0.06,0.06v229.28c0,0.06,0.12,0.06,0.12,0V284.4
				C0.41,284.36,0.39,284.34,0.35,284.34z"/>
		</g>
	</g>
	<g>
		<g>
			<path class="st0" d="M10.4,11.73c-2.07,0-3.75-1.68-3.75-3.75s1.68-3.75,3.75-3.75s3.75,1.68,3.75,3.75S12.47,11.73,10.4,11.73z
				 M10.4,4.42c-1.96,0-3.56,1.6-3.56,3.56s1.6,3.56,3.56,3.56s3.56-1.6,3.56-3.56S12.37,4.42,10.4,4.42z"/>
			<path class="st0" d="M10.4,11.85c-2.13,0-3.87-1.74-3.87-3.87c0-2.13,1.74-3.87,3.87-3.87c2.13,0,3.87,1.74,3.87,3.87
				C14.27,10.12,12.54,11.85,10.4,11.85z M10.4,4.54c-1.9,0-3.44,1.54-3.44,3.44s1.54,3.44,3.44,3.44s3.44-1.54,3.44-3.44
				S12.3,4.54,10.4,4.54z"/>
		</g>
	</g>
	<g>
		<g>
			<path class="st0" d="M10.4,23.06c-2.07,0-3.75-1.68-3.75-3.75c0-2.07,1.68-3.75,3.75-3.75s3.75,1.68,3.75,3.75
				C14.15,21.38,12.47,23.06,10.4,23.06z M10.4,15.75c-1.96,0-3.56,1.6-3.56,3.56c0,1.96,1.6,3.56,3.56,3.56s3.56-1.6,3.56-3.56
				C13.96,17.35,12.37,15.75,10.4,15.75z"/>
			<path class="st0" d="M10.4,23.18c-2.13,0-3.87-1.74-3.87-3.87s1.74-3.87,3.87-3.87c2.13,0,3.87,1.74,3.87,3.87
				S12.54,23.18,10.4,23.18z M10.4,15.87c-1.9,0-3.44,1.54-3.44,3.44c0,1.9,1.54,3.44,3.44,3.44s3.44-1.54,3.44-3.44
				C13.84,17.42,12.3,15.87,10.4,15.87z"/>
		</g>
	</g>
	<g>
		<g>
			<path class="st0" d="M20.45,0.49H0.35c-0.1,0-0.18-0.08-0.18-0.18s0.08-0.18,0.18-0.18h20.09c0.1,0,0.18,0.08,0.18,0.18
				S20.55,0.49,20.45,0.49z"/>
			<path class="st0" d="M20.45,0.62H0.35c-0.17,0-0.31-0.14-0.31-0.31S0.18,0,0.35,0h20.09c0.17,0,0.31,0.14,0.31,0.31
				S20.62,0.62,20.45,0.62z M0.35,0.25c-0.03,0-0.06,0.03-0.06,0.06s0.03,0.06,0.06,0.06h20.09c0.03,0,0.06-0.03,0.06-0.06
				s-0.03-0.06-0.06-0.06H0.35z"/>
		</g>
	</g>
	<g>
		<g>
			<path class="st0" d="M20.45,284.58c-0.1,0-0.18-0.08-0.18-0.18V0.31c0-0.1,0.08-0.18,0.18-0.18s0.18,0.08,0.18,0.18V284.4
				C20.63,284.5,20.55,284.58,20.45,284.58z"/>
			<path class="st0" d="M20.45,284.7c-0.17,0-0.31-0.14-0.31-0.31V0.31c0-0.17,0.14-0.31,0.31-0.31c0.17,0,0.31,0.14,0.31,0.31
				V284.4C20.76,284.57,20.62,284.7,20.45,284.7z M20.45,0.25c-0.03,0-0.06,0.03-0.06,0.06V284.4c0,0.06,0.12,0.06,0.12,0V0.31
				C20.51,0.28,20.48,0.25,20.45,0.25z"/>
		</g>
	</g>
	<g>
		<g>
			<path class="st0" d="M20.45,284.58H0.35c-0.1,0-0.18-0.08-0.18-0.18c0-0.1,0.08-0.18,0.18-0.18h20.09c0.1,0,0.18,0.08,0.18,0.18
				C20.63,284.5,20.55,284.58,20.45,284.58z"/>
			<path class="st0" d="M20.45,284.7H0.35c-0.17,0-0.31-0.14-0.31-0.31s0.14-0.31,0.31-0.31h20.09c0.17,0,0.31,0.14,0.31,0.31
				S20.62,284.7,20.45,284.7z M0.35,284.34c-0.03,0-0.06,0.03-0.06,0.06s0.03,0.06,0.06,0.06h20.09c0.03,0,0.06-0.03,0.06-0.06
				s-0.03-0.06-0.06-0.06H0.35z"/>
		</g>
	</g>
	<g>
		<g>
			<path class="st0" d="M0.35,284.58c-0.1,0-0.18-0.08-0.18-0.18V0.31c0-0.1,0.08-0.18,0.18-0.18s0.18,0.08,0.18,0.18V284.4
				C0.54,284.5,0.46,284.58,0.35,284.58z"/>
			<path class="st0" d="M0.35,284.7c-0.17,0-0.31-0.14-0.31-0.31V0.31C0.05,0.14,0.18,0,0.35,0c0.17,0,0.31,0.14,0.31,0.31V284.4
				C0.66,284.57,0.52,284.7,0.35,284.7z M0.35,0.25c-0.03,0-0.06,0.03-0.06,0.06V284.4c0,0.06,0.12,0.06,0.12,0V0.31
				C0.41,0.28,0.39,0.25,0.35,0.25z"/>
		</g>
	</g>
	<g>
		<g>
			<path class="st0" d="M36.26,123.26c-0.01,0-0.02,0-0.03,0l-4.2-1.27c-0.05-0.01-0.08-0.07-0.06-0.11
				c0.01-0.05,0.07-0.08,0.11-0.06l4.2,1.27c0.05,0.01,0.08,0.07,0.06,0.11C36.34,123.24,36.3,123.26,36.26,123.26z"/>
			<path class="st0" d="M36.26,123.39l-0.05-0.01L32,122.11c-0.11-0.04-0.18-0.16-0.14-0.27c0.02-0.05,0.05-0.1,0.1-0.13
				c0.05-0.03,0.11-0.03,0.17-0.02l4.2,1.27c0.06,0.02,0.1,0.05,0.13,0.11s0.03,0.11,0.02,0.17
				C36.44,123.32,36.36,123.39,36.26,123.39z M32.06,121.93L32.06,121.93L32.06,121.93z"/>
		</g>
	</g>
	<g>
		<g>
			<path class="st0" d="M32.07,121.99c-0.01,0-0.02,0-0.03,0c-0.3-0.09-0.55-0.29-0.7-0.57c-0.15-0.28-0.18-0.6-0.09-0.91
				c0.01-0.05,0.07-0.07,0.11-0.06c0.05,0.01,0.08,0.07,0.06,0.11c-0.08,0.26-0.05,0.53,0.08,0.77c0.13,0.24,0.34,0.41,0.59,0.48
				c0.05,0.01,0.08,0.07,0.06,0.11C32.14,121.97,32.11,121.99,32.07,121.99z"/>
			<path class="st0" d="M32.07,122.12l-0.05-0.01c-0.35-0.1-0.62-0.33-0.79-0.64c-0.17-0.31-0.2-0.67-0.1-1
				c0.03-0.11,0.15-0.18,0.27-0.15c0.06,0.02,0.1,0.05,0.13,0.11c0.03,0.05,0.03,0.11,0.02,0.17c-0.07,0.23-0.04,0.46,0.07,0.67
				c0.11,0.21,0.3,0.36,0.52,0.42c0.11,0.04,0.18,0.16,0.15,0.27C32.25,122.06,32.16,122.12,32.07,122.12z"/>
		</g>
	</g>
	<g>
		<g>
			<path class="st0" d="M31.33,120.63c-0.01,0-0.02,0-0.03,0c-0.05-0.01-0.08-0.07-0.06-0.11l15.2-50.37
				c0.01-0.05,0.07-0.08,0.11-0.06c0.05,0.01,0.08,0.07,0.06,0.11l-15.2,50.37C31.41,120.6,31.37,120.63,31.33,120.63z"/>
			<path class="st0" d="M31.33,120.75l-0.05-0.01c-0.06-0.02-0.11-0.06-0.14-0.11c-0.03-0.05-0.03-0.11-0.02-0.17l15.2-50.37
				c0.03-0.11,0.15-0.18,0.27-0.15c0.12,0.04,0.18,0.16,0.15,0.27l-15.2,50.37C31.51,120.69,31.43,120.75,31.33,120.75z"/>
		</g>
	</g>
	<g>
		<g>
			<path class="st0" d="M46.53,70.26c-0.01,0-0.02,0-0.03,0c-0.05-0.02-0.08-0.07-0.06-0.11c0.09-0.31,0.3-0.56,0.58-0.71
				c0.28-0.15,0.6-0.18,0.9-0.09c0.05,0.02,0.08,0.07,0.06,0.12c-0.01,0.05-0.06,0.07-0.12,0.06c-0.25-0.08-0.52-0.05-0.76,0.07
				c-0.24,0.13-0.41,0.34-0.49,0.6C46.6,70.23,46.57,70.26,46.53,70.26z"/>
			<path class="st0" d="M46.53,70.38l-0.05-0.01c-0.12-0.04-0.19-0.16-0.15-0.27c0.1-0.34,0.33-0.62,0.64-0.78
				c0.31-0.17,0.66-0.2,0.99-0.1c0.12,0.04,0.18,0.16,0.14,0.27c-0.03,0.11-0.15,0.18-0.27,0.14c-0.22-0.07-0.46-0.04-0.66,0.06
				c-0.21,0.11-0.36,0.3-0.43,0.52C46.71,70.32,46.62,70.38,46.53,70.38z M46.5,70.16L46.5,70.16L46.5,70.16z"/>
		</g>
	</g>
	<g>
		<g>
			<path class="st0" d="M52.1,70.79c-0.01,0-0.02,0-0.03,0l-4.2-1.27c-0.05-0.01-0.08-0.07-0.06-0.11c0.01-0.05,0.07-0.07,0.11-0.06
				l4.2,1.27c0.05,0.01,0.08,0.07,0.06,0.11C52.17,70.77,52.13,70.79,52.1,70.79z"/>
			<path class="st0" d="M52.1,70.92l-0.07-0.01l-4.2-1.27c-0.11-0.03-0.18-0.16-0.14-0.27c0.03-0.11,0.15-0.18,0.27-0.15l4.21,1.27
				c0.06,0.02,0.1,0.05,0.13,0.11c0.03,0.05,0.03,0.11,0.02,0.17C52.28,70.85,52.19,70.92,52.1,70.92z"/>
		</g>
	</g>
	<g>
		<g>
			<path class="st0" d="M65.39,26.8H20.45c-0.1,0-0.18-0.08-0.18-0.18c0-0.1,0.08-0.18,0.18-0.18h44.94c0.1,0,0.18,0.08,0.18,0.18
				C65.58,26.72,65.49,26.8,65.39,26.8z"/>
			<path class="st0" d="M65.39,26.93H20.45c-0.17,0-0.31-0.14-0.31-0.31s0.14-0.31,0.31-0.31h44.94c0.17,0,0.31,0.14,0.31,0.31
				S65.56,26.93,65.39,26.93z M20.45,26.56c-0.03,0-0.06,0.03-0.06,0.06s0.03,0.06,0.06,0.06h44.94c0.03,0,0.06-0.03,0.06-0.06
				s-0.03-0.06-0.06-0.06H20.45z"/>
		</g>
	</g>
	<g>
		<g>
			<path class="st0" d="M20.45,175.77c-0.02,0-0.04,0-0.05-0.01c-0.1-0.03-0.15-0.13-0.12-0.23l15.81-52.41
				c0.03-0.1,0.13-0.15,0.23-0.12s0.15,0.13,0.12,0.23l-15.81,52.41C20.6,175.72,20.53,175.77,20.45,175.77z"/>
			<path class="st0" d="M20.45,175.89c-0.03,0-0.06,0-0.09-0.01c-0.17-0.05-0.26-0.22-0.21-0.39l15.81-52.41
				c0.05-0.16,0.22-0.26,0.38-0.21c0.16,0.05,0.25,0.22,0.21,0.38l-15.81,52.41C20.71,175.8,20.59,175.89,20.45,175.89z
				 M36.26,123.11c-0.02,0-0.05,0.02-0.06,0.04l-15.81,52.41c-0.01,0.03,0.01,0.06,0.04,0.07l0.02,0c0.02,0,0.05-0.01,0.06-0.04
				l15.81-52.41c0.01-0.03-0.01-0.06-0.04-0.07C36.27,123.11,36.27,123.11,36.26,123.11z"/>
		</g>
	</g>
	<g>
		<g>
			<path class="st0" d="M52.1,70.88c-0.02,0-0.04,0-0.05-0.01c-0.1-0.03-0.15-0.13-0.12-0.23l13.3-44.08
				c0.03-0.1,0.13-0.15,0.23-0.12c0.1,0.03,0.15,0.13,0.12,0.23l-13.3,44.08C52.25,70.83,52.17,70.88,52.1,70.88z"/>
			<path class="st0" d="M52.1,71.01c-0.03,0-0.06,0-0.09-0.01c-0.17-0.05-0.26-0.22-0.21-0.38l13.3-44.08
				c0.05-0.16,0.22-0.25,0.38-0.21c0.16,0.05,0.26,0.22,0.21,0.39l-13.3,44.08C52.35,70.92,52.23,71.01,52.1,71.01z M65.39,26.56
				c-0.03,0-0.05,0.02-0.06,0.04l-13.3,44.08c-0.01,0.03,0.01,0.06,0.04,0.07l0.02,0c0.03,0,0.05-0.02,0.06-0.04l13.3-44.08
				c0.01-0.03-0.01-0.06-0.04-0.07C65.4,26.56,65.4,26.56,65.39,26.56z"/>
		</g>
	</g>
	<g>
		<g>
			<path class="st0" d="M36.26,123.35c-0.02,0-0.04,0-0.05-0.01c-0.1-0.03-0.15-0.13-0.12-0.23l15.83-52.47
				c0.03-0.1,0.13-0.15,0.23-0.12c0.1,0.03,0.15,0.13,0.12,0.23l-15.83,52.47C36.41,123.3,36.34,123.35,36.26,123.35z"/>
			<path class="st0" d="M36.26,123.48c-0.03,0-0.06,0-0.09-0.01c-0.17-0.05-0.26-0.22-0.21-0.39L51.8,70.61
				c0.02-0.08,0.08-0.14,0.15-0.18s0.16-0.05,0.24-0.02c0.16,0.05,0.25,0.22,0.21,0.39l-15.83,52.47
				C36.52,123.39,36.4,123.48,36.26,123.48z M52.1,70.64c-0.01,0-0.02,0-0.03,0.01c-0.01,0-0.02,0.01-0.03,0.04l-15.83,52.47
				c-0.01,0.03,0.01,0.06,0.04,0.07l0.02,0c0.03,0,0.05-0.02,0.06-0.04l15.83-52.47c0.01-0.03-0.01-0.06-0.04-0.07
				C52.11,70.64,52.1,70.64,52.1,70.64z"/>
		</g>
	</g>
	<g>
		<g>
			<path class="st0" d="M20.68,239c-0.02,0-0.04,0-0.05-0.01l-0.23-0.07c-0.1-0.03-0.15-0.13-0.12-0.23
				c0.03-0.1,0.13-0.15,0.23-0.12l0.23,0.07c0.1,0.03,0.15,0.13,0.12,0.23C20.83,238.95,20.76,239,20.68,239z"/>
			<path class="st0" d="M20.68,239.13c-0.03,0-0.06,0-0.09-0.01l-0.23-0.07c-0.16-0.05-0.25-0.22-0.2-0.38
				c0.05-0.16,0.22-0.25,0.38-0.21l0.23,0.07c0.16,0.05,0.25,0.22,0.2,0.38C20.93,239.04,20.81,239.13,20.68,239.13z M20.45,238.69
				c-0.03,0-0.05,0.02-0.06,0.04c-0.01,0.03,0.01,0.06,0.04,0.07l0.25,0.07c0.03,0,0.05-0.02,0.06-0.04
				c0.01-0.03-0.01-0.06-0.04-0.07l-0.23-0.07C20.46,238.69,20.46,238.69,20.45,238.69z"/>
		</g>
	</g>
	<g>
		<g>
			<path class="st0" d="M231.1,302.48c-0.02,0-0.04,0-0.05-0.01L20.62,239c-0.1-0.03-0.15-0.13-0.12-0.23
				c0.03-0.1,0.13-0.15,0.23-0.12l210.42,63.48c0.1,0.03,0.15,0.13,0.12,0.23C231.25,302.43,231.18,302.48,231.1,302.48z"/>
			<path class="st0" d="M231.1,302.61c-0.03,0-0.06,0-0.09-0.01L20.59,239.12c-0.16-0.05-0.25-0.22-0.21-0.38
				c0.05-0.16,0.22-0.25,0.38-0.21L231.19,302c0.16,0.05,0.25,0.22,0.21,0.39C231.36,302.52,231.23,302.61,231.1,302.61z
				 M20.68,238.76c-0.02,0-0.05,0.02-0.06,0.04c-0.01,0.03,0.01,0.06,0.04,0.07l210.44,63.48c0.03,0,0.05-0.02,0.06-0.04
				c0.01-0.03-0.01-0.06-0.04-0.07L20.69,238.76C20.69,238.76,20.68,238.76,20.68,238.76z"/>
		</g>
	</g>
	<g>
		<g>
			<path class="st0" d="M231.1,306.14H20.45c-0.1,0-0.18-0.08-0.18-0.18c0-0.1,0.08-0.18,0.18-0.18H231.1c0.1,0,0.18,0.08,0.18,0.18
				C231.28,306.05,231.2,306.14,231.1,306.14z"/>
			<path class="st0" d="M231.1,306.26H20.45c-0.17,0-0.31-0.14-0.31-0.31s0.14-0.31,0.31-0.31H231.1c0.17,0,0.31,0.14,0.31,0.31
				S231.27,306.26,231.1,306.26z M20.45,305.89c-0.03,0-0.06,0.03-0.06,0.06s0.03,0.06,0.06,0.06H231.1c0.03,0,0.06-0.03,0.06-0.06
				s-0.03-0.06-0.06-0.06H20.45z"/>
		</g>
	</g>
	<g>
		<g>
			<path class="st0" d="M231.1,306.14c-0.1,0-0.18-0.08-0.18-0.18v-3.65c0-0.1,0.08-0.18,0.18-0.18c0.1,0,0.18,0.08,0.18,0.18v3.65
				C231.28,306.05,231.2,306.14,231.1,306.14z"/>
			<path class="st0" d="M231.1,306.26c-0.17,0-0.31-0.14-0.31-0.31v-3.65c0-0.17,0.14-0.31,0.31-0.31s0.31,0.14,0.31,0.31v3.65
				C231.41,306.12,231.27,306.26,231.1,306.26z M231.1,302.24c-0.03,0-0.06,0.03-0.06,0.06v3.65c0,0.06,0.12,0.06,0.12,0v-3.65
				C231.16,302.27,231.13,302.24,231.1,302.24z"/>
		</g>
	</g>
	<g>
		<g>
			<path class="st0" d="M231.1,306.14H20.45c-0.1,0-0.18-0.08-0.18-0.18c0-0.1,0.08-0.18,0.18-0.18H231.1c0.1,0,0.18,0.08,0.18,0.18
				C231.28,306.05,231.2,306.14,231.1,306.14z"/>
			<path class="st0" d="M231.1,306.26H20.45c-0.17,0-0.31-0.14-0.31-0.31s0.14-0.31,0.31-0.31H231.1c0.17,0,0.31,0.14,0.31,0.31
				S231.27,306.26,231.1,306.26z M20.45,305.89c-0.03,0-0.06,0.03-0.06,0.06s0.03,0.06,0.06,0.06H231.1c0.03,0,0.06-0.03,0.06-0.06
				s-0.03-0.06-0.06-0.06H20.45z"/>
		</g>
	</g>
	<g>
		<g>
			<path class="st0" d="M231.1,306.14c-0.1,0-0.18-0.08-0.18-0.18v-3.65c0-0.1,0.08-0.18,0.18-0.18c0.1,0,0.18,0.08,0.18,0.18v3.65
				C231.28,306.05,231.2,306.14,231.1,306.14z"/>
			<path class="st0" d="M231.1,306.26c-0.17,0-0.31-0.14-0.31-0.31v-3.65c0-0.17,0.14-0.31,0.31-0.31s0.31,0.14,0.31,0.31v3.65
				C231.41,306.12,231.27,306.26,231.1,306.26z M231.1,302.24c-0.03,0-0.06,0.03-0.06,0.06v3.65c0,0.06,0.12,0.06,0.12,0v-3.65
				C231.16,302.27,231.13,302.24,231.1,302.24z"/>
		</g>
	</g>
	<g>
		<g>
			<path class="st0" d="M231.1,302.48c-0.02,0-0.04,0-0.05-0.01L20.62,239c-0.1-0.03-0.15-0.13-0.12-0.23
				c0.03-0.1,0.13-0.15,0.23-0.12l210.42,63.48c0.1,0.03,0.15,0.13,0.12,0.23C231.25,302.43,231.18,302.48,231.1,302.48z"/>
			<path class="st0" d="M231.1,302.61c-0.03,0-0.06,0-0.09-0.01L20.59,239.12c-0.16-0.05-0.25-0.22-0.21-0.38
				c0.05-0.16,0.22-0.25,0.38-0.21L231.19,302c0.16,0.05,0.25,0.22,0.21,0.39C231.36,302.52,231.23,302.61,231.1,302.61z
				 M20.68,238.76c-0.02,0-0.05,0.02-0.06,0.04c-0.01,0.03,0.01,0.06,0.04,0.07l210.44,63.48c0.03,0,0.05-0.02,0.06-0.04
				c0.01-0.03-0.01-0.06-0.04-0.07L20.69,238.76C20.69,238.76,20.68,238.76,20.68,238.76z"/>
		</g>
	</g>
	<g>
		<g>
			<path class="st0" d="M20.68,239c-0.02,0-0.04,0-0.05-0.01l-0.23-0.07c-0.1-0.03-0.15-0.13-0.12-0.23
				c0.03-0.1,0.13-0.15,0.23-0.12l0.23,0.07c0.1,0.03,0.15,0.13,0.12,0.23C20.83,238.95,20.76,239,20.68,239z"/>
			<path class="st0" d="M20.68,239.13c-0.03,0-0.06,0-0.09-0.01l-0.23-0.07c-0.16-0.05-0.25-0.22-0.2-0.38
				c0.05-0.16,0.22-0.25,0.38-0.21l0.23,0.07c0.16,0.05,0.25,0.22,0.2,0.38C20.93,239.04,20.81,239.13,20.68,239.13z M20.45,238.69
				c-0.03,0-0.05,0.02-0.06,0.04c-0.01,0.03,0.01,0.06,0.04,0.07l0.25,0.07c0.03,0,0.05-0.02,0.06-0.04
				c0.01-0.03-0.01-0.06-0.04-0.07l-0.23-0.07C20.46,238.69,20.46,238.69,20.45,238.69z"/>
		</g>
	</g>
</g>
</svg>
