<?xml version="1.0" encoding="utf-8"?>
<!-- Generator: Adobe Illustrator 25.0.0, SVG Export Plug-In . SVG Version: 6.00 Build 0)  -->
<svg version="1.1" id="Capa_1" xmlns="http://www.w3.org/2000/svg" xmlns:xlink="http://www.w3.org/1999/xlink" x="0px" y="0px"
	 viewBox="0 0 281.72 63.09" style="enable-background:new 0 0 281.72 63.09;" xml:space="preserve">
<style type="text/css">
	.st0{fill:#FFFFFF;}
</style>
<g>
	<g>
		<defs>
			<path id="SVGID_1_" d="M73.31,1.14c0-0.02,0-0.04,0-0.05l0-0.01l0-0.03c0-0.08-0.03-0.14-0.06-0.24
				c-0.01-0.04-0.02-0.11-0.05-0.17c-0.04-0.08-0.08-0.14-0.16-0.24c-0.02-0.03-0.05-0.08-0.1-0.12c-0.07-0.07-0.15-0.11-0.25-0.17
				c-0.03-0.02-0.07-0.05-0.12-0.07c-0.15-0.06-0.3-0.09-0.45-0.09l-32.4,0.01C38.47,0,37.36,0.3,36.41,0.84
				c-3.28,1.85-4.45,6.03-2.6,9.32c0.08,0.14,0.16,0.28,0.2,0.33l10,17.83H33.32c-0.77,0-1.59,0.03-2.57,0.11l-0.46,0.04
				c-0.82,0.07-1.64,0.18-2.44,0.31l-0.42,0.08c-0.91,0.16-1.71,0.33-2.4,0.52l-0.07,0.01c-0.73,0.19-1.49,0.42-2.35,0.71
				c-0.16,0.05-0.33,0.11-0.49,0.17c-0.71,0.25-1.42,0.53-2.12,0.83c-0.13,0.06-0.27,0.12-0.4,0.18l-0.19,0.09
				c-0.63,0.28-1.19,0.56-1.74,0.85c-0.26,0.14-0.52,0.28-0.77,0.42c-0.48,0.27-0.95,0.55-1.41,0.84l-0.09,0.06
				c-0.25,0.16-0.5,0.31-0.74,0.48c-0.49,0.33-0.99,0.69-1.49,1.06c-0.32,0.24-0.63,0.49-0.94,0.74c-0.26,0.21-0.52,0.43-0.78,0.65
				c-0.5,0.43-1,0.88-1.48,1.35c-0.2,0.2-0.4,0.39-0.6,0.6c-0.44,0.45-0.89,0.94-1.36,1.48l-0.14,0.16
				c-0.16,0.19-0.33,0.38-0.49,0.57c-0.27,0.33-0.54,0.67-0.8,1.01c-0.24,0.32-0.48,0.65-0.71,0.98c-0.3,0.43-0.6,0.87-0.88,1.32
				c-0.25,0.39-0.49,0.79-0.73,1.2l-0.16,0.27c-0.09,0.16-0.19,0.32-0.28,0.48c-0.31,0.58-0.63,1.21-0.97,1.94
				c-0.09,0.2-0.19,0.4-0.27,0.6c-0.33,0.74-0.62,1.49-0.88,2.22l-0.11,0.32c-1.22,3.52-1.83,7.19-1.83,10.91
				c0,0.66,0.54,1.19,1.19,1.19H49.5c9.58,0,17.37-7.79,17.37-17.37c0-2.93-0.75-5.84-2.18-8.42L54.12,18.4
				c0.66,0.08,1.25,0.11,1.82,0.11C65.52,18.51,73.31,10.72,73.31,1.14z M46.75,28.31L36.05,9.24c-0.06-0.09-0.11-0.17-0.16-0.26
				c-1.2-2.14-0.45-4.85,1.69-6.06c0.32-0.18,0.66-0.31,1.05-0.41c0.01,0.09,0.01,0.19,0.02,0.28c0.01,0.13,0.03,0.25,0.05,0.37
				l0.03,0.21c0.05,0.34,0.09,0.68,0.16,1.02c0.05,0.23,0.1,0.46,0.15,0.68c0.07,0.29,0.14,0.58,0.23,0.87
				c0.07,0.24,0.14,0.47,0.22,0.7l0.04,0.13c0.02,0.08,0.05,0.16,0.07,0.23c0.02,0.05,0.05,0.09,0.06,0.11
				c1.9,5.14,6.15,9.12,11.39,10.67l7.23,12.91c-2.66-1.56-5.67-2.39-8.78-2.39H46.75z M46.65,41.64c0-4.35-2.18-8.45-5.74-10.94
				h4.44l7.38,13.17c0.89,1.59,2.35,2.74,4.11,3.23c1.74,0.49,3.62,0.26,5.19-0.62c0.96-0.54,1.77-1.3,2.37-2.22
				c0.05,0.5,0.08,0.97,0.08,1.42c0,8.26-6.72,14.98-14.98,14.98H2.19c0.07-1.92,0.33-3.83,0.75-5.7h30.38
				C40.67,54.97,46.65,48.99,46.65,41.64z M60.86,44.4c-1.03,0.58-2.23,0.72-3.37,0.4c-1.14-0.32-2.09-1.07-2.67-2.1l-6.73-12h1.41
				c5.43,0,10.45,2.96,13.1,7.73c0.55,1.02,0.68,2.19,0.37,3.29C62.64,42.87,61.9,43.82,60.86,44.4z M25.86,31.61
				c0.66-0.16,1.36-0.31,2.14-0.44l0.36-0.06c0.74-0.12,1.48-0.21,2.21-0.27l0.43-0.03c0.88-0.06,1.62-0.1,2.31-0.1
				c6.03,0,10.94,4.91,10.94,10.94s-4.91,10.94-10.94,10.94H3.59c0.22-0.71,0.45-1.36,0.69-1.98l0.06-0.15
				c0.22-0.56,0.48-1.15,0.81-1.86l0.07-0.16c0.07-0.15,0.15-0.31,0.22-0.46c0.26-0.53,0.55-1.05,0.86-1.6
				c0.16-0.28,0.33-0.56,0.5-0.84C7,45.22,7.2,44.91,7.4,44.6c0.32-0.48,0.65-0.95,0.98-1.39c0.16-0.21,0.32-0.42,0.48-0.62
				c0.43-0.55,0.9-1.1,1.4-1.65l0.12-0.13c0.08-0.08,0.15-0.17,0.23-0.25c0.29-0.31,0.59-0.61,0.89-0.91
				c0.11-0.11,0.23-0.22,0.35-0.33l0.15-0.14c0.46-0.44,0.95-0.87,1.45-1.28c0.22-0.18,0.44-0.36,0.67-0.54
				c0.31-0.24,0.62-0.49,0.94-0.72c0.43-0.31,0.86-0.6,1.3-0.89c0.25-0.17,0.51-0.33,0.78-0.49c0.58-0.35,1.06-0.63,1.5-0.87
				c0.15-0.08,0.29-0.15,0.44-0.23l0.15-0.08c0.5-0.25,1-0.49,1.52-0.72l0.09-0.04c0.14-0.06,0.27-0.12,0.41-0.18
				c0.65-0.27,1.3-0.52,1.94-0.74c0.15-0.05,0.3-0.1,0.46-0.15c0.78-0.26,1.47-0.46,2.11-0.62 M41.01,2.33l21.38-0.36L41.55,5.26
				c-0.11-0.38-0.2-0.76-0.28-1.14l-0.04-0.18c-0.02-0.09-0.04-0.18-0.06-0.27C41.1,3.19,41.04,2.75,41.01,2.33z M42.41,7.53
				l28.44-4.96c-0.73,7.63-7.2,13.55-14.9,13.55C50.16,16.12,44.88,12.76,42.41,7.53z M72.94,0.78C72.94,0.78,72.94,0.78,72.94,0.78
				L72.94,0.78L72.94,0.78z"/>
		</defs>
		<use xlink:href="#SVGID_1_"  style="overflow:visible;fill:#FFFFFF;"/>
		<clipPath id="SVGID_2_">
			<use xlink:href="#SVGID_1_"  style="overflow:visible;"/>
		</clipPath>
	</g>
	<path class="st0" d="M103.31,46.76L103.31,46.76c-0.88-0.67-1.86-1.2-2.91-1.57c2.4-1.49,3.86-3.54,4.33-6.09
		c0.11-0.52,0.16-1.02,0.16-1.5c0-2.81-1.25-5.18-3.72-7.03c-2.01-1.5-4.33-2.26-6.89-2.26l-12.46,0h-1.23l-0.05,17.39v17.39h15.88
		c3.31,0,6.06-1.14,8.17-3.4c1.59-1.75,2.39-3.73,2.39-5.89C106.98,51,105.75,48.64,103.31,46.76z M83.06,46.88h13.36
		c2.64,0,4.8,0.93,6.42,2.77c1.11,1.24,1.67,2.63,1.67,4.13c0,2.22-1.06,4.04-3.15,5.41c-1.49,0.99-3.16,1.49-4.95,1.49l-13.36,0.05
		V46.88z M99.28,43.05c-1.49,0.95-3.17,1.44-5,1.44l-11.28,0.05V30.69h11.28c2.71,0,4.9,0.93,6.53,2.77
		c1.08,1.24,1.62,2.63,1.62,4.13C102.43,39.84,101.37,41.68,99.28,43.05z"/>
	<polygon class="st0" points="132.33,30.69 132.33,28.3 110.51,28.3 110.51,63.08 132.33,63.08 132.33,60.69 112.98,60.69 
		112.98,46.89 127.37,46.89 127.37,44.49 112.98,44.49 112.98,30.69 	"/>
	<polygon class="st0" points="168.09,61.4 153.5,29.02 153.19,28.3 151.58,28.3 136.67,61.4 135.87,63.08 138.59,63.08 
		152.38,32.49 165.86,62.36 166.17,63.08 168.9,63.08 	"/>
	<polygon class="st0" points="198.24,28.3 198.24,30.69 207.15,30.69 207.15,63.07 209.62,63.07 209.62,30.69 218.49,30.69 
		218.49,28.3 	"/>
	<path class="st0" d="M281.23,61.52c-2.15-6.94-4.34-11.66-6.5-14.03l0,0c-0.32-0.34-0.67-0.68-1.04-0.99
		c2.85-0.73,5.01-2.27,6.43-4.61c0.78-1.34,1.17-2.76,1.17-4.24c0-2.85-1.25-5.25-3.72-7.13c-2.01-1.47-4.34-2.21-6.94-2.21
		l-14.49,0h-1.23l-0.05,17.39v17.39h2.47V46.88h12.98c1.82,1.29,3.29,2.89,4.37,4.76c1.27,2.27,2.69,5.83,4.21,10.59l0.25,0.84h2.59
		L281.23,61.52z M278.82,37.64c0,2.22-1.06,4.04-3.15,5.41c-1.49,0.95-3.17,1.44-5,1.44h-7.32l-0.05,0.05h-5.98V30.69h13.31
		c2.74,0,4.96,0.95,6.58,2.82C278.27,34.75,278.82,36.14,278.82,37.64z"/>
	<path class="st0" d="M233.42,28.3c-9.88,0-17.92,7.8-17.92,17.39s8.04,17.39,17.92,17.39c9.88,0,17.92-7.8,17.92-17.39
		S243.3,28.3,233.42,28.3z M248.84,45.69c0,8.25-6.92,14.97-15.42,14.97c-8.5,0-15.42-6.71-15.42-14.97s6.92-14.97,15.42-14.97
		C241.92,30.72,248.84,37.44,248.84,45.69z"/>
	<polygon class="st0" points="194.96,28.27 191.53,28.27 174.79,44.02 174.79,28.27 172.39,28.27 172.39,63.09 174.79,63.09 
		174.79,47.33 191.17,62.74 191.53,63.09 194.96,63.09 176.49,45.68 	"/>
</g>
</svg>
