<?xml version="1.0" encoding="utf-8"?>
<!-- Generator: Adobe Illustrator 25.0.1, SVG Export Plug-In . SVG Version: 6.00 Build 0)  -->
<svg version="1.1" id="Capa_1" xmlns="http://www.w3.org/2000/svg" xmlns:xlink="http://www.w3.org/1999/xlink" x="0px" y="0px"
	 viewBox="0 0 69.29 568.45" style="enable-background:new 0 0 69.29 568.45;" xml:space="preserve">
<style type="text/css">
	.st0{fill:#AEADAD;}
</style>
<g>
	<g>
		<g>
			<path class="st0" d="M60.22,477.31h-0.84c-0.05,0-0.09-0.04-0.09-0.09c0-0.05,0.04-0.09,0.09-0.09h0.84
				c0.05,0,0.09,0.04,0.09,0.09C60.31,477.27,60.27,477.31,60.22,477.31z"/>
			<path class="st0" d="M60.22,477.44h-0.84c-0.12,0-0.22-0.1-0.22-0.22s0.1-0.22,0.22-0.22h0.84c0.12,0,0.22,0.1,0.22,0.22
				S60.34,477.44,60.22,477.44z"/>
		</g>
	</g>
	<g>
		<g>
			<path class="st0" d="M61.68,470.68c-0.05,0-0.09-0.04-0.09-0.09s0.04-0.09,0.09-0.09c0.52,0,0.95-0.43,0.95-0.95
				c0-0.52-0.43-0.95-0.95-0.95c-0.05,0-0.09-0.04-0.09-0.09s0.04-0.09,0.09-0.09c0.62,0,1.13,0.51,1.13,1.13
				C62.81,470.18,62.31,470.68,61.68,470.68z"/>
			<path class="st0" d="M61.68,470.81c-0.12,0-0.22-0.1-0.22-0.22s0.1-0.22,0.22-0.22c0.45,0,0.82-0.37,0.82-0.82
				s-0.37-0.82-0.82-0.82c-0.12,0-0.22-0.1-0.22-0.22s0.1-0.22,0.22-0.22c0.69,0,1.26,0.56,1.26,1.26S62.37,470.81,61.68,470.81z"/>
		</g>
	</g>
	<g>
		<g>
			<path class="st0" d="M61.68,470.68c-0.63,0-1.14-0.51-1.14-1.13c0-0.62,0.51-1.13,1.14-1.13c0.05,0,0.09,0.04,0.09,0.09
				s-0.04,0.09-0.09,0.09c-0.53,0-0.95,0.43-0.95,0.95c0,0.52,0.43,0.95,0.95,0.95c0.05,0,0.09,0.04,0.09,0.09
				S61.73,470.68,61.68,470.68z"/>
			<path class="st0" d="M61.68,470.81c-0.7,0-1.26-0.56-1.26-1.26s0.57-1.26,1.26-1.26c0.12,0,0.22,0.1,0.22,0.22
				s-0.1,0.22-0.22,0.22c-0.46,0-0.83,0.37-0.83,0.82s0.37,0.82,0.83,0.82c0.12,0,0.22,0.1,0.22,0.22S61.8,470.81,61.68,470.81z"/>
		</g>
	</g>
	<g>
		<g>
			<path class="st0" d="M61.68,485.29c-0.05,0-0.09-0.04-0.09-0.09s0.04-0.09,0.09-0.09c0.52,0,0.95-0.43,0.95-0.95
				c0-0.52-0.43-0.95-0.95-0.95c-0.05,0-0.09-0.04-0.09-0.09s0.04-0.09,0.09-0.09c0.62,0,1.13,0.51,1.13,1.13
				C62.81,484.78,62.31,485.29,61.68,485.29z"/>
			<path class="st0" d="M61.68,485.42c-0.12,0-0.22-0.1-0.22-0.22s0.1-0.22,0.22-0.22c0.45,0,0.82-0.37,0.82-0.82
				s-0.37-0.82-0.82-0.82c-0.12,0-0.22-0.1-0.22-0.22s0.1-0.22,0.22-0.22c0.69,0,1.26,0.56,1.26,1.26S62.37,485.42,61.68,485.42z"/>
		</g>
	</g>
	<g>
		<g>
			<path class="st0" d="M61.68,485.29c-0.63,0-1.14-0.51-1.14-1.13c0-0.62,0.51-1.13,1.14-1.13c0.05,0,0.09,0.04,0.09,0.09
				s-0.04,0.09-0.09,0.09c-0.53,0-0.95,0.43-0.95,0.95c0,0.52,0.43,0.95,0.95,0.95c0.05,0,0.09,0.04,0.09,0.09
				S61.73,485.29,61.68,485.29z"/>
			<path class="st0" d="M61.68,485.42c-0.7,0-1.26-0.56-1.26-1.26s0.57-1.26,1.26-1.26c0.12,0,0.22,0.1,0.22,0.22
				s-0.1,0.22-0.22,0.22c-0.46,0-0.83,0.37-0.83,0.82s0.37,0.82,0.83,0.82c0.12,0,0.22,0.1,0.22,0.22S61.8,485.42,61.68,485.42z"/>
		</g>
	</g>
	<g>
		<g>
			<path class="st0" d="M59.53,482.06c-0.93,0-1.68-0.75-1.68-1.68c0-0.1,0.08-0.18,0.18-0.18s0.18,0.08,0.18,0.18
				c0,0.73,0.59,1.32,1.32,1.32c0.1,0,0.18,0.08,0.18,0.18C59.71,481.98,59.63,482.06,59.53,482.06z"/>
			<path class="st0" d="M59.53,482.18c-1,0-1.81-0.81-1.81-1.81c0-0.17,0.14-0.31,0.31-0.31s0.31,0.14,0.31,0.31
				c0,0.66,0.53,1.19,1.19,1.19c0.17,0,0.31,0.14,0.31,0.31S59.7,482.18,59.53,482.18z M58.03,480.32c-0.03,0-0.06,0.03-0.06,0.06
				c0,0.86,0.7,1.56,1.56,1.56c0.03,0,0.06-0.03,0.06-0.06s-0.03-0.06-0.06-0.06c-0.79,0-1.44-0.65-1.44-1.44
				C58.09,480.35,58.06,480.32,58.03,480.32z"/>
		</g>
	</g>
	<g>
		<g>
			<path class="st0" d="M61.99,474.5c-0.05,0-0.09-0.04-0.09-0.09v-0.22c0-0.05,0.04-0.09,0.09-0.09c0.05,0,0.09,0.04,0.09,0.09
				v0.22C62.08,474.46,62.04,474.5,61.99,474.5z"/>
			<path class="st0" d="M61.99,474.62c-0.12,0-0.22-0.1-0.22-0.22v-0.21c0-0.12,0.1-0.22,0.22-0.22c0.12,0,0.22,0.1,0.22,0.22v0.21
				C62.21,474.52,62.11,474.62,61.99,474.62z"/>
		</g>
	</g>
	<g>
		<g>
			<path class="st0" d="M61.68,474.76c-0.03,0-0.05-0.01-0.07-0.03c-0.03-0.04-0.03-0.1,0.01-0.13l0.31-0.26
				c0.04-0.03,0.1-0.03,0.13,0.01c0.03,0.04,0.03,0.1-0.01,0.13l-0.31,0.26C61.72,474.75,61.7,474.76,61.68,474.76z"/>
			<path class="st0" d="M61.68,474.88c-0.06,0-0.12-0.03-0.17-0.08c-0.04-0.04-0.06-0.1-0.05-0.16c0.01-0.06,0.03-0.11,0.08-0.15
				l0.31-0.26c0.04-0.04,0.1-0.06,0.16-0.05c0.06,0,0.11,0.03,0.15,0.08c0.08,0.09,0.06,0.23-0.03,0.3l-0.31,0.26
				C61.78,474.86,61.73,474.88,61.68,474.88z M61.66,474.64C61.66,474.64,61.66,474.64,61.66,474.64L61.66,474.64z"/>
		</g>
	</g>
	<g>
		<g>
			<path class="st0" d="M61.68,474.76c-0.05,0-0.09-0.04-0.09-0.09v-0.73c0-0.05,0.04-0.09,0.09-0.09s0.09,0.04,0.09,0.09v0.73
				C61.77,474.71,61.73,474.76,61.68,474.76z"/>
			<path class="st0" d="M61.68,474.88c-0.12,0-0.22-0.1-0.22-0.22v-0.73c0-0.12,0.1-0.22,0.22-0.22c0.12,0,0.22,0.1,0.22,0.22v0.73
				C61.9,474.78,61.8,474.88,61.68,474.88z"/>
		</g>
	</g>
	<g>
		<g>
			<path class="st0" d="M61.99,474.28c-0.02,0-0.04-0.01-0.06-0.02L61.62,474c-0.04-0.03-0.04-0.09-0.01-0.13
				c0.03-0.04,0.09-0.04,0.13-0.01l0.31,0.26c0.04,0.03,0.04,0.09,0.01,0.13C62.04,474.27,62.02,474.28,61.99,474.28z"/>
			<path class="st0" d="M61.99,474.41c-0.05,0-0.1-0.02-0.14-0.05l-0.31-0.26c-0.04-0.03-0.07-0.09-0.08-0.14
				c-0.01-0.06,0.01-0.12,0.05-0.16c0.08-0.09,0.21-0.1,0.31-0.03l0.31,0.26c0.09,0.08,0.1,0.21,0.03,0.3
				C62.12,474.38,62.06,474.41,61.99,474.41z"/>
		</g>
	</g>
	<g>
		<g>
			<path class="st0" d="M48.9,26.81H3.99c-0.1,0-0.18-0.08-0.18-0.18s0.08-0.18,0.18-0.18H48.9c0.1,0,0.18,0.08,0.18,0.18
				S49,26.81,48.9,26.81z"/>
			<path class="st0" d="M48.9,26.93H3.99c-0.17,0-0.31-0.14-0.31-0.31s0.14-0.31,0.31-0.31H48.9c0.17,0,0.31,0.14,0.31,0.31
				S49.07,26.93,48.9,26.93z M3.99,26.57c-0.03,0-0.06,0.03-0.06,0.06s0.03,0.06,0.06,0.06H48.9c0.03,0,0.06-0.03,0.06-0.06
				s-0.03-0.06-0.06-0.06H3.99z"/>
		</g>
	</g>
	<g>
		<g>
			<path class="st0" d="M57.57,473.42c-0.1,0-0.18-0.08-0.18-0.18c0-0.58,0.25-1.14,0.67-1.54c0.07-0.07,0.19-0.06,0.26,0.01
				c0.07,0.07,0.06,0.19-0.01,0.26c-0.35,0.32-0.55,0.78-0.55,1.27C57.76,473.34,57.68,473.42,57.57,473.42z"/>
			<path class="st0" d="M57.57,473.55c-0.17,0-0.31-0.14-0.31-0.31c0-0.62,0.26-1.21,0.71-1.63c0.06-0.06,0.14-0.09,0.22-0.08
				c0.08,0,0.16,0.04,0.21,0.1c0.06,0.06,0.08,0.14,0.08,0.22c0,0.08-0.04,0.16-0.1,0.21c-0.33,0.3-0.51,0.73-0.51,1.17
				C57.88,473.41,57.74,473.55,57.57,473.55z M58.19,471.78c-0.01,0-0.03,0-0.04,0.01c-0.4,0.37-0.63,0.9-0.63,1.44
				c0,0.06,0.12,0.06,0.12,0c0-0.52,0.22-1.01,0.59-1.36c0.02-0.01,0.02-0.03,0.02-0.04c0-0.01,0-0.03-0.02-0.04
				C58.21,471.78,58.2,471.78,58.19,471.78z"/>
		</g>
	</g>
	<g>
		<g>
			<path class="st0" d="M57.57,480.65c-0.1,0-0.18-0.08-0.18-0.18v-7.23c0-0.1,0.08-0.18,0.18-0.18c0.1,0,0.18,0.08,0.18,0.18v7.23
				C57.76,480.57,57.68,480.65,57.57,480.65z"/>
			<path class="st0" d="M57.57,480.77c-0.17,0-0.31-0.14-0.31-0.31v-7.23c0-0.17,0.14-0.31,0.31-0.31s0.31,0.14,0.31,0.31v7.23
				C57.88,480.64,57.74,480.77,57.57,480.77z M57.57,473.18c-0.03,0-0.06,0.03-0.06,0.06v7.23c0,0.06,0.12,0.06,0.12,0v-7.23
				C57.63,473.21,57.61,473.18,57.57,473.18z"/>
		</g>
	</g>
	<g>
		<g>
			<path class="st0" d="M58.19,482.05c-0.04,0-0.09-0.02-0.12-0.05c-0.43-0.39-0.67-0.95-0.67-1.54c0-0.1,0.08-0.18,0.18-0.18
				c0.1,0,0.18,0.08,0.18,0.18c0,0.49,0.2,0.95,0.55,1.26c0.08,0.07,0.08,0.18,0.01,0.26C58.29,482.03,58.24,482.05,58.19,482.05z"
				/>
			<path class="st0" d="M58.19,482.18c-0.08,0-0.15-0.03-0.21-0.08c-0.45-0.41-0.71-1-0.71-1.63c0-0.17,0.14-0.31,0.31-0.31
				s0.31,0.14,0.31,0.31c0,0.45,0.19,0.88,0.51,1.17c0.06,0.05,0.1,0.13,0.1,0.21c0,0.08-0.02,0.16-0.08,0.22
				C58.36,482.14,58.27,482.18,58.19,482.18z M57.57,480.41c-0.03,0-0.06,0.03-0.06,0.06c0,0.55,0.23,1.08,0.63,1.44
				c0.03,0.03,0.05,0.03,0.08,0c0.01-0.02,0.02-0.03,0.01-0.04s0-0.03-0.02-0.04c-0.38-0.34-0.59-0.84-0.59-1.36
				C57.63,480.43,57.61,480.41,57.57,480.41z"/>
		</g>
	</g>
	<g>
		<g>
			<path class="st0" d="M65.17,482.05c-0.05,0-0.1-0.02-0.14-0.06c-0.07-0.08-0.06-0.19,0.01-0.26c0.35-0.32,0.56-0.78,0.56-1.26
				c0-0.1,0.08-0.18,0.18-0.18c0.1,0,0.18,0.08,0.18,0.18c0,0.59-0.25,1.15-0.68,1.54C65.26,482.04,65.22,482.05,65.17,482.05z"/>
			<path class="st0" d="M65.17,482.18c-0.09,0-0.17-0.04-0.23-0.1c-0.06-0.06-0.08-0.14-0.08-0.22c0-0.08,0.04-0.16,0.1-0.21
				c0.33-0.3,0.52-0.72,0.52-1.17c0-0.17,0.14-0.31,0.31-0.31s0.31,0.14,0.31,0.31c0,0.62-0.26,1.22-0.72,1.63
				C65.32,482.15,65.25,482.18,65.17,482.18z M65.79,480.41c-0.03,0-0.06,0.03-0.06,0.06c0,0.52-0.22,1.01-0.6,1.36
				c-0.02,0.01-0.02,0.03-0.02,0.04s0,0.03,0.02,0.04c0.03,0.03,0.06,0.03,0.08,0c0.41-0.37,0.64-0.89,0.64-1.44
				C65.85,480.43,65.82,480.41,65.79,480.41z"/>
		</g>
	</g>
	<g>
		<g>
			<path class="st0" d="M65.79,480.65c-0.1,0-0.18-0.08-0.18-0.18v-7.23c0-0.1,0.08-0.18,0.18-0.18c0.1,0,0.18,0.08,0.18,0.18v7.23
				C65.97,480.57,65.89,480.65,65.79,480.65z"/>
			<path class="st0" d="M65.79,480.77c-0.17,0-0.31-0.14-0.31-0.31v-7.23c0-0.17,0.14-0.31,0.31-0.31s0.31,0.14,0.31,0.31v7.23
				C66.1,480.64,65.96,480.77,65.79,480.77z M65.79,473.18c-0.03,0-0.06,0.03-0.06,0.06v7.23c0,0.06,0.12,0.06,0.12,0v-7.23
				C65.85,473.21,65.82,473.18,65.79,473.18z"/>
		</g>
	</g>
	<g>
		<g>
			<path class="st0" d="M65.79,473.42c-0.1,0-0.18-0.08-0.18-0.18c0-0.48-0.2-0.94-0.56-1.27c-0.07-0.07-0.08-0.18-0.01-0.26
				c0.07-0.08,0.18-0.08,0.26-0.01c0.43,0.39,0.68,0.96,0.68,1.54C65.97,473.34,65.89,473.42,65.79,473.42z"/>
			<path class="st0" d="M65.79,473.55c-0.17,0-0.31-0.14-0.31-0.31c0-0.44-0.19-0.87-0.52-1.17c-0.06-0.06-0.1-0.13-0.1-0.21
				c0-0.08,0.03-0.16,0.08-0.22c0.05-0.06,0.13-0.1,0.21-0.1c0.08,0,0.16,0.03,0.22,0.08c0.46,0.42,0.72,1.01,0.72,1.63
				C66.1,473.41,65.96,473.55,65.79,473.55z M65.17,471.78c-0.02,0-0.03,0-0.04,0.02c-0.01,0.02-0.02,0.03-0.02,0.04
				s0,0.03,0.02,0.04c0.38,0.35,0.6,0.84,0.6,1.36c0,0.06,0.12,0.06,0.12,0c0-0.55-0.23-1.07-0.64-1.44
				C65.2,471.78,65.18,471.78,65.17,471.78z"/>
		</g>
	</g>
	<g>
		<g>
			<path class="st0" d="M61.68,484.62c-0.02,0-0.05-0.01-0.06-0.03l-0.37-0.37c-0.02-0.02-0.03-0.04-0.03-0.07
				c0-0.02,0.01-0.05,0.03-0.07l0.37-0.37c0.03-0.03,0.1-0.03,0.13,0l0.37,0.37c0.02,0.02,0.03,0.04,0.03,0.07
				c0,0.02-0.01,0.05-0.03,0.07l-0.37,0.37C61.73,484.61,61.71,484.62,61.68,484.62z M61.45,484.16l0.24,0.24l0.24-0.24l-0.24-0.24
				L61.45,484.16z"/>
			<path class="st0" d="M61.68,484.74c-0.06,0-0.11-0.02-0.15-0.06l-0.37-0.37c-0.04-0.04-0.06-0.1-0.06-0.15
				c0-0.05,0.02-0.11,0.06-0.15l0.37-0.37c0.08-0.08,0.22-0.08,0.31,0L62.2,484c0.04,0.04,0.06,0.1,0.06,0.15
				c0,0.06-0.02,0.11-0.06,0.15l-0.37,0.37C61.8,484.72,61.74,484.74,61.68,484.74z M61.62,484.16l0.06,0.06l0.06-0.06l-0.06-0.06
				L61.62,484.16z"/>
		</g>
	</g>
	<g>
		<g>
			<path class="st0" d="M61.68,470.01c-0.02,0-0.05-0.01-0.06-0.03l-0.37-0.37c-0.02-0.02-0.03-0.04-0.03-0.07
				c0-0.02,0.01-0.05,0.03-0.07l0.37-0.37c0.03-0.03,0.1-0.03,0.13,0l0.37,0.37c0.02,0.02,0.03,0.04,0.03,0.07
				c0,0.02-0.01,0.05-0.03,0.07l-0.37,0.37C61.73,470,61.71,470.01,61.68,470.01z M61.45,469.55l0.24,0.24l0.24-0.24l-0.24-0.24
				L61.45,469.55z"/>
			<path class="st0" d="M61.68,470.13c-0.06,0-0.11-0.02-0.15-0.06l-0.37-0.37c-0.04-0.04-0.06-0.1-0.06-0.15s0.02-0.11,0.06-0.15
				l0.37-0.37c0.08-0.08,0.22-0.08,0.31,0l0.37,0.37c0.04,0.04,0.06,0.1,0.06,0.15s-0.02,0.11-0.06,0.15l-0.37,0.37
				C61.8,470.11,61.74,470.13,61.68,470.13z M61.62,469.55l0.06,0.06l0.06-0.06l-0.06-0.06L61.62,469.55z"/>
		</g>
	</g>
	<g>
		<g>
			<path class="st0" d="M54.37,552.9c-2.06,0-3.74-1.68-3.74-3.75c0-2.06,1.68-3.74,3.74-3.74c2.07,0,3.75,1.68,3.75,3.74
				C58.12,551.22,56.44,552.9,54.37,552.9z M54.37,545.59c-1.96,0-3.56,1.6-3.56,3.56c0,1.96,1.6,3.56,3.56,3.56
				c1.96,0,3.56-1.6,3.56-3.56C57.94,547.19,56.34,545.59,54.37,545.59z"/>
			<path class="st0" d="M54.37,553.02c-2.13,0-3.87-1.74-3.87-3.87c0-2.13,1.73-3.87,3.87-3.87c2.13,0,3.87,1.73,3.87,3.87
				C58.24,551.29,56.51,553.02,54.37,553.02z M54.37,545.72c-1.89,0-3.43,1.54-3.43,3.43c0,1.9,1.54,3.44,3.43,3.44
				c1.9,0,3.44-1.54,3.44-3.44C57.81,547.26,56.27,545.72,54.37,545.72z"/>
		</g>
	</g>
	<g>
		<g>
			<path class="st0" d="M54.37,564.21c-2.06,0-3.74-1.68-3.74-3.74c0-2.07,1.68-3.75,3.74-3.75c2.07,0,3.75,1.68,3.75,3.75
				C58.12,562.54,56.44,564.21,54.37,564.21z M54.37,556.91c-1.96,0-3.56,1.6-3.56,3.56c0,1.96,1.6,3.56,3.56,3.56
				c1.96,0,3.56-1.6,3.56-3.56C57.94,558.51,56.34,556.91,54.37,556.91z"/>
			<path class="st0" d="M54.37,564.34c-2.13,0-3.87-1.73-3.87-3.87c0-2.13,1.73-3.87,3.87-3.87c2.13,0,3.87,1.74,3.87,3.87
				C58.24,562.6,56.51,564.34,54.37,564.34z M54.37,557.04c-1.89,0-3.43,1.54-3.43,3.44c0,1.89,1.54,3.43,3.43,3.43
				c1.9,0,3.44-1.54,3.44-3.43C57.81,558.58,56.27,557.04,54.37,557.04z"/>
		</g>
	</g>
	<g>
		<g>
			<path class="st0" d="M65.65,472.46c-0.06,0-0.12-0.03-0.16-0.09l-1.93-3.22c-0.05-0.09-0.02-0.2,0.06-0.25
				c0.09-0.05,0.2-0.02,0.25,0.06l1.93,3.22c0.05,0.09,0.02,0.2-0.06,0.25C65.71,472.45,65.68,472.46,65.65,472.46z"/>
			<path class="st0" d="M65.65,472.59c-0.11,0-0.21-0.06-0.26-0.15l-1.94-3.22c-0.09-0.15-0.04-0.34,0.1-0.42
				c0.15-0.09,0.34-0.04,0.42,0.1l1.93,3.22c0.04,0.07,0.05,0.15,0.03,0.23c-0.02,0.08-0.07,0.15-0.14,0.19
				C65.76,472.57,65.71,472.59,65.65,472.59z M63.71,469c-0.01,0-0.02,0-0.03,0.01c-0.03,0.02-0.04,0.05-0.02,0.08l1.93,3.22
				c0.02,0.03,0.05,0.04,0.08,0.02c0.02-0.01,0.03-0.06,0.02-0.08l-1.93-3.22C63.75,469.01,63.73,469,63.71,469z"/>
		</g>
	</g>
	<g>
		<g>
			<path class="st0" d="M63.71,469.24c-0.06,0-0.12-0.03-0.16-0.09c-0.3-0.5-0.78-0.86-1.35-1c-0.57-0.14-1.15-0.05-1.65,0.25
				l-0.78,0.79c-0.07,0.07-0.19,0.07-0.26,0c-0.07-0.07-0.07-0.19,0-0.26l0.82-0.81c0.62-0.38,1.3-0.48,1.97-0.32
				c0.66,0.17,1.22,0.58,1.58,1.17c0.05,0.09,0.02,0.2-0.06,0.25C63.78,469.24,63.75,469.24,63.71,469.24z"/>
			<path class="st0" d="M63.71,469.37c-0.11,0-0.21-0.06-0.26-0.15c-0.28-0.47-0.74-0.81-1.27-0.94c-0.54-0.13-1.09-0.05-1.56,0.23
				l-0.76,0.77c-0.12,0.12-0.32,0.12-0.44,0c-0.12-0.12-0.12-0.32,0-0.44l0.82-0.82c0.66-0.41,1.37-0.53,2.08-0.35
				c0.7,0.17,1.28,0.61,1.65,1.22c0.09,0.14,0.04,0.33-0.11,0.42C63.82,469.35,63.77,469.37,63.71,469.37z M61.68,467.97
				c0.19,0,0.37,0.02,0.56,0.07c0.6,0.15,1.11,0.52,1.43,1.05c0.02,0.03,0.05,0.04,0.08,0.02c0.03-0.02,0.04-0.05,0.02-0.08
				c-0.34-0.56-0.87-0.95-1.5-1.11c-0.64-0.16-1.29-0.05-1.87,0.3l-0.79,0.8c-0.02,0.02-0.02,0.06,0,0.08
				c0.02,0.02,0.06,0.02,0.08,0l0.78-0.79C60.85,468.08,61.26,467.97,61.68,467.97z"/>
		</g>
	</g>
	<g>
		<g>
			<path class="st0" d="M57.71,472.46c-0.03,0-0.06-0.01-0.09-0.03c-0.09-0.05-0.11-0.16-0.06-0.25l1.93-3.22
				c0.05-0.09,0.17-0.11,0.25-0.06c0.09,0.05,0.11,0.16,0.06,0.25l-1.93,3.22C57.83,472.43,57.77,472.46,57.71,472.46z"/>
			<path class="st0" d="M57.71,472.59c-0.05,0-0.11-0.01-0.16-0.04c-0.07-0.04-0.12-0.11-0.14-0.19c-0.02-0.08-0.01-0.16,0.04-0.23
				l1.93-3.22c0.09-0.14,0.28-0.19,0.42-0.11c0.15,0.09,0.19,0.28,0.11,0.42l-1.93,3.22C57.92,472.53,57.82,472.59,57.71,472.59z
				 M59.65,469c-0.02,0-0.04,0.01-0.05,0.03l-1.93,3.22c-0.01,0.02-0.01,0.04-0.01,0.04c0,0.01,0.01,0.02,0.03,0.04
				c0.03,0.02,0.06,0.01,0.08-0.02l1.93-3.22c0.02-0.03,0.01-0.06-0.02-0.08C59.67,469.01,59.66,469,59.65,469z"/>
		</g>
	</g>
	<g>
		<g>
			<path class="st0" d="M57.41,473.55c-0.02,0-0.03,0-0.05-0.01c-0.1-0.03-0.16-0.13-0.13-0.23l0.3-1.09
				c0.03-0.1,0.13-0.16,0.23-0.13c0.1,0.03,0.16,0.13,0.13,0.23l-0.3,1.09C57.56,473.5,57.49,473.55,57.41,473.55z"/>
			<path class="st0" d="M57.41,473.68c-0.03,0-0.06,0-0.08-0.01c-0.16-0.04-0.26-0.21-0.21-0.38l0.3-1.09
				c0.02-0.08,0.07-0.15,0.15-0.19c0.07-0.04,0.16-0.05,0.23-0.03c0.16,0.05,0.26,0.22,0.22,0.38l-0.3,1.09
				C57.67,473.59,57.55,473.68,57.41,473.68z M57.71,472.22c-0.01,0-0.02,0-0.03,0.01c-0.01,0.01-0.02,0.02-0.03,0.04l-0.3,1.09
				c-0.01,0.03,0.01,0.06,0.04,0.07l0.01,0c0.03,0,0.05-0.02,0.06-0.04l0.3-1.09c0.01-0.03-0.01-0.06-0.04-0.07
				C57.72,472.22,57.71,472.22,57.71,472.22z"/>
		</g>
	</g>
	<g>
		<g>
			<path class="st0" d="M57.41,480.52c-0.1,0-0.18-0.08-0.18-0.18v-6.97c0-0.1,0.08-0.18,0.18-0.18c0.1,0,0.18,0.08,0.18,0.18v6.97
				C57.59,480.44,57.51,480.52,57.41,480.52z"/>
			<path class="st0" d="M57.41,480.64c-0.17,0-0.31-0.14-0.31-0.31v-6.97c0-0.17,0.14-0.31,0.31-0.31s0.31,0.14,0.31,0.31v6.97
				C57.72,480.51,57.58,480.64,57.41,480.64z M57.41,473.31c-0.03,0-0.06,0.03-0.06,0.06v6.97c0,0.07,0.12,0.06,0.12,0v-6.97
				C57.47,473.34,57.44,473.31,57.41,473.31z"/>
		</g>
	</g>
	<g>
		<g>
			<path class="st0" d="M57.71,481.61c-0.08,0-0.15-0.05-0.18-0.13l-0.3-1.09c-0.03-0.1,0.03-0.2,0.13-0.23
				c0.1-0.03,0.2,0.03,0.23,0.13l0.3,1.09c0.03,0.1-0.03,0.2-0.13,0.23C57.74,481.61,57.73,481.61,57.71,481.61z"/>
			<path class="st0" d="M57.71,481.74c-0.14,0-0.26-0.09-0.3-0.23l-0.3-1.09c-0.04-0.16,0.05-0.33,0.22-0.38
				c0.16-0.05,0.33,0.05,0.38,0.21l0.3,1.09c0.04,0.16-0.05,0.33-0.22,0.38C57.77,481.73,57.74,481.74,57.71,481.74z M57.41,480.28
				c-0.01,0-0.01,0-0.02,0c-0.03,0.01-0.05,0.04-0.04,0.07l0.3,1.09c0.01,0.03,0.04,0.05,0.07,0.04c0.03-0.01,0.05-0.04,0.04-0.07
				l-0.3-1.09C57.46,480.29,57.44,480.28,57.41,480.28z"/>
		</g>
	</g>
	<g>
		<g>
			<path class="st0" d="M59.64,484.83c-0.06,0-0.12-0.03-0.16-0.09l-1.93-3.22c-0.05-0.09-0.02-0.2,0.06-0.25
				c0.09-0.05,0.2-0.02,0.25,0.06l1.93,3.22c0.05,0.09,0.02,0.2-0.06,0.25C59.71,484.82,59.68,484.83,59.64,484.83z"/>
			<path class="st0" d="M59.64,484.96c-0.11,0-0.21-0.06-0.26-0.15l-1.94-3.22c-0.04-0.07-0.05-0.15-0.03-0.23s0.07-0.15,0.14-0.19
				c0.07-0.04,0.15-0.06,0.23-0.04c0.08,0.02,0.15,0.07,0.19,0.14l1.93,3.22c0.04,0.07,0.06,0.15,0.04,0.23
				c-0.02,0.08-0.07,0.15-0.14,0.19C59.76,484.94,59.7,484.96,59.64,484.96z M57.71,481.37c-0.01,0-0.02,0-0.03,0.01
				c-0.02,0.01-0.03,0.06-0.02,0.08l1.94,3.22c0.03,0.05,0.06,0.03,0.08,0.02c0.02-0.01,0.03-0.03,0.03-0.04
				c0-0.01,0-0.03-0.01-0.04l-1.93-3.22c-0.01-0.01-0.02-0.02-0.04-0.03C57.72,481.37,57.71,481.37,57.71,481.37z"/>
		</g>
	</g>
	<g>
		<g>
			<path class="st0" d="M61.67,485.98c-0.21,0-0.41-0.03-0.61-0.08c-0.66-0.16-1.22-0.58-1.57-1.16c-0.05-0.09-0.02-0.2,0.06-0.25
				c0.09-0.05,0.2-0.02,0.25,0.06c0.3,0.5,0.78,0.85,1.35,1c0.57,0.14,1.16,0.05,1.66-0.25l0.78-0.78c0.07-0.07,0.19-0.07,0.26,0
				c0.07,0.07,0.07,0.19,0,0.26l-0.81,0.81C62.6,485.85,62.14,485.98,61.67,485.98z"/>
			<path class="st0" d="M61.67,486.11c-0.22,0-0.43-0.03-0.64-0.08c-0.7-0.17-1.28-0.61-1.65-1.22c-0.09-0.15-0.04-0.33,0.11-0.42
				c0.15-0.09,0.34-0.04,0.42,0.11c0.28,0.47,0.73,0.8,1.27,0.94c0.54,0.13,1.09,0.05,1.56-0.23l0.76-0.76
				c0.06-0.06,0.14-0.09,0.22-0.09h0c0.08,0,0.16,0.03,0.22,0.09c0.06,0.06,0.09,0.14,0.09,0.22c0,0.08-0.03,0.16-0.09,0.22
				l-0.81,0.81C62.65,485.97,62.17,486.11,61.67,486.11z M59.64,484.59c-0.01,0-0.02,0-0.03,0.01c-0.03,0.02-0.04,0.05-0.02,0.08
				c0.33,0.56,0.87,0.95,1.5,1.11c0.64,0.16,1.29,0.05,1.87-0.3l0.79-0.79c0.02-0.02,0.02-0.06,0-0.08
				c-0.01-0.01-0.03-0.02-0.04-0.02l0,0c-0.01,0-0.03,0-0.04,0.02l-0.78,0.78c-0.55,0.34-1.17,0.43-1.78,0.28
				c-0.6-0.15-1.1-0.52-1.42-1.05C59.68,484.6,59.66,484.59,59.64,484.59z"/>
		</g>
	</g>
	<g>
		<g>
			<path class="st0" d="M63.71,484.83c-0.03,0-0.06-0.01-0.09-0.03c-0.09-0.05-0.11-0.16-0.06-0.25l1.93-3.22
				c0.05-0.09,0.16-0.12,0.25-0.06c0.09,0.05,0.11,0.16,0.06,0.25l-1.93,3.22C63.84,484.8,63.78,484.83,63.71,484.83z"/>
			<path class="st0" d="M63.71,484.96c-0.06,0-0.11-0.02-0.16-0.04c-0.07-0.04-0.12-0.11-0.14-0.19c-0.02-0.08-0.01-0.16,0.03-0.23
				l1.94-3.22c0.04-0.07,0.11-0.12,0.19-0.14c0.08-0.02,0.16-0.01,0.23,0.04c0.15,0.09,0.19,0.28,0.11,0.42l-1.93,3.22
				C63.92,484.9,63.82,484.96,63.71,484.96z M65.65,481.37c-0.01,0-0.01,0-0.01,0c-0.02,0-0.03,0.01-0.04,0.03l-1.93,3.22
				c-0.01,0.02,0,0.07,0.02,0.08l0.03,0.01c0.01,0,0.04,0,0.05-0.03l1.93-3.22c0.02-0.03,0.01-0.06-0.02-0.08
				C65.67,481.37,65.66,481.37,65.65,481.37z"/>
		</g>
	</g>
	<g>
		<g>
			<path class="st0" d="M65.65,481.61c-0.02,0-0.03,0-0.05-0.01c-0.1-0.03-0.15-0.13-0.13-0.23l0.3-1.09
				c0.03-0.1,0.13-0.15,0.23-0.13c0.1,0.03,0.15,0.13,0.13,0.23l-0.3,1.09C65.8,481.56,65.73,481.61,65.65,481.61z"/>
			<path class="st0" d="M65.65,481.74c-0.03,0-0.06,0-0.09-0.01c-0.08-0.02-0.14-0.07-0.18-0.15c-0.04-0.07-0.05-0.15-0.03-0.23
				l0.3-1.09c0.02-0.08,0.07-0.14,0.14-0.19c0.07-0.04,0.16-0.05,0.24-0.03c0.16,0.05,0.26,0.22,0.21,0.38l-0.3,1.09
				C65.91,481.64,65.79,481.74,65.65,481.74z M65.95,480.28c-0.01,0-0.02,0-0.03,0.01c-0.01,0.01-0.02,0.02-0.03,0.03l-0.3,1.09
				c-0.01,0.02,0,0.04,0,0.04s0.02,0.02,0.04,0.03l0.02,0c0.03,0,0.05-0.02,0.06-0.04l0.3-1.09c0.01-0.03-0.01-0.06-0.04-0.07
				C65.96,480.28,65.96,480.28,65.95,480.28z"/>
		</g>
	</g>
	<g>
		<g>
			<path class="st0" d="M65.95,480.52c-0.1,0-0.18-0.08-0.18-0.18v-6.97c0-0.1,0.08-0.18,0.18-0.18s0.18,0.08,0.18,0.18v6.97
				C66.14,480.44,66.06,480.52,65.95,480.52z"/>
			<path class="st0" d="M65.95,480.64c-0.17,0-0.31-0.14-0.31-0.31v-6.97c0-0.17,0.14-0.31,0.31-0.31s0.31,0.14,0.31,0.31v6.97
				C66.26,480.51,66.12,480.64,65.95,480.64z M65.95,473.31c-0.03,0-0.06,0.03-0.06,0.06v6.97c0,0.06,0.12,0.06,0.12,0v-6.97
				C66.01,473.34,65.99,473.31,65.95,473.31z"/>
		</g>
	</g>
	<g>
		<g>
			<path class="st0" d="M65.95,473.55c-0.08,0-0.15-0.05-0.18-0.13l-0.3-1.09c-0.03-0.1,0.03-0.2,0.13-0.23
				c0.1-0.02,0.2,0.03,0.23,0.13l0.3,1.09c0.03,0.1-0.03,0.2-0.13,0.23C65.99,473.55,65.97,473.55,65.95,473.55z"/>
			<path class="st0" d="M65.95,473.68c-0.14,0-0.26-0.09-0.3-0.23l-0.3-1.09c-0.02-0.08-0.01-0.16,0.03-0.23
				c0.04-0.07,0.11-0.12,0.19-0.15c0.17-0.04,0.33,0.05,0.38,0.21l0.3,1.09c0.05,0.16-0.05,0.33-0.21,0.38
				C66.01,473.68,65.98,473.68,65.95,473.68z M65.65,472.22c-0.01,0-0.01,0-0.02,0c-0.02,0.01-0.04,0.04-0.04,0.07l0.3,1.09
				c0.01,0.04,0.05,0.05,0.07,0.04c0.03-0.01,0.05-0.04,0.04-0.07l-0.3-1.09C65.7,472.24,65.67,472.22,65.65,472.22z"/>
		</g>
	</g>
	<g>
		<g>
			<path class="st0" d="M59.85,568.33H48.9c-0.1,0-0.18-0.08-0.18-0.18s0.08-0.18,0.18-0.18h10.96c0.1,0,0.18,0.08,0.18,0.18
				S59.96,568.33,59.85,568.33z"/>
			<path class="st0" d="M59.86,568.45H48.9c-0.17,0-0.31-0.14-0.31-0.31s0.14-0.31,0.31-0.31h10.96c0.17,0,0.31,0.14,0.31,0.31
				S60.02,568.45,59.86,568.45z M48.9,568.08c-0.03,0-0.06,0.03-0.06,0.06s0.03,0.06,0.06,0.06h10.96c0.03,0,0.06-0.03,0.06-0.06
				s-0.03-0.06-0.06-0.06H48.9z"/>
		</g>
	</g>
	<g>
		<g>
			<path class="st0" d="M48.9,568.33c-0.1,0-0.18-0.08-0.18-0.18v-283.9c0-0.1,0.08-0.18,0.18-0.18s0.18,0.08,0.18,0.18v283.9
				C49.08,568.24,49,568.33,48.9,568.33z"/>
			<path class="st0" d="M48.9,568.45c-0.17,0-0.31-0.14-0.31-0.31v-283.9c0-0.17,0.14-0.31,0.31-0.31s0.31,0.14,0.31,0.31v283.9
				C49.21,568.31,49.07,568.45,48.9,568.45z M48.9,284.18c-0.03,0-0.06,0.03-0.06,0.06v283.9c0,0.06,0.12,0.06,0.12,0v-283.9
				C48.96,284.21,48.93,284.18,48.9,284.18z"/>
		</g>
	</g>
	<g>
		<g>
			<path class="st0" d="M68.98,284.42H48.9c-0.1,0-0.18-0.08-0.18-0.18s0.08-0.18,0.18-0.18h20.09c0.1,0,0.18,0.08,0.18,0.18
				S69.09,284.42,68.98,284.42z"/>
			<path class="st0" d="M68.98,284.55H48.9c-0.17,0-0.31-0.14-0.31-0.31s0.14-0.31,0.31-0.31h20.09c0.17,0,0.31,0.14,0.31,0.31
				S69.15,284.55,68.98,284.55z M48.9,284.18c-0.03,0-0.06,0.03-0.06,0.06s0.03,0.06,0.06,0.06h20.09c0.03,0,0.06-0.03,0.06-0.06
				s-0.03-0.06-0.06-0.06H48.9z"/>
		</g>
	</g>
	<g>
		<g>
			<path class="st0" d="M68.98,513.55h-9.13c-0.1,0-0.18-0.08-0.18-0.18s0.08-0.18,0.18-0.18h9.13c0.1,0,0.18,0.08,0.18,0.18
				S69.09,513.55,68.98,513.55z"/>
			<path class="st0" d="M68.98,513.68h-9.13c-0.17,0-0.31-0.14-0.31-0.31s0.14-0.31,0.31-0.31h9.13c0.17,0,0.31,0.14,0.31,0.31
				S69.15,513.68,68.98,513.68z M59.86,513.31c-0.03,0-0.06,0.03-0.06,0.06s0.03,0.06,0.06,0.06h9.13c0.03,0,0.06-0.03,0.06-0.06
				s-0.03-0.06-0.06-0.06H59.86z"/>
		</g>
	</g>
	<g>
		<g>
			<path class="st0" d="M59.85,568.33c-0.1,0-0.18-0.08-0.18-0.18v-54.77c0-0.1,0.08-0.18,0.18-0.18c0.1,0,0.18,0.08,0.18,0.18
				v54.77C60.04,568.24,59.96,568.33,59.85,568.33z"/>
			<path class="st0" d="M59.86,568.45c-0.17,0-0.31-0.14-0.31-0.31v-54.77c0-0.17,0.14-0.31,0.31-0.31s0.31,0.14,0.31,0.31v54.77
				C60.16,568.31,60.02,568.45,59.86,568.45z M59.86,513.31c-0.03,0-0.06,0.03-0.06,0.06v54.77c0,0.06,0.12,0.06,0.12,0v-54.77
				C59.91,513.34,59.89,513.31,59.86,513.31z"/>
		</g>
	</g>
	<g>
		<g>
			<path class="st0" d="M68.98,513.55c-0.1,0-0.18-0.08-0.18-0.18V284.24c0-0.1,0.08-0.18,0.18-0.18c0.1,0,0.18,0.08,0.18,0.18
				v229.13C69.17,513.47,69.09,513.55,68.98,513.55z"/>
			<path class="st0" d="M68.98,513.68c-0.17,0-0.31-0.14-0.31-0.31V284.24c0-0.17,0.14-0.31,0.31-0.31s0.31,0.14,0.31,0.31v229.13
				C69.29,513.54,69.15,513.68,68.98,513.68z M68.98,284.18c-0.03,0-0.06,0.03-0.06,0.06v229.13c0,0.06,0.12,0.06,0.12,0V284.24
				C69.04,284.21,69.02,284.18,68.98,284.18z"/>
		</g>
	</g>
	<g>
		<g>
			<path class="st0" d="M58.94,11.75c-2.07,0-3.75-1.68-3.75-3.75c0-2.06,1.68-3.74,3.75-3.74c2.06,0,3.74,1.68,3.74,3.74
				C62.68,10.07,61,11.75,58.94,11.75z M58.94,4.44c-1.96,0-3.56,1.6-3.56,3.56c0,1.96,1.6,3.56,3.56,3.56
				c1.96,0,3.56-1.6,3.56-3.56C62.5,6.04,60.9,4.44,58.94,4.44z"/>
			<path class="st0" d="M58.94,11.87c-2.13,0-3.87-1.74-3.87-3.87c0-2.13,1.74-3.87,3.87-3.87c2.13,0,3.87,1.73,3.87,3.87
				C62.81,10.13,61.07,11.87,58.94,11.87z M58.94,4.57c-1.9,0-3.44,1.54-3.44,3.43c0,1.9,1.54,3.44,3.44,3.44
				c1.89,0,3.43-1.54,3.43-3.44C62.37,6.11,60.83,4.57,58.94,4.57z"/>
		</g>
	</g>
	<g>
		<g>
			<path class="st0" d="M58.94,23.06c-2.07,0-3.75-1.68-3.75-3.74c0-2.07,1.68-3.75,3.75-3.75c2.06,0,3.74,1.68,3.74,3.75
				C62.68,21.39,61,23.06,58.94,23.06z M58.94,15.76c-1.96,0-3.56,1.6-3.56,3.56c0,1.96,1.6,3.56,3.56,3.56
				c1.96,0,3.56-1.6,3.56-3.56C62.5,17.36,60.9,15.76,58.94,15.76z"/>
			<path class="st0" d="M58.94,23.19c-2.13,0-3.87-1.73-3.87-3.87c0-2.13,1.74-3.87,3.87-3.87c2.13,0,3.87,1.74,3.87,3.87
				C62.81,21.45,61.07,23.19,58.94,23.19z M58.94,15.89c-1.9,0-3.44,1.54-3.44,3.44c0,1.89,1.54,3.43,3.44,3.43
				c1.89,0,3.43-1.54,3.43-3.43C62.37,17.43,60.83,15.89,58.94,15.89z"/>
		</g>
	</g>
	<g>
		<g>
			<path class="st0" d="M68.98,0.52H48.9c-0.1,0-0.18-0.08-0.18-0.18s0.08-0.18,0.18-0.18h20.09c0.1,0,0.18,0.08,0.18,0.18
				S69.09,0.52,68.98,0.52z"/>
			<path class="st0" d="M68.98,0.64H48.9c-0.17,0-0.31-0.14-0.31-0.31s0.14-0.31,0.31-0.31h20.09c0.17,0,0.31,0.14,0.31,0.31
				S69.15,0.64,68.98,0.64z M48.9,0.28c-0.03,0-0.06,0.03-0.06,0.06s0.03,0.06,0.06,0.06h20.09c0.03,0,0.06-0.03,0.06-0.06
				s-0.03-0.06-0.06-0.06H48.9z"/>
		</g>
	</g>
	<g>
		<g>
			<path class="st0" d="M48.9,284.42c-0.1,0-0.18-0.08-0.18-0.18V0.33c0-0.1,0.08-0.18,0.18-0.18s0.18,0.08,0.18,0.18v283.91
				C49.08,284.34,49,284.42,48.9,284.42z"/>
			<path class="st0" d="M48.9,284.55c-0.17,0-0.31-0.14-0.31-0.31V0.33c0-0.17,0.14-0.31,0.31-0.31s0.31,0.14,0.31,0.31v283.91
				C49.21,284.41,49.07,284.55,48.9,284.55z M48.9,0.28c-0.03,0-0.06,0.03-0.06,0.06v283.91c0,0.06,0.12,0.06,0.12,0V0.33
				C48.96,0.3,48.93,0.28,48.9,0.28z"/>
		</g>
	</g>
	<g>
		<g>
			<path class="st0" d="M68.98,284.42H48.9c-0.1,0-0.18-0.08-0.18-0.18s0.08-0.18,0.18-0.18h20.09c0.1,0,0.18,0.08,0.18,0.18
				S69.09,284.42,68.98,284.42z"/>
			<path class="st0" d="M68.98,284.55H48.9c-0.17,0-0.31-0.14-0.31-0.31s0.14-0.31,0.31-0.31h20.09c0.17,0,0.31,0.14,0.31,0.31
				S69.15,284.55,68.98,284.55z M48.9,284.18c-0.03,0-0.06,0.03-0.06,0.06s0.03,0.06,0.06,0.06h20.09c0.03,0,0.06-0.03,0.06-0.06
				s-0.03-0.06-0.06-0.06H48.9z"/>
		</g>
	</g>
	<g>
		<g>
			<path class="st0" d="M68.98,284.42c-0.1,0-0.18-0.08-0.18-0.18V0.33c0-0.1,0.08-0.18,0.18-0.18c0.1,0,0.18,0.08,0.18,0.18v283.91
				C69.17,284.34,69.09,284.42,68.98,284.42z"/>
			<path class="st0" d="M68.98,284.55c-0.17,0-0.31-0.14-0.31-0.31V0.33c0-0.17,0.14-0.31,0.31-0.31s0.31,0.14,0.31,0.31v283.91
				C69.29,284.41,69.15,284.55,68.98,284.55z M68.98,0.28c-0.03,0-0.06,0.03-0.06,0.06v283.91c0,0.06,0.12,0.06,0.12,0V0.33
				C69.04,0.3,69.02,0.28,68.98,0.28z"/>
		</g>
	</g>
	<g>
		<g>
			<path class="st0" d="M33.1,123.21c-0.04,0-0.08-0.03-0.09-0.07c-0.01-0.05,0.01-0.1,0.06-0.11l4.19-1.26
				c0.05-0.01,0.1,0.01,0.11,0.06c0.01,0.05-0.01,0.1-0.06,0.11l-4.19,1.26C33.12,123.21,33.11,123.21,33.1,123.21z"/>
			<path class="st0" d="M33.1,123.33c-0.1,0-0.18-0.06-0.21-0.15c-0.02-0.06-0.01-0.12,0.02-0.17s0.07-0.09,0.13-0.1l4.19-1.26
				c0.12-0.03,0.24,0.03,0.27,0.14c0.02,0.06,0.01,0.12-0.02,0.17s-0.07,0.09-0.13,0.1L33.1,123.33z"/>
		</g>
	</g>
	<g>
		<g>
			<path class="st0" d="M37.29,121.94c-0.04,0-0.08-0.03-0.09-0.06c-0.01-0.05,0.01-0.1,0.06-0.11c0.53-0.16,0.83-0.73,0.67-1.25
				c-0.02-0.05,0.01-0.1,0.06-0.11c0.05-0.01,0.1,0.01,0.11,0.06c0.19,0.62-0.16,1.29-0.79,1.48
				C37.31,121.94,37.3,121.94,37.29,121.94z"/>
			<path class="st0" d="M37.29,122.07c-0.09,0-0.18-0.06-0.21-0.15c-0.02-0.06-0.01-0.12,0.02-0.17c0.03-0.05,0.07-0.09,0.13-0.11
				c0.46-0.14,0.73-0.63,0.59-1.1c-0.03-0.11,0.03-0.23,0.14-0.27c0.12-0.03,0.24,0.03,0.27,0.14c0.21,0.69-0.18,1.43-0.87,1.64
				L37.29,122.07z"/>
		</g>
	</g>
	<g>
		<g>
			<path class="st0" d="M38.02,120.58c-0.04,0-0.08-0.03-0.09-0.07L22.75,70.17c-0.01-0.05,0.01-0.1,0.06-0.11
				c0.05-0.01,0.1,0.01,0.11,0.06l15.19,50.34c0.01,0.05-0.01,0.1-0.06,0.11C38.04,120.57,38.03,120.58,38.02,120.58z"/>
			<path class="st0" d="M38.02,120.7c-0.1,0-0.18-0.06-0.21-0.16L22.63,70.2c-0.03-0.12,0.03-0.24,0.15-0.27
				c0.05-0.02,0.11-0.01,0.16,0.02c0.05,0.03,0.09,0.07,0.1,0.13l15.19,50.34c0.03,0.11-0.03,0.24-0.14,0.27L38.02,120.7z
				 M38.02,120.56v0.01V120.56z M38.05,120.47L38.05,120.47L38.05,120.47z M22.8,70.15L22.8,70.15L22.8,70.15L22.8,70.15z"/>
		</g>
	</g>
	<g>
		<g>
			<path class="st0" d="M22.84,70.23c-0.04,0-0.08-0.03-0.09-0.07c-0.16-0.53-0.72-0.83-1.25-0.67c-0.05,0.01-0.1-0.01-0.11-0.06
				c-0.01-0.05,0.01-0.1,0.06-0.11c0.63-0.19,1.29,0.17,1.48,0.79c0.01,0.05-0.01,0.1-0.06,0.11
				C22.85,70.23,22.84,70.23,22.84,70.23z"/>
			<path class="st0" d="M22.84,70.36c-0.1,0-0.18-0.06-0.21-0.15c-0.07-0.22-0.22-0.41-0.43-0.52c-0.21-0.11-0.44-0.14-0.67-0.07
				c-0.06,0.02-0.12,0.01-0.17-0.02c-0.05-0.03-0.09-0.07-0.1-0.13c-0.03-0.11,0.03-0.23,0.15-0.27c0.69-0.21,1.43,0.19,1.63,0.88
				c0.03,0.11-0.03,0.24-0.14,0.27L22.84,70.36z"/>
		</g>
	</g>
	<g>
		<g>
			<path class="st0" d="M17.28,70.77c-0.04,0-0.08-0.03-0.09-0.07c-0.01-0.05,0.01-0.1,0.06-0.11l4.2-1.26
				c0.05-0.01,0.1,0.01,0.11,0.06c0.01,0.05-0.01,0.1-0.06,0.11l-4.2,1.26C17.29,70.77,17.28,70.77,17.28,70.77z"/>
			<path class="st0" d="M17.28,70.89c-0.1,0-0.18-0.06-0.21-0.15c-0.03-0.12,0.03-0.24,0.14-0.27l4.2-1.26
				c0.12-0.04,0.24,0.03,0.27,0.15c0.02,0.06,0.01,0.11-0.02,0.17c-0.03,0.05-0.07,0.09-0.13,0.1L17.28,70.89z"/>
		</g>
	</g>
	<g>
		<g>
			<path class="st0" d="M48.9,26.81H3.99c-0.1,0-0.18-0.08-0.18-0.18s0.08-0.18,0.18-0.18H48.9c0.1,0,0.18,0.08,0.18,0.18
				S49,26.81,48.9,26.81z"/>
			<path class="st0" d="M48.9,26.93H3.99c-0.17,0-0.31-0.14-0.31-0.31s0.14-0.31,0.31-0.31H48.9c0.17,0,0.31,0.14,0.31,0.31
				S49.07,26.93,48.9,26.93z M3.99,26.57c-0.03,0-0.06,0.03-0.06,0.06s0.03,0.06,0.06,0.06H48.9c0.03,0,0.06-0.03,0.06-0.06
				s-0.03-0.06-0.06-0.06H3.99z"/>
		</g>
	</g>
	<g>
		<g>
			<path class="st0" d="M48.9,175.68c-0.08,0-0.15-0.05-0.18-0.13l-15.8-52.38c-0.03-0.1,0.03-0.2,0.12-0.23
				c0.1-0.03,0.2,0.03,0.23,0.12l15.8,52.38c0.03,0.1-0.03,0.2-0.12,0.23C48.93,175.68,48.92,175.68,48.9,175.68z"/>
			<path class="st0" d="M48.9,175.8c-0.13,0-0.26-0.09-0.29-0.22l-15.8-52.38c-0.02-0.08-0.02-0.17,0.02-0.24
				c0.04-0.07,0.1-0.12,0.18-0.15c0.17-0.04,0.33,0.04,0.38,0.21l15.8,52.38c0.02,0.08,0.02,0.16-0.02,0.23
				c-0.04,0.07-0.1,0.13-0.18,0.15C48.96,175.8,48.93,175.8,48.9,175.8z M33.1,123.06c-0.01,0-0.01,0-0.02,0
				c-0.02,0-0.03,0.02-0.03,0.03c-0.01,0.01-0.01,0.03,0,0.05l15.8,52.38c0.01,0.02,0.03,0.04,0.06,0.04c0,0,0.01,0,0.02,0
				c0.02-0.01,0.03-0.02,0.03-0.03c0-0.01,0.01-0.02,0-0.04l-15.8-52.38C33.15,123.07,33.12,123.06,33.1,123.06z"/>
		</g>
	</g>
	<g>
		<g>
			<path class="st0" d="M17.28,70.86c-0.08,0-0.15-0.05-0.18-0.13L3.81,26.68c-0.03-0.1,0.03-0.2,0.12-0.23
				c0.1-0.03,0.2,0.03,0.23,0.12l13.29,44.05c0.03,0.1-0.03,0.2-0.12,0.23C17.31,70.86,17.29,70.86,17.28,70.86z"/>
			<path class="st0" d="M17.28,70.98c-0.14,0-0.26-0.09-0.3-0.22L3.69,26.71c-0.02-0.08-0.02-0.16,0.02-0.23
				c0.04-0.07,0.1-0.13,0.18-0.15c0.17-0.04,0.33,0.04,0.38,0.21l13.29,44.05c0.02,0.08,0.02,0.16-0.02,0.24
				c-0.04,0.07-0.1,0.13-0.18,0.15C17.34,70.98,17.31,70.98,17.28,70.98z M3.99,26.57c-0.01,0-0.01,0-0.02,0
				c-0.02,0.01-0.04,0.05-0.04,0.07l13.29,44.05c0.01,0.03,0.04,0.05,0.07,0.04c0.02-0.01,0.03-0.02,0.04-0.03s0.01-0.02,0-0.04
				L4.04,26.61C4.03,26.58,4.01,26.57,3.99,26.57z"/>
		</g>
	</g>
	<g>
		<g>
			<path class="st0" d="M48.9,175.68c-0.08,0-0.15-0.05-0.18-0.13L3.81,26.68c-0.03-0.1,0.03-0.2,0.12-0.23
				c0.1-0.03,0.2,0.03,0.23,0.12l44.91,148.87c0.03,0.1-0.03,0.2-0.12,0.23C48.93,175.68,48.92,175.68,48.9,175.68z"/>
			<path class="st0" d="M48.9,175.8c-0.13,0-0.26-0.09-0.29-0.22L3.69,26.71c-0.02-0.08-0.02-0.16,0.02-0.23
				c0.04-0.07,0.1-0.13,0.18-0.15c0.17-0.04,0.33,0.04,0.38,0.21l44.91,148.87c0.02,0.08,0.02,0.16-0.02,0.23
				c-0.04,0.07-0.1,0.13-0.18,0.15C48.96,175.8,48.93,175.8,48.9,175.8z M3.99,26.57c-0.01,0-0.01,0-0.02,0
				c-0.02,0.01-0.04,0.05-0.04,0.07l44.91,148.87c0.01,0.02,0.03,0.04,0.06,0.04c0,0,0.01,0,0.02,0c0.02-0.01,0.03-0.02,0.03-0.03
				c0-0.01,0.01-0.02,0-0.04L4.04,26.61C4.03,26.58,4.01,26.57,3.99,26.57z"/>
		</g>
	</g>
	<g>
		<g>
			<path class="st0" d="M48.9,245.9H0.33c-0.1,0-0.18-0.08-0.18-0.18V26.63c0-0.1,0.08-0.18,0.18-0.18h3.65
				c0.1,0,0.18,0.08,0.18,0.18s-0.08,0.18-0.18,0.18H0.52v218.73H48.9c0.1,0,0.18,0.08,0.18,0.18S49,245.9,48.9,245.9z"/>
			<path class="st0" d="M48.9,246.02H0.33c-0.17,0-0.31-0.14-0.31-0.31V26.63c0-0.17,0.14-0.31,0.31-0.31h3.65
				c0.17,0,0.31,0.14,0.31,0.31s-0.14,0.31-0.31,0.31H0.64v218.48H48.9c0.17,0,0.31,0.14,0.31,0.31S49.07,246.02,48.9,246.02z
				 M0.33,26.57c-0.03,0-0.06,0.03-0.06,0.06v219.09c0,0.03,0.03,0.06,0.06,0.06H48.9c0.03,0,0.06-0.03,0.06-0.06
				s-0.03-0.06-0.06-0.06H0.39V26.68h3.6c0.03,0,0.06-0.03,0.06-0.06s-0.03-0.06-0.06-0.06H0.33z"/>
		</g>
	</g>
	<g>
		<g>
			<path class="st0" d="M48.9,245.9H0.33c-0.1,0-0.18-0.08-0.18-0.18s0.08-0.18,0.18-0.18H48.9c0.1,0,0.18,0.08,0.18,0.18
				S49,245.9,48.9,245.9z"/>
			<path class="st0" d="M48.9,246.02H0.33c-0.17,0-0.31-0.14-0.31-0.31s0.14-0.31,0.31-0.31H48.9c0.17,0,0.31,0.14,0.31,0.31
				S49.07,246.02,48.9,246.02z M0.33,245.66c-0.03,0-0.06,0.03-0.06,0.06s0.03,0.06,0.06,0.06H48.9c0.03,0,0.06-0.03,0.06-0.06
				s-0.03-0.06-0.06-0.06H0.33z"/>
		</g>
	</g>
	<g>
		<g>
			<path class="st0" d="M3.99,26.81H0.33c-0.1,0-0.18-0.08-0.18-0.18s0.08-0.18,0.18-0.18h3.65c0.1,0,0.18,0.08,0.18,0.18
				S4.09,26.81,3.99,26.81z"/>
			<path class="st0" d="M3.99,26.93H0.33c-0.17,0-0.31-0.14-0.31-0.31s0.14-0.31,0.31-0.31h3.65c0.17,0,0.31,0.14,0.31,0.31
				S4.16,26.93,3.99,26.93z M0.33,26.57c-0.03,0-0.06,0.03-0.06,0.06s0.03,0.06,0.06,0.06h3.65c0.03,0,0.06-0.03,0.06-0.06
				s-0.03-0.06-0.06-0.06H0.33z"/>
		</g>
	</g>
	<g>
		<g>
			<path class="st0" d="M48.9,175.68c-0.08,0-0.15-0.05-0.18-0.13L3.81,26.68c-0.03-0.1,0.03-0.2,0.12-0.23
				c0.1-0.03,0.2,0.03,0.23,0.12l44.91,148.87c0.03,0.1-0.03,0.2-0.12,0.23C48.93,175.68,48.92,175.68,48.9,175.68z"/>
			<path class="st0" d="M48.9,175.8c-0.13,0-0.26-0.09-0.29-0.22L3.69,26.71c-0.02-0.08-0.02-0.16,0.02-0.23
				c0.04-0.07,0.1-0.13,0.18-0.15c0.17-0.04,0.33,0.04,0.38,0.21l44.91,148.87c0.02,0.08,0.02,0.16-0.02,0.23
				c-0.04,0.07-0.1,0.13-0.18,0.15C48.96,175.8,48.93,175.8,48.9,175.8z M3.99,26.57c-0.01,0-0.01,0-0.02,0
				c-0.02,0.01-0.04,0.05-0.04,0.07l44.91,148.87c0.01,0.02,0.03,0.04,0.06,0.04c0,0,0.01,0,0.02,0c0.02-0.01,0.03-0.02,0.03-0.03
				c0-0.01,0.01-0.02,0-0.04L4.04,26.61C4.03,26.58,4.01,26.57,3.99,26.57z"/>
		</g>
	</g>
	<g>
		<g>
			<path class="st0" d="M59.3,477.31c-0.05,0-0.09-0.04-0.09-0.09v-0.73c0-0.05,0.04-0.09,0.09-0.09s0.09,0.04,0.09,0.09v0.73
				C59.4,477.27,59.35,477.31,59.3,477.31z"/>
			<path class="st0" d="M59.3,477.44c-0.12,0-0.22-0.1-0.22-0.22v-0.73c0-0.12,0.1-0.22,0.22-0.22c0.12,0,0.22,0.1,0.22,0.22v0.73
				C59.52,477.34,59.42,477.44,59.3,477.44z"/>
		</g>
	</g>
	<g>
		<g>
			<path class="st0" d="M63.14,474.75h-1.46c-0.05,0-0.09-0.04-0.09-0.09s0.04-0.09,0.09-0.09h1.46c0.05,0,0.09,0.04,0.09,0.09
				S63.19,474.75,63.14,474.75z"/>
			<path class="st0" d="M63.14,474.88h-1.46c-0.12,0-0.22-0.1-0.22-0.22s0.1-0.22,0.22-0.22h1.46c0.12,0,0.22,0.1,0.22,0.22
				S63.26,474.88,63.14,474.88z"/>
		</g>
	</g>
	<g>
		<g>
			<path class="st0" d="M63.14,474.75c-0.02,0-0.04-0.01-0.06-0.02l-0.31-0.25c-0.04-0.03-0.04-0.09-0.01-0.13
				c0.03-0.04,0.09-0.04,0.13-0.01l0.31,0.25c0.04,0.03,0.04,0.09,0.01,0.13C63.19,474.74,63.17,474.75,63.14,474.75z"/>
			<path class="st0" d="M63.14,474.88c-0.05,0-0.1-0.02-0.14-0.05l-0.31-0.25c-0.09-0.08-0.11-0.21-0.03-0.3
				c0.08-0.09,0.21-0.11,0.31-0.03l0.31,0.25c0.09,0.08,0.11,0.21,0.03,0.3C63.27,474.85,63.21,474.88,63.14,474.88z M62.81,474.44
				L62.81,474.44L62.81,474.44z"/>
		</g>
	</g>
	<g>
		<g>
			<path class="st0" d="M61.68,477.31h-1.46c-0.05,0-0.09-0.04-0.09-0.09s0.04-0.09,0.09-0.09h1.46c0.05,0,0.09,0.04,0.09,0.09
				S61.73,477.31,61.68,477.31z"/>
			<path class="st0" d="M61.68,477.44h-1.46c-0.12,0-0.22-0.1-0.22-0.22s0.1-0.22,0.22-0.22h1.46c0.12,0,0.22,0.1,0.22,0.22
				S61.8,477.44,61.68,477.44z"/>
		</g>
	</g>
	<g>
		<g>
			<path class="st0" d="M63.14,479.87h-1.46c-0.05,0-0.09-0.04-0.09-0.09s0.04-0.09,0.09-0.09h1.46c0.05,0,0.09,0.04,0.09,0.09
				S63.19,479.87,63.14,479.87z"/>
			<path class="st0" d="M63.14,479.99h-1.46c-0.12,0-0.22-0.1-0.22-0.22s0.1-0.22,0.22-0.22h1.46c0.12,0,0.22,0.1,0.22,0.22
				S63.26,479.99,63.14,479.99z"/>
		</g>
	</g>
	<g>
		<g>
			<path class="st0" d="M63.14,479.87c-0.05,0-0.09-0.04-0.09-0.09v-0.73c0-0.05,0.04-0.09,0.09-0.09c0.05,0,0.09,0.04,0.09,0.09
				v0.73C63.23,479.83,63.19,479.87,63.14,479.87z"/>
			<path class="st0" d="M63.14,479.99c-0.12,0-0.22-0.1-0.22-0.22v-0.73c0-0.12,0.1-0.22,0.22-0.22c0.12,0,0.22,0.1,0.22,0.22v0.73
				C63.36,479.9,63.26,479.99,63.14,479.99z"/>
		</g>
	</g>
	<g>
		<g>
			<path class="st0" d="M63.14,479.87c-0.02,0-0.04-0.01-0.06-0.02l-0.31-0.26c-0.04-0.03-0.04-0.09-0.01-0.13
				c0.03-0.04,0.09-0.04,0.13-0.01l0.31,0.26c0.04,0.03,0.04,0.09,0.01,0.13C63.19,479.86,63.17,479.87,63.14,479.87z"/>
			<path class="st0" d="M63.14,479.99c-0.05,0-0.1-0.02-0.14-0.05l-0.31-0.26c-0.04-0.04-0.07-0.09-0.08-0.15
				c-0.01-0.06,0.01-0.11,0.05-0.16c0.08-0.09,0.22-0.1,0.31-0.03l0.31,0.26c0.09,0.08,0.1,0.21,0.03,0.3
				C63.26,479.97,63.2,479.99,63.14,479.99z M62.81,479.55C62.81,479.55,62.81,479.55,62.81,479.55L62.81,479.55z"/>
		</g>
	</g>
	<g>
		<g>
			<path class="st0" d="M62.83,479.61c-0.05,0-0.09-0.04-0.09-0.09v-0.22c0-0.05,0.04-0.09,0.09-0.09c0.05,0,0.09,0.04,0.09,0.09
				v0.22C62.92,479.57,62.88,479.61,62.83,479.61z"/>
			<path class="st0" d="M62.83,479.74c-0.12,0-0.22-0.1-0.22-0.22v-0.22c0-0.12,0.1-0.22,0.22-0.22c0.12,0,0.22,0.1,0.22,0.22v0.22
				C63.05,479.64,62.95,479.74,62.83,479.74z"/>
		</g>
	</g>
	<g>
		<g>
			<path class="st0" d="M62.83,479.61h-0.84c-0.05,0-0.09-0.04-0.09-0.09s0.04-0.09,0.09-0.09h0.84c0.05,0,0.09,0.04,0.09,0.09
				S62.88,479.61,62.83,479.61z"/>
			<path class="st0" d="M62.83,479.74h-0.84c-0.12,0-0.22-0.1-0.22-0.22s0.1-0.22,0.22-0.22h0.84c0.12,0,0.22,0.1,0.22,0.22
				S62.95,479.74,62.83,479.74z"/>
		</g>
	</g>
	<g>
		<g>
			<path class="st0" d="M58.03,473.51c-0.1,0-0.18-0.08-0.18-0.18c0-0.93,0.75-1.68,1.68-1.68c0.1,0,0.18,0.08,0.18,0.18
				s-0.08,0.18-0.18,0.18c-0.72,0-1.31,0.59-1.31,1.32C58.21,473.43,58.13,473.51,58.03,473.51z"/>
			<path class="st0" d="M58.03,473.64c-0.17,0-0.31-0.14-0.31-0.31c0-1,0.81-1.81,1.8-1.81c0.17,0,0.31,0.14,0.31,0.31
				s-0.14,0.31-0.31,0.31c-0.65,0-1.19,0.53-1.19,1.19C58.34,473.5,58.2,473.64,58.03,473.64z M59.52,471.77
				c-0.86,0-1.55,0.7-1.55,1.56c0,0.06,0.12,0.06,0.12,0c0-0.79,0.64-1.44,1.44-1.44c0.03,0,0.06-0.03,0.06-0.06
				S59.56,471.77,59.52,471.77z"/>
		</g>
	</g>
	<g>
		<g>
			<path class="st0" d="M63.83,472.02h-4.31c-0.1,0-0.18-0.08-0.18-0.18s0.08-0.18,0.18-0.18h4.31c0.1,0,0.18,0.08,0.18,0.18
				S63.94,472.02,63.83,472.02z"/>
			<path class="st0" d="M63.83,472.14h-4.31c-0.17,0-0.31-0.14-0.31-0.31s0.14-0.31,0.31-0.31h4.31c0.17,0,0.31,0.14,0.31,0.31
				S64,472.14,63.83,472.14z M59.52,471.77c-0.03,0-0.06,0.03-0.06,0.06s0.03,0.06,0.06,0.06h4.31c0.03,0,0.06-0.03,0.06-0.06
				s-0.03-0.06-0.06-0.06H59.52z"/>
		</g>
	</g>
	<g>
		<g>
			<path class="st0" d="M65.33,473.51c-0.1,0-0.18-0.08-0.18-0.18c0-0.73-0.59-1.32-1.32-1.32c-0.1,0-0.18-0.08-0.18-0.18
				s0.08-0.18,0.18-0.18c0.93,0,1.68,0.75,1.68,1.68C65.52,473.43,65.43,473.51,65.33,473.51z"/>
			<path class="st0" d="M65.33,473.64c-0.17,0-0.31-0.14-0.31-0.31c0-0.66-0.53-1.19-1.19-1.19c-0.17,0-0.31-0.14-0.31-0.31
				s0.14-0.31,0.31-0.31c1,0,1.81,0.81,1.81,1.81C65.64,473.5,65.5,473.64,65.33,473.64z M63.83,471.77c-0.03,0-0.06,0.03-0.06,0.06
				s0.03,0.06,0.06,0.06c0.79,0,1.44,0.65,1.44,1.44c0,0.06,0.12,0.06,0.12,0C65.39,472.47,64.69,471.77,63.83,471.77z"/>
		</g>
	</g>
	<g>
		<g>
			<path class="st0" d="M61.68,484.85c-0.02,0-0.05-0.01-0.06-0.03c-0.04-0.04-0.04-0.09,0-0.13l0.54-0.54l-0.54-0.54
				c-0.04-0.04-0.04-0.09,0-0.13c0.04-0.04,0.09-0.04,0.13,0l0.6,0.6c0.04,0.04,0.04,0.09,0,0.13l-0.6,0.6
				C61.73,484.84,61.7,484.85,61.68,484.85z"/>
			<path class="st0" d="M61.68,484.98c-0.06,0-0.11-0.02-0.15-0.07c-0.04-0.04-0.06-0.09-0.06-0.15c0-0.06,0.02-0.11,0.06-0.15
				l0.45-0.45l-0.45-0.45c-0.04-0.04-0.06-0.09-0.06-0.15c0-0.06,0.02-0.11,0.06-0.15c0.09-0.08,0.22-0.09,0.31,0l0.6,0.61
				c0.04,0.04,0.06,0.1,0.06,0.15c0,0.06-0.02,0.11-0.06,0.15l-0.6,0.6C61.79,484.96,61.74,484.98,61.68,484.98z M61.66,484.74
				C61.65,484.74,61.65,484.74,61.66,484.74L61.66,484.74z"/>
		</g>
	</g>
	<g>
		<g>
			<path class="st0" d="M61.68,470.24c-0.02,0-0.05-0.01-0.07-0.03c-0.04-0.04-0.04-0.09,0-0.13l0.54-0.53l-0.54-0.54
				c-0.04-0.04-0.04-0.09,0-0.13c0.04-0.04,0.09-0.04,0.13,0l0.6,0.6c0.02,0.02,0.03,0.04,0.03,0.07c0,0.02-0.01,0.05-0.03,0.07
				l-0.6,0.6C61.73,470.23,61.7,470.24,61.68,470.24z"/>
			<path class="st0" d="M61.68,470.37c-0.06,0-0.11-0.02-0.15-0.06c-0.04-0.04-0.06-0.1-0.06-0.16c0-0.06,0.02-0.11,0.06-0.15
				l0.45-0.44l-0.45-0.45c-0.08-0.08-0.08-0.22,0-0.31c0.08-0.08,0.23-0.08,0.31,0l0.6,0.6c0.04,0.04,0.06,0.1,0.06,0.15
				c0,0.06-0.02,0.11-0.06,0.15l-0.6,0.6C61.79,470.34,61.74,470.37,61.68,470.37z"/>
		</g>
	</g>
	<g>
		<g>
			<path class="st0" d="M61.67,485.79c-0.81,0-1.59-0.41-2.03-1.14c-0.05-0.09-0.02-0.2,0.06-0.25c0.09-0.05,0.2-0.02,0.25,0.06
				c0.57,0.95,1.81,1.26,2.76,0.69l0.71-0.72c0.07-0.07,0.19-0.07,0.26,0c0.07,0.07,0.07,0.19,0,0.26l-0.75,0.75
				C62.54,485.68,62.1,485.79,61.67,485.79z"/>
			<path class="st0" d="M61.67,485.92c-0.88,0-1.68-0.45-2.13-1.2c-0.09-0.15-0.04-0.33,0.1-0.42c0.15-0.09,0.34-0.04,0.42,0.1
				c0.26,0.43,0.67,0.74,1.16,0.86c0.49,0.12,0.99,0.05,1.42-0.21l0.69-0.7c0.06-0.06,0.14-0.09,0.22-0.09c0,0,0,0,0,0
				c0.08,0,0.16,0.03,0.22,0.09c0.06,0.06,0.09,0.13,0.09,0.22c0,0.08-0.03,0.16-0.09,0.22l-0.75,0.75
				C62.6,485.79,62.14,485.92,61.67,485.92z M59.8,484.5c-0.01,0-0.02,0-0.03,0.01c-0.03,0.02-0.04,0.05-0.02,0.08
				c0.41,0.68,1.13,1.08,1.92,1.08c0.42,0,0.84-0.12,1.2-0.34l0.73-0.73c0.01-0.02,0.02-0.03,0.02-0.04c0-0.01,0-0.03-0.02-0.04
				c-0.02-0.02-0.03-0.02-0.04-0.02h0c-0.02,0-0.03,0.01-0.04,0.02l-0.71,0.72c-0.51,0.31-1.08,0.4-1.64,0.26
				c-0.55-0.14-1.02-0.48-1.32-0.97C59.84,484.51,59.82,484.5,59.8,484.5z"/>
		</g>
	</g>
	<g>
		<g>
			<path class="st0" d="M62.83,474.28c-0.03,0-0.05-0.01-0.07-0.03c-0.03-0.04-0.03-0.1,0.01-0.13l0.31-0.26
				c0.04-0.03,0.1-0.03,0.13,0.01c0.03,0.04,0.03,0.1-0.01,0.13l-0.31,0.26C62.87,474.27,62.85,474.28,62.83,474.28z"/>
			<path class="st0" d="M62.83,474.41c-0.06,0-0.12-0.03-0.17-0.08c-0.04-0.04-0.06-0.1-0.05-0.16s0.03-0.11,0.08-0.15l0.31-0.26
				c0.04-0.04,0.1-0.06,0.15-0.05c0.06,0,0.11,0.03,0.15,0.08c0.08,0.09,0.07,0.23-0.03,0.31l-0.31,0.26
				C62.93,474.39,62.88,474.41,62.83,474.41z M62.81,474.16C62.81,474.16,62.81,474.16,62.81,474.16L62.81,474.16z"/>
		</g>
	</g>
	<g>
		<g>
			<path class="st0" d="M59.38,477.31H59.3c-0.05,0-0.09-0.04-0.09-0.09s0.04-0.09,0.09-0.09h0.08c0.05,0,0.09,0.04,0.09,0.09
				S59.43,477.31,59.38,477.31z"/>
			<path class="st0" d="M59.38,477.44H59.3c-0.12,0-0.22-0.1-0.22-0.22s0.1-0.22,0.22-0.22h0.08c0.12,0,0.22,0.1,0.22,0.22
				S59.5,477.44,59.38,477.44z"/>
		</g>
	</g>
	<g>
		<g>
			<path class="st0" d="M61.99,479.61c-0.05,0-0.09-0.04-0.09-0.09v-0.22c0-0.05,0.04-0.09,0.09-0.09c0.05,0,0.09,0.04,0.09,0.09
				v0.22C62.08,479.57,62.04,479.61,61.99,479.61z"/>
			<path class="st0" d="M61.99,479.74c-0.12,0-0.22-0.1-0.22-0.22v-0.22c0-0.12,0.1-0.22,0.22-0.22c0.12,0,0.22,0.1,0.22,0.22v0.22
				C62.2,479.64,62.11,479.74,61.99,479.74z"/>
		</g>
	</g>
	<g>
		<g>
			<path class="st0" d="M61.68,479.87c-0.03,0-0.05-0.01-0.07-0.03c-0.03-0.04-0.03-0.1,0.01-0.13l0.31-0.26
				c0.04-0.03,0.1-0.03,0.13,0.01c0.03,0.04,0.03,0.1-0.01,0.13l-0.31,0.26C61.72,479.86,61.7,479.87,61.68,479.87z"/>
			<path class="st0" d="M61.68,479.99c-0.06,0-0.12-0.03-0.17-0.08c-0.04-0.04-0.06-0.1-0.05-0.16c0.01-0.06,0.03-0.11,0.08-0.15
				l0.31-0.26c0.09-0.08,0.22-0.07,0.3,0.03c0.04,0.05,0.06,0.1,0.05,0.16c-0.01,0.06-0.03,0.11-0.08,0.15l-0.31,0.26
				C61.78,479.98,61.73,479.99,61.68,479.99z M61.66,479.75C61.66,479.75,61.66,479.75,61.66,479.75L61.66,479.75z M62.01,479.55
				L62.01,479.55L62.01,479.55z"/>
		</g>
	</g>
	<g>
		<g>
			<path class="st0" d="M61.68,479.87c-0.05,0-0.09-0.04-0.09-0.09v-0.73c0-0.05,0.04-0.09,0.09-0.09c0.05,0,0.09,0.04,0.09,0.09
				v0.73C61.77,479.83,61.73,479.87,61.68,479.87z"/>
			<path class="st0" d="M61.68,479.99c-0.12,0-0.22-0.1-0.22-0.22v-0.73c0-0.12,0.1-0.22,0.22-0.22c0.12,0,0.22,0.1,0.22,0.22v0.73
				C61.9,479.9,61.8,479.99,61.68,479.99z"/>
		</g>
	</g>
	<g>
		<g>
			<path class="st0" d="M62.04,477.31c-0.05,0-0.09-0.04-0.09-0.09v-0.73c0-0.05,0.04-0.09,0.09-0.09c0.05,0,0.09,0.04,0.09,0.09
				v0.73C62.14,477.27,62.09,477.31,62.04,477.31z"/>
			<path class="st0" d="M62.04,477.44c-0.12,0-0.22-0.1-0.22-0.22v-0.73c0-0.12,0.1-0.22,0.22-0.22c0.12,0,0.22,0.1,0.22,0.22v0.73
				C62.26,477.34,62.16,477.44,62.04,477.44z"/>
		</g>
	</g>
	<g>
		<g>
			<path class="st0" d="M62.04,477.31h-0.37c-0.05,0-0.09-0.04-0.09-0.09s0.04-0.09,0.09-0.09h0.37c0.05,0,0.09,0.04,0.09,0.09
				S62.09,477.31,62.04,477.31z"/>
			<path class="st0" d="M62.04,477.44h-0.37c-0.12,0-0.22-0.1-0.22-0.22s0.1-0.22,0.22-0.22h0.37c0.12,0,0.22,0.1,0.22,0.22
				S62.16,477.44,62.04,477.44z"/>
		</g>
	</g>
	<g>
		<g>
			<path class="st0" d="M65.33,480.56c-0.1,0-0.18-0.08-0.18-0.18v-7.05c0-0.1,0.08-0.18,0.18-0.18c0.1,0,0.18,0.08,0.18,0.18v7.05
				C65.52,480.48,65.43,480.56,65.33,480.56z"/>
			<path class="st0" d="M65.33,480.69c-0.17,0-0.31-0.14-0.31-0.31v-7.04c0-0.17,0.14-0.31,0.31-0.31s0.31,0.14,0.31,0.31v7.04
				C65.64,480.55,65.5,480.69,65.33,480.69z M65.33,473.27c-0.03,0-0.06,0.03-0.06,0.06v7.04c0,0.07,0.12,0.06,0.12,0v-7.04
				C65.39,473.3,65.36,473.27,65.33,473.27z"/>
		</g>
	</g>
	<g>
		<g>
			<path class="st0" d="M63.83,482.06c-0.1,0-0.18-0.08-0.18-0.18s0.08-0.18,0.18-0.18c0.73,0,1.32-0.59,1.32-1.32
				c0-0.1,0.08-0.18,0.18-0.18c0.1,0,0.18,0.08,0.18,0.18C65.52,481.31,64.76,482.06,63.83,482.06z"/>
			<path class="st0" d="M63.83,482.18c-0.17,0-0.31-0.14-0.31-0.31s0.14-0.31,0.31-0.31c0.66,0,1.19-0.53,1.19-1.19
				c0-0.17,0.14-0.31,0.31-0.31s0.31,0.14,0.31,0.31C65.64,481.37,64.83,482.18,63.83,482.18z M65.33,480.32
				c-0.03,0-0.06,0.03-0.06,0.06c0,0.79-0.65,1.44-1.44,1.44c-0.03,0-0.06,0.03-0.06,0.06s0.03,0.06,0.06,0.06
				c0.86,0,1.56-0.7,1.56-1.56C65.39,480.34,65.36,480.32,65.33,480.32z"/>
		</g>
	</g>
	<g>
		<g>
			<path class="st0" d="M61.68,484.85c-0.02,0-0.05-0.01-0.06-0.03l-0.6-0.6c-0.04-0.04-0.04-0.09,0-0.13l0.6-0.6
				c0.04-0.04,0.09-0.04,0.13,0c0.04,0.04,0.04,0.09,0,0.13l-0.54,0.54l0.54,0.54c0.04,0.04,0.04,0.09,0,0.13
				C61.73,484.84,61.7,484.85,61.68,484.85z"/>
			<path class="st0" d="M61.68,484.98c-0.06,0-0.11-0.02-0.15-0.07l-0.6-0.6c-0.04-0.04-0.06-0.09-0.06-0.15
				c0-0.06,0.02-0.11,0.06-0.15l0.6-0.61c0.09-0.08,0.22-0.08,0.31,0c0.04,0.04,0.06,0.1,0.06,0.15c0,0.06-0.02,0.11-0.06,0.15
				l-0.45,0.45l0.45,0.45c0.04,0.04,0.06,0.1,0.06,0.15c0,0.06-0.02,0.11-0.06,0.15C61.79,484.96,61.74,484.98,61.68,484.98z"/>
		</g>
	</g>
	<g>
		<g>
			<path class="st0" d="M65.77,480.52c-0.1,0-0.18-0.08-0.18-0.18v-6.97c0-0.1,0.08-0.18,0.18-0.18s0.18,0.08,0.18,0.18v6.97
				C65.95,480.44,65.87,480.52,65.77,480.52z"/>
			<path class="st0" d="M65.77,480.65c-0.17,0-0.31-0.14-0.31-0.31v-6.97c0-0.17,0.14-0.31,0.31-0.31s0.31,0.14,0.31,0.31v6.97
				C66.08,480.51,65.94,480.65,65.77,480.65z M65.77,473.31c-0.03,0-0.06,0.03-0.06,0.06v6.97c0,0.06,0.12,0.06,0.12,0v-6.97
				C65.83,473.34,65.8,473.31,65.77,473.31z"/>
		</g>
	</g>
	<g>
		<g>
			<path class="st0" d="M63.74,472.6h-3.21c-0.1,0-0.18-0.08-0.18-0.18s0.08-0.18,0.18-0.18h3.21c0.1,0,0.18,0.08,0.18,0.18
				S63.85,472.6,63.74,472.6z"/>
			<path class="st0" d="M63.74,472.73h-3.21c-0.17,0-0.31-0.14-0.31-0.31s0.14-0.31,0.31-0.31h3.21c0.17,0,0.31,0.14,0.31,0.31
				S63.91,472.73,63.74,472.73z M60.53,472.36c-0.03,0-0.06,0.03-0.06,0.06s0.03,0.06,0.06,0.06h3.21c0.03,0,0.06-0.03,0.06-0.06
				s-0.03-0.06-0.06-0.06H60.53z"/>
		</g>
	</g>
	<g>
		<g>
			<path class="st0" d="M58.7,474.43c-0.05,0-0.09-0.02-0.13-0.05c-0.07-0.07-0.07-0.19,0-0.26l1.83-1.83
				c0.07-0.07,0.19-0.07,0.26,0c0.07,0.07,0.07,0.19,0,0.26l-1.83,1.83C58.8,474.41,58.75,474.43,58.7,474.43z"/>
			<path class="st0" d="M58.7,474.55c-0.08,0-0.16-0.03-0.22-0.09c-0.12-0.12-0.12-0.32,0-0.44l1.83-1.83
				c0.06-0.06,0.13-0.09,0.22-0.09h0c0.08,0,0.16,0.03,0.22,0.09c0.12,0.12,0.12,0.32,0,0.44l-1.83,1.83
				C58.87,474.52,58.79,474.55,58.7,474.55z M60.53,472.36L60.53,472.36c-0.01,0-0.03,0-0.04,0.02l-1.83,1.83
				c-0.02,0.02-0.02,0.06,0,0.08c0.03,0.03,0.05,0.03,0.08,0l1.83-1.83c0.02-0.02,0.02-0.06,0-0.08
				C60.56,472.36,60.54,472.36,60.53,472.36z"/>
		</g>
	</g>
	<g>
		<g>
			<path class="st0" d="M58.7,479.65c-0.1,0-0.18-0.08-0.18-0.18v-5.22c0-0.1,0.08-0.18,0.18-0.18c0.1,0,0.18,0.08,0.18,0.18v5.22
				C58.89,479.56,58.81,479.65,58.7,479.65z"/>
			<path class="st0" d="M58.7,479.77c-0.17,0-0.31-0.14-0.31-0.31v-5.22c0-0.17,0.14-0.31,0.31-0.31s0.31,0.14,0.31,0.31v5.22
				C59.01,479.63,58.87,479.77,58.7,479.77z M58.7,474.19c-0.03,0-0.06,0.03-0.06,0.06v5.22c0,0.06,0.12,0.06,0.12,0v-5.22
				C58.76,474.21,58.74,474.19,58.7,474.19z"/>
		</g>
	</g>
	<g>
		<g>
			<path class="st0" d="M60.53,481.47c-0.05,0-0.09-0.02-0.13-0.05l-1.83-1.83c-0.07-0.07-0.07-0.19,0-0.26
				c0.07-0.07,0.19-0.07,0.26,0l1.83,1.83c0.07,0.07,0.07,0.19,0,0.26C60.63,481.46,60.58,481.47,60.53,481.47z"/>
			<path class="st0" d="M60.53,481.6c-0.08,0-0.16-0.03-0.22-0.09l-1.83-1.83c-0.12-0.12-0.12-0.32,0-0.44
				c0.06-0.06,0.14-0.09,0.22-0.09c0,0,0,0,0,0c0.08,0,0.16,0.03,0.22,0.09l1.83,1.83c0.12,0.12,0.12,0.32,0,0.44
				C60.69,481.57,60.61,481.6,60.53,481.6z M58.7,479.41c-0.02,0-0.03,0.01-0.04,0.02c-0.02,0.02-0.02,0.06,0,0.08l1.83,1.83
				c0.03,0.03,0.05,0.03,0.08,0c0.02-0.02,0.02-0.06,0-0.08l-1.83-1.83C58.73,479.41,58.71,479.41,58.7,479.41L58.7,479.41z"/>
		</g>
	</g>
	<g>
		<g>
			<path class="st0" d="M63.74,481.47h-3.21c-0.1,0-0.18-0.08-0.18-0.18s0.08-0.18,0.18-0.18h3.21c0.1,0,0.18,0.08,0.18,0.18
				S63.85,481.47,63.74,481.47z"/>
			<path class="st0" d="M63.74,481.6h-3.21c-0.17,0-0.31-0.14-0.31-0.31s0.14-0.31,0.31-0.31h3.21c0.17,0,0.31,0.14,0.31,0.31
				S63.91,481.6,63.74,481.6z M60.53,481.23c-0.03,0-0.06,0.03-0.06,0.06s0.03,0.06,0.06,0.06h3.21c0.03,0,0.06-0.03,0.06-0.06
				s-0.03-0.06-0.06-0.06H60.53z"/>
		</g>
	</g>
	<g>
		<g>
			<path class="st0" d="M63.74,481.47c-0.1,0-0.18-0.08-0.18-0.18s0.08-0.18,0.18-0.18c0.4,0,0.73-0.33,0.73-0.73
				c0-0.1,0.08-0.18,0.18-0.18s0.18,0.08,0.18,0.18C64.84,480.98,64.35,481.47,63.74,481.47z"/>
			<path class="st0" d="M63.74,481.6c-0.17,0-0.31-0.14-0.31-0.31s0.14-0.31,0.31-0.31c0.33,0,0.6-0.27,0.6-0.61
				c0-0.17,0.14-0.31,0.31-0.31s0.31,0.14,0.31,0.31C64.96,481.05,64.42,481.6,63.74,481.6z M64.65,480.32
				c-0.03,0-0.06,0.03-0.06,0.06c0,0.47-0.38,0.86-0.85,0.86c-0.03,0-0.06,0.03-0.06,0.06s0.03,0.06,0.06,0.06
				c0.53,0,0.97-0.44,0.97-0.97C64.71,480.34,64.69,480.32,64.65,480.32z"/>
		</g>
	</g>
	<g>
		<g>
			<path class="st0" d="M64.65,480.56c-0.1,0-0.18-0.08-0.18-0.18v-7.05c0-0.1,0.08-0.18,0.18-0.18s0.18,0.08,0.18,0.18v7.05
				C64.84,480.48,64.76,480.56,64.65,480.56z"/>
			<path class="st0" d="M64.65,480.69c-0.17,0-0.31-0.14-0.31-0.31v-7.04c0-0.17,0.14-0.31,0.31-0.31s0.31,0.14,0.31,0.31v7.04
				C64.96,480.55,64.82,480.69,64.65,480.69z M64.65,473.27c-0.03,0-0.06,0.03-0.06,0.06v7.04c0,0.06,0.12,0.07,0.12,0v-7.04
				C64.71,473.3,64.69,473.27,64.65,473.27z"/>
		</g>
	</g>
	<g>
		<g>
			<path class="st0" d="M64.65,473.51c-0.1,0-0.18-0.08-0.18-0.18c0-0.4-0.33-0.73-0.73-0.73c-0.1,0-0.18-0.08-0.18-0.18
				s0.08-0.18,0.18-0.18c0.6,0,1.09,0.49,1.09,1.1C64.84,473.43,64.76,473.51,64.65,473.51z"/>
			<path class="st0" d="M64.65,473.64c-0.17,0-0.31-0.14-0.31-0.31c0-0.33-0.27-0.61-0.6-0.61c-0.17,0-0.31-0.14-0.31-0.31
				s0.14-0.31,0.31-0.31c0.67,0,1.22,0.55,1.22,1.22C64.96,473.5,64.82,473.64,64.65,473.64z M63.74,472.36
				c-0.03,0-0.06,0.03-0.06,0.06s0.03,0.06,0.06,0.06c0.47,0,0.85,0.38,0.85,0.86c0,0.06,0.12,0.06,0.12,0
				C64.71,472.8,64.28,472.36,63.74,472.36z"/>
		</g>
	</g>
	<g>
		<g>
			<path class="st0" d="M62.83,479.39h-0.84c-0.05,0-0.09-0.04-0.09-0.09s0.04-0.09,0.09-0.09h0.84c0.05,0,0.09,0.04,0.09,0.09
				S62.88,479.39,62.83,479.39z"/>
			<path class="st0" d="M62.83,479.52h-0.84c-0.12,0-0.22-0.1-0.22-0.22s0.1-0.22,0.22-0.22h0.84c0.12,0,0.22,0.1,0.22,0.22
				S62.95,479.52,62.83,479.52z"/>
		</g>
	</g>
	<g>
		<g>
			<path class="st0" d="M61.99,479.39c-0.02,0-0.04-0.01-0.06-0.02l-0.31-0.25c-0.04-0.03-0.04-0.09-0.01-0.13
				c0.03-0.04,0.09-0.04,0.13-0.01l0.31,0.25c0.04,0.03,0.04,0.09,0.01,0.13C62.04,479.38,62.01,479.39,61.99,479.39z"/>
			<path class="st0" d="M61.99,479.52c-0.05,0-0.1-0.02-0.14-0.05l-0.31-0.25c-0.04-0.04-0.07-0.09-0.08-0.14
				c-0.01-0.06,0.01-0.12,0.05-0.16c0.08-0.09,0.21-0.1,0.3-0.03l0.31,0.25c0.04,0.04,0.07,0.09,0.08,0.14
				c0.01,0.06-0.01,0.12-0.05,0.16C62.12,479.49,62.05,479.52,61.99,479.52z"/>
		</g>
	</g>
	<g>
		<g>
			<path class="st0" d="M63.14,479.14h-1.46c-0.05,0-0.09-0.04-0.09-0.09s0.04-0.09,0.09-0.09h1.46c0.05,0,0.09,0.04,0.09,0.09
				S63.19,479.14,63.14,479.14z"/>
			<path class="st0" d="M63.14,479.26h-1.46c-0.12,0-0.22-0.1-0.22-0.22s0.1-0.22,0.22-0.22h1.46c0.12,0,0.22,0.1,0.22,0.22
				S63.26,479.26,63.14,479.26z"/>
		</g>
	</g>
	<g>
		<g>
			<path class="st0" d="M62.83,479.39c-0.03,0-0.05-0.01-0.07-0.03c-0.03-0.04-0.03-0.1,0.01-0.13l0.31-0.25
				c0.04-0.03,0.1-0.03,0.13,0.01c0.03,0.04,0.03,0.1-0.01,0.13l-0.31,0.25C62.87,479.38,62.85,479.39,62.83,479.39z"/>
			<path class="st0" d="M62.83,479.52c-0.07,0-0.13-0.03-0.17-0.08c-0.04-0.05-0.05-0.1-0.05-0.16c0.01-0.06,0.03-0.11,0.08-0.15
				l0.31-0.25c0.1-0.08,0.23-0.06,0.3,0.03c0.04,0.05,0.06,0.11,0.05,0.16c-0.01,0.06-0.03,0.11-0.08,0.14l-0.31,0.25
				C62.93,479.5,62.88,479.52,62.83,479.52z"/>
		</g>
	</g>
	<g>
		<g>
			<path class="st0" d="M57.87,472.55c-0.03,0-0.06-0.01-0.09-0.03c-0.09-0.05-0.11-0.16-0.06-0.25l1.93-3.22
				c0.05-0.09,0.16-0.11,0.25-0.06c0.09,0.05,0.11,0.16,0.06,0.25l-1.93,3.22C57.99,472.52,57.93,472.55,57.87,472.55z"/>
			<path class="st0" d="M57.87,472.68c-0.06,0-0.11-0.02-0.16-0.04c-0.14-0.09-0.19-0.28-0.11-0.42l1.94-3.22
				c0.09-0.14,0.28-0.19,0.42-0.11c0.15,0.09,0.19,0.28,0.11,0.42l-1.94,3.22C58.08,472.62,57.97,472.68,57.87,472.68z M59.8,469.09
				c-0.02,0-0.04,0.01-0.05,0.03l-1.93,3.22c-0.02,0.03-0.01,0.06,0.02,0.08l0.03,0.01c0.02,0,0.04-0.01,0.05-0.03l1.93-3.22
				c0.02-0.03,0.01-0.06-0.02-0.08C59.82,469.1,59.81,469.09,59.8,469.09z"/>
		</g>
	</g>
	<g>
		<g>
			<path class="st0" d="M62.83,474.5c-0.05,0-0.09-0.04-0.09-0.09v-0.22c0-0.05,0.04-0.09,0.09-0.09c0.05,0,0.09,0.04,0.09,0.09
				v0.22C62.92,474.46,62.88,474.5,62.83,474.5z"/>
			<path class="st0" d="M62.83,474.63c-0.12,0-0.22-0.1-0.22-0.22v-0.22c0-0.12,0.1-0.22,0.22-0.22c0.12,0,0.22,0.1,0.22,0.22v0.22
				C63.05,474.53,62.95,474.63,62.83,474.63z"/>
		</g>
	</g>
	<g>
		<g>
			<path class="st0" d="M62.83,474.5h-0.84c-0.05,0-0.09-0.04-0.09-0.09s0.04-0.09,0.09-0.09h0.84c0.05,0,0.09,0.04,0.09,0.09
				S62.88,474.5,62.83,474.5z"/>
			<path class="st0" d="M62.83,474.63h-0.84c-0.12,0-0.22-0.1-0.22-0.22s0.1-0.22,0.22-0.22h0.84c0.12,0,0.22,0.1,0.22,0.22
				S62.95,474.63,62.83,474.63z"/>
		</g>
	</g>
	<g>
		<g>
			<path class="st0" d="M62.83,474.28h-0.84c-0.05,0-0.09-0.04-0.09-0.09s0.04-0.09,0.09-0.09h0.84c0.05,0,0.09,0.04,0.09,0.09
				S62.88,474.28,62.83,474.28z"/>
			<path class="st0" d="M62.83,474.41h-0.84c-0.12,0-0.22-0.1-0.22-0.22s0.1-0.22,0.22-0.22h0.84c0.12,0,0.22,0.1,0.22,0.22
				S62.95,474.41,62.83,474.41z"/>
		</g>
	</g>
	<g>
		<g>
			<path class="st0" d="M59.8,484.74c-0.06,0-0.12-0.03-0.16-0.09l-1.93-3.22c-0.05-0.09-0.02-0.2,0.06-0.25
				c0.09-0.05,0.2-0.02,0.25,0.06l1.93,3.22c0.05,0.09,0.02,0.2-0.06,0.25C59.87,484.73,59.83,484.74,59.8,484.74z"/>
			<path class="st0" d="M59.8,484.86c-0.11,0-0.21-0.06-0.26-0.15l-1.93-3.22c-0.09-0.15-0.04-0.34,0.11-0.42
				c0.14-0.09,0.33-0.04,0.42,0.11l1.93,3.22c0.04,0.07,0.05,0.15,0.03,0.23c-0.02,0.08-0.07,0.15-0.14,0.19
				C59.91,484.85,59.86,484.86,59.8,484.86z M57.87,481.27c-0.01,0-0.02,0-0.03,0.01c-0.02,0.01-0.03,0.06-0.02,0.08l1.93,3.22
				c0.03,0.05,0.06,0.03,0.08,0.02c0.03-0.01,0.04-0.06,0.02-0.08l-1.93-3.22C57.91,481.28,57.89,481.27,57.87,481.27z"/>
		</g>
	</g>
	<g>
		<g>
			<path class="st0" d="M65.77,473.55c-0.08,0-0.15-0.05-0.18-0.13l-0.28-1c-0.03-0.1,0.03-0.2,0.13-0.23
				c0.1-0.03,0.2,0.03,0.23,0.13l0.28,1c0.03,0.1-0.03,0.2-0.13,0.23C65.8,473.55,65.78,473.55,65.77,473.55z"/>
			<path class="st0" d="M65.77,473.68c-0.14,0-0.26-0.09-0.3-0.23l-0.28-1c-0.05-0.16,0.05-0.33,0.21-0.38
				c0.17-0.05,0.33,0.05,0.38,0.21l0.28,1c0.02,0.08,0.01,0.16-0.03,0.23c-0.04,0.07-0.11,0.12-0.19,0.15
				C65.83,473.67,65.8,473.68,65.77,473.68z M65.49,472.31c-0.01,0-0.01,0-0.02,0c-0.03,0.01-0.05,0.04-0.04,0.07l0.28,1
				c0.01,0.04,0.05,0.05,0.07,0.04c0.02-0.01,0.03-0.02,0.04-0.03s0.01-0.02,0.01-0.04l-0.28-1
				C65.54,472.33,65.52,472.31,65.49,472.31z"/>
		</g>
	</g>
	<g>
		<g>
			<path class="st0" d="M57.59,473.55c-0.02,0-0.03,0-0.05-0.01c-0.1-0.03-0.15-0.13-0.13-0.23l0.28-1c0.03-0.1,0.13-0.16,0.23-0.13
				c0.1,0.03,0.15,0.13,0.13,0.23l-0.28,1C57.74,473.5,57.67,473.55,57.59,473.55z"/>
			<path class="st0" d="M57.59,473.68c-0.03,0-0.06,0-0.08-0.01c-0.08-0.02-0.14-0.07-0.18-0.14c-0.04-0.07-0.05-0.16-0.03-0.23
				l0.28-1c0.02-0.08,0.07-0.15,0.15-0.19c0.07-0.04,0.16-0.05,0.23-0.03s0.15,0.07,0.19,0.14c0.04,0.07,0.05,0.16,0.03,0.24
				l-0.28,1C57.85,473.59,57.73,473.68,57.59,473.68z M57.87,472.31c-0.01,0-0.02,0-0.03,0.01c-0.01,0-0.02,0.01-0.03,0.04l-0.28,1
				c-0.01,0.02,0,0.04,0,0.04s0.01,0.02,0.03,0.03l0.02,0c0.02,0,0.05-0.01,0.06-0.04l0.28-1c0.01-0.03-0.01-0.06-0.04-0.07
				C57.88,472.31,57.87,472.31,57.87,472.31z"/>
		</g>
	</g>
	<g>
		<g>
			<path class="st0" d="M63.14,474.75c-0.05,0-0.09-0.04-0.09-0.09v-0.73c0-0.05,0.04-0.09,0.09-0.09c0.05,0,0.09,0.04,0.09,0.09
				v0.73C63.23,474.71,63.19,474.75,63.14,474.75z"/>
			<path class="st0" d="M63.14,474.88c-0.12,0-0.22-0.1-0.22-0.22v-0.73c0-0.12,0.1-0.22,0.22-0.22c0.12,0,0.22,0.1,0.22,0.22v0.73
				C63.36,474.78,63.26,474.88,63.14,474.88z"/>
		</g>
	</g>
	<g>
		<g>
			<path class="st0" d="M61.37,477.05h-0.84c-0.05,0-0.09-0.04-0.09-0.09s0.04-0.09,0.09-0.09h0.84c0.05,0,0.09,0.04,0.09,0.09
				S61.42,477.05,61.37,477.05z"/>
			<path class="st0" d="M61.37,477.18h-0.84c-0.12,0-0.22-0.1-0.22-0.22s0.1-0.22,0.22-0.22h0.84c0.12,0,0.22,0.1,0.22,0.22
				S61.49,477.18,61.37,477.18z"/>
		</g>
	</g>
	<g>
		<g>
			<path class="st0" d="M61.37,476.84h-0.84c-0.05,0-0.09-0.04-0.09-0.09s0.04-0.09,0.09-0.09h0.84c0.05,0,0.09,0.04,0.09,0.09
				S61.42,476.84,61.37,476.84z"/>
			<path class="st0" d="M61.37,476.96h-0.84c-0.12,0-0.22-0.1-0.22-0.22s0.1-0.22,0.22-0.22h0.84c0.12,0,0.22,0.1,0.22,0.22
				S61.49,476.96,61.37,476.96z"/>
		</g>
	</g>
	<g>
		<g>
			<path class="st0" d="M61.68,470.24c-0.02,0-0.05-0.01-0.06-0.03l-0.6-0.6c-0.02-0.02-0.03-0.04-0.03-0.07
				c0-0.02,0.01-0.05,0.03-0.07l0.6-0.6c0.04-0.04,0.09-0.04,0.13,0c0.04,0.04,0.04,0.09,0,0.13l-0.54,0.54l0.54,0.53
				c0.04,0.04,0.04,0.09,0,0.13C61.73,470.23,61.7,470.24,61.68,470.24z"/>
			<path class="st0" d="M61.68,470.37c-0.06,0-0.11-0.02-0.15-0.06l-0.6-0.6c-0.04-0.04-0.06-0.09-0.06-0.15
				c0-0.06,0.02-0.11,0.06-0.15l0.61-0.61c0.04-0.04,0.1-0.06,0.15-0.06c0,0,0,0,0,0c0.06,0,0.11,0.02,0.15,0.06
				c0.08,0.08,0.08,0.22,0,0.31l-0.45,0.45l0.45,0.45c0.04,0.04,0.06,0.09,0.06,0.15c0,0.06-0.02,0.11-0.06,0.16
				C61.79,470.35,61.74,470.37,61.68,470.37z"/>
		</g>
	</g>
	<g>
		<g>
			<path class="st0" d="M63.56,469.34c-0.06,0-0.12-0.03-0.16-0.09c-0.57-0.95-1.8-1.26-2.76-0.69l-0.71,0.72
				c-0.07,0.07-0.19,0.07-0.26,0c-0.07-0.07-0.07-0.19,0-0.26l0.75-0.75c1.16-0.7,2.62-0.34,3.29,0.79c0.05,0.09,0.02,0.2-0.06,0.25
				C63.62,469.33,63.59,469.34,63.56,469.34z"/>
			<path class="st0" d="M59.8,469.46c-0.08,0-0.16-0.03-0.22-0.09c-0.12-0.12-0.12-0.32,0-0.44l0.75-0.75
				c0.62-0.38,1.3-0.48,1.96-0.32c0.64,0.16,1.19,0.56,1.53,1.13c0.04,0.07,0.05,0.15,0.03,0.23s-0.07,0.15-0.14,0.19
				c-0.14,0.08-0.34,0.03-0.42-0.11c-0.53-0.88-1.68-1.18-2.57-0.65l-0.7,0.71C59.96,469.43,59.88,469.46,59.8,469.46z
				 M61.69,468.04c-0.42,0-0.83,0.12-1.2,0.34l-0.73,0.73c-0.02,0.02-0.02,0.06,0,0.08c0.02,0.02,0.06,0.02,0.08,0l0.74-0.74
				c1.01-0.6,2.32-0.28,2.93,0.73c0.02,0.03,0.05,0.04,0.08,0.02c0.02-0.01,0.02-0.03,0.03-0.04c0-0.01,0-0.03-0.01-0.04
				c-0.31-0.51-0.79-0.87-1.37-1.02C62.05,468.06,61.87,468.04,61.69,468.04z"/>
		</g>
	</g>
	<g>
		<g>
			<path class="st0" d="M65.49,472.55c-0.06,0-0.12-0.03-0.16-0.09l-1.93-3.22c-0.05-0.09-0.02-0.2,0.06-0.25
				c0.09-0.05,0.2-0.02,0.25,0.06l1.93,3.22c0.05,0.09,0.02,0.2-0.06,0.25C65.56,472.55,65.52,472.55,65.49,472.55z"/>
			<path class="st0" d="M65.49,472.68c-0.11,0-0.21-0.06-0.26-0.15l-1.93-3.22c-0.09-0.15-0.04-0.33,0.1-0.42
				c0.15-0.09,0.34-0.04,0.42,0.1l1.93,3.22c0.09,0.15,0.04,0.34-0.11,0.42C65.6,472.67,65.55,472.68,65.49,472.68z M63.56,469.1
				c-0.01,0-0.02,0-0.03,0.01c-0.03,0.02-0.04,0.05-0.02,0.08l1.93,3.22c0.02,0.03,0.05,0.04,0.08,0.02
				c0.03-0.02,0.04-0.05,0.02-0.08l-1.93-3.22C63.6,469.11,63.58,469.1,63.56,469.1z"/>
		</g>
	</g>
	<g>
		<g>
			<path class="st0" d="M58.03,480.56c-0.1,0-0.18-0.08-0.18-0.18v-7.05c0-0.1,0.08-0.18,0.18-0.18c0.1,0,0.18,0.08,0.18,0.18v7.05
				C58.21,480.48,58.13,480.56,58.03,480.56z"/>
			<path class="st0" d="M58.03,480.69c-0.17,0-0.31-0.14-0.31-0.31v-7.04c0-0.17,0.14-0.31,0.31-0.31s0.31,0.14,0.31,0.31v7.04
				C58.34,480.55,58.2,480.69,58.03,480.69z M58.03,473.27c-0.03,0-0.06,0.03-0.06,0.06v7.04c0,0.07,0.12,0.06,0.12,0v-7.04
				C58.09,473.3,58.06,473.27,58.03,473.27z"/>
		</g>
	</g>
	<g>
		<g>
			<path class="st0" d="M57.59,480.52c-0.1,0-0.18-0.08-0.18-0.18v-6.97c0-0.1,0.08-0.18,0.18-0.18c0.1,0,0.18,0.08,0.18,0.18v6.97
				C57.77,480.44,57.69,480.52,57.59,480.52z"/>
			<path class="st0" d="M57.59,480.65c-0.17,0-0.31-0.14-0.31-0.31v-6.97c0-0.17,0.14-0.31,0.31-0.31s0.31,0.14,0.31,0.31v6.97
				C57.9,480.51,57.76,480.65,57.59,480.65z M57.59,473.31c-0.03,0-0.06,0.03-0.06,0.06v6.97c0,0.06,0.12,0.06,0.12,0v-6.97
				C57.65,473.34,57.62,473.31,57.59,473.31z"/>
		</g>
	</g>
	<g>
		<g>
			<path class="st0" d="M63.14,474.02h-1.46c-0.05,0-0.09-0.04-0.09-0.09s0.04-0.09,0.09-0.09h1.46c0.05,0,0.09,0.04,0.09,0.09
				S63.19,474.02,63.14,474.02z"/>
			<path class="st0" d="M63.14,474.15h-1.46c-0.12,0-0.22-0.1-0.22-0.22s0.1-0.22,0.22-0.22h1.46c0.12,0,0.22,0.1,0.22,0.22
				S63.26,474.15,63.14,474.15z"/>
		</g>
	</g>
	<g>
		<g>
			<path class="st0" d="M65.49,481.52c-0.02,0-0.03,0-0.05-0.01c-0.1-0.03-0.15-0.13-0.13-0.23l0.28-0.99
				c0.03-0.1,0.13-0.15,0.23-0.13c0.1,0.03,0.15,0.13,0.13,0.23l-0.28,0.99C65.65,481.46,65.57,481.52,65.49,481.52z"/>
			<path class="st0" d="M65.49,481.64c-0.03,0-0.05,0-0.08-0.01c-0.17-0.05-0.26-0.22-0.22-0.38l0.28-0.99
				c0.05-0.16,0.22-0.26,0.38-0.21c0.08,0.02,0.15,0.07,0.19,0.14c0.04,0.07,0.05,0.16,0.03,0.24l-0.28,0.99
				C65.75,481.55,65.63,481.64,65.49,481.64z M65.77,480.28c-0.03,0-0.05,0.02-0.06,0.04l-0.28,0.99c-0.01,0.03,0.01,0.06,0.04,0.07
				l0.02,0c0.03,0,0.05-0.02,0.06-0.04l0.28-0.99c0.01-0.03-0.01-0.06-0.04-0.07C65.78,480.28,65.77,480.28,65.77,480.28z"/>
		</g>
	</g>
	<g>
		<g>
			<path class="st0" d="M57.87,481.52c-0.08,0-0.15-0.05-0.18-0.13l-0.28-0.99c-0.03-0.1,0.03-0.2,0.13-0.23
				c0.1-0.03,0.2,0.03,0.23,0.13l0.28,0.99c0.03,0.1-0.03,0.2-0.13,0.23C57.9,481.51,57.88,481.52,57.87,481.52z"/>
			<path class="st0" d="M57.87,481.64c-0.14,0-0.26-0.09-0.3-0.23l-0.28-0.99c-0.05-0.16,0.05-0.33,0.21-0.38
				c0.16-0.05,0.33,0.05,0.38,0.21l0.28,0.99c0.05,0.16-0.05,0.33-0.21,0.38C57.92,481.64,57.89,481.64,57.87,481.64z M57.59,480.28
				c-0.01,0-0.01,0-0.02,0c-0.02,0.01-0.05,0.04-0.04,0.07l0.28,0.99c0.01,0.03,0.04,0.04,0.08,0.04c0.03-0.01,0.04-0.04,0.04-0.07
				l-0.28-0.99C57.64,480.3,57.62,480.28,57.59,480.28z"/>
		</g>
	</g>
	<g>
		<g>
			<path class="st0" d="M61.68,477.31c-0.02,0-0.04-0.01-0.06-0.02l-0.31-0.26c-0.04-0.03-0.04-0.09-0.01-0.13
				c0.03-0.04,0.09-0.04,0.13-0.01l0.31,0.26c0.04,0.03,0.04,0.09,0.01,0.13C61.73,477.3,61.71,477.31,61.68,477.31z"/>
			<path class="st0" d="M61.68,477.44c-0.05,0-0.1-0.02-0.14-0.05l-0.31-0.26c-0.04-0.04-0.07-0.09-0.08-0.15
				c-0.01-0.06,0.01-0.11,0.05-0.16c0.08-0.09,0.21-0.1,0.31-0.03l0.31,0.26c0.04,0.04,0.07,0.09,0.08,0.15
				c0.01,0.06-0.01,0.11-0.05,0.16C61.8,477.41,61.74,477.44,61.68,477.44z M61.35,476.99C61.35,476.99,61.35,476.99,61.35,476.99
				L61.35,476.99z"/>
		</g>
	</g>
	<g>
		<g>
			<path class="st0" d="M61.37,477.05c-0.05,0-0.09-0.04-0.09-0.09v-0.22c0-0.05,0.04-0.09,0.09-0.09s0.09,0.04,0.09,0.09v0.22
				C61.46,477.01,61.42,477.05,61.37,477.05z"/>
			<path class="st0" d="M61.37,477.18c-0.12,0-0.22-0.1-0.22-0.22v-0.22c0-0.12,0.1-0.22,0.22-0.22c0.12,0,0.22,0.1,0.22,0.22v0.22
				C61.59,477.08,61.49,477.18,61.37,477.18z"/>
		</g>
	</g>
	<g>
		<g>
			<path class="st0" d="M61.37,476.84c-0.03,0-0.05-0.01-0.07-0.03c-0.03-0.04-0.03-0.1,0.01-0.13l0.31-0.26
				c0.04-0.03,0.1-0.03,0.13,0.01c0.03,0.04,0.03,0.1-0.01,0.13l-0.31,0.26C61.41,476.83,61.39,476.84,61.37,476.84z"/>
			<path class="st0" d="M61.37,476.96c-0.07,0-0.13-0.03-0.17-0.08c-0.04-0.04-0.05-0.1-0.05-0.16c0.01-0.06,0.03-0.11,0.08-0.15
				l0.31-0.26c0.04-0.04,0.1-0.06,0.15-0.05c0.06,0,0.11,0.03,0.15,0.08c0.04,0.04,0.05,0.1,0.05,0.16
				c-0.01,0.06-0.03,0.11-0.08,0.15l-0.31,0.26C61.47,476.94,61.42,476.96,61.37,476.96z M61.39,476.77L61.39,476.77L61.39,476.77
				L61.39,476.77z M61.35,476.72C61.35,476.72,61.35,476.72,61.35,476.72L61.35,476.72z M61.66,476.46L61.66,476.46L61.66,476.46z"
				/>
		</g>
	</g>
	<g>
		<g>
			<path class="st0" d="M61.68,477.31c-0.05,0-0.09-0.04-0.09-0.09v-0.73c0-0.05,0.04-0.09,0.09-0.09c0.05,0,0.09,0.04,0.09,0.09
				v0.73C61.77,477.27,61.73,477.31,61.68,477.31z"/>
			<path class="st0" d="M61.68,477.44c-0.12,0-0.22-0.1-0.22-0.22v-0.73c0-0.12,0.1-0.22,0.22-0.22c0.12,0,0.22,0.1,0.22,0.22v0.73
				C61.9,477.34,61.8,477.44,61.68,477.44z"/>
		</g>
	</g>
	<g>
		<g>
			<path class="st0" d="M60.53,477.05c-0.05,0-0.09-0.04-0.09-0.09v-0.22c0-0.05,0.04-0.09,0.09-0.09s0.09,0.04,0.09,0.09v0.22
				C60.62,477.01,60.58,477.05,60.53,477.05z"/>
			<path class="st0" d="M60.53,477.18c-0.12,0-0.22-0.1-0.22-0.22v-0.22c0-0.12,0.1-0.22,0.22-0.22c0.12,0,0.22,0.1,0.22,0.22v0.22
				C60.75,477.08,60.65,477.18,60.53,477.18z"/>
		</g>
	</g>
	<g>
		<g>
			<path class="st0" d="M60.22,477.31c-0.03,0-0.05-0.01-0.07-0.03c-0.03-0.04-0.03-0.1,0.01-0.13l0.31-0.26
				c0.04-0.03,0.1-0.03,0.13,0.01c0.03,0.04,0.03,0.1-0.01,0.13l-0.31,0.26C60.26,477.3,60.24,477.31,60.22,477.31z"/>
			<path class="st0" d="M60.22,477.44c-0.07,0-0.13-0.03-0.17-0.08c-0.03-0.04-0.05-0.1-0.05-0.16c0.01-0.06,0.03-0.11,0.08-0.15
				l0.31-0.26c0.05-0.04,0.1-0.06,0.16-0.05c0.06,0.01,0.11,0.04,0.14,0.08c0.04,0.04,0.05,0.1,0.05,0.16
				c-0.01,0.06-0.03,0.11-0.08,0.14l-0.31,0.26C60.32,477.42,60.27,477.44,60.22,477.44z M60.19,477.19
				C60.19,477.2,60.19,477.2,60.19,477.19L60.19,477.19z M60.51,476.94L60.51,476.94L60.51,476.94L60.51,476.94z"/>
		</g>
	</g>
	<g>
		<g>
			<path class="st0" d="M60.53,476.84c-0.02,0-0.04-0.01-0.06-0.02l-0.31-0.26c-0.04-0.03-0.04-0.09-0.01-0.13
				c0.03-0.04,0.09-0.04,0.13-0.01l0.31,0.26c0.04,0.03,0.04,0.09,0.01,0.13C60.58,476.83,60.56,476.84,60.53,476.84z"/>
			<path class="st0" d="M60.53,476.96c-0.05,0-0.1-0.02-0.14-0.05l-0.31-0.26c-0.09-0.08-0.11-0.21-0.03-0.3
				c0.04-0.04,0.09-0.07,0.15-0.08c0.05-0.01,0.11,0.01,0.16,0.05l0.31,0.26c0.04,0.04,0.07,0.09,0.08,0.15s-0.01,0.11-0.05,0.16
				C60.66,476.93,60.6,476.96,60.53,476.96z M60.2,476.51L60.2,476.51L60.2,476.51z"/>
		</g>
	</g>
	<g>
		<g>
			<path class="st0" d="M60.22,477.31c-0.05,0-0.09-0.04-0.09-0.09v-0.73c0-0.05,0.04-0.09,0.09-0.09s0.09,0.04,0.09,0.09v0.73
				C60.31,477.27,60.27,477.31,60.22,477.31z"/>
			<path class="st0" d="M60.22,477.44c-0.12,0-0.22-0.1-0.22-0.22v-0.73c0-0.12,0.1-0.22,0.22-0.22c0.12,0,0.22,0.1,0.22,0.22v0.73
				C60.43,477.34,60.34,477.44,60.22,477.44z"/>
		</g>
	</g>
	<g>
		<g>
			<path class="st0" d="M63.56,484.74c-0.03,0-0.06-0.01-0.09-0.03c-0.09-0.05-0.11-0.16-0.06-0.25l1.93-3.22
				c0.05-0.09,0.16-0.12,0.25-0.06c0.09,0.05,0.11,0.16,0.06,0.25l-1.93,3.22C63.68,484.71,63.62,484.74,63.56,484.74z"/>
			<path class="st0" d="M63.56,484.86c-0.06,0-0.11-0.02-0.16-0.05c-0.07-0.04-0.12-0.11-0.14-0.19s-0.01-0.16,0.04-0.23l1.93-3.22
				c0.09-0.15,0.28-0.19,0.42-0.11c0.07,0.04,0.12,0.11,0.14,0.19c0.02,0.08,0.01,0.16-0.03,0.23l-1.94,3.22
				C63.77,484.81,63.67,484.86,63.56,484.86z M65.49,481.27c-0.02,0-0.04,0.01-0.05,0.03l-1.93,3.22c-0.01,0.02-0.01,0.04-0.01,0.04
				c0,0.01,0.01,0.02,0.03,0.04l0.03,0.01c0.02,0,0.04-0.01,0.05-0.03l1.94-3.22c0.01-0.02,0-0.07-0.02-0.08
				C65.51,481.28,65.5,481.27,65.49,481.27z"/>
		</g>
	</g>
	<g>
		<g>
			<path class="st0" d="M62.04,476.58h-0.37c-0.05,0-0.09-0.04-0.09-0.09s0.04-0.09,0.09-0.09h0.37c0.05,0,0.09,0.04,0.09,0.09
				S62.09,476.58,62.04,476.58z"/>
			<path class="st0" d="M62.04,476.71h-0.37c-0.12,0-0.22-0.1-0.22-0.22s0.1-0.22,0.22-0.22h0.37c0.12,0,0.22,0.1,0.22,0.22
				S62.16,476.71,62.04,476.71z"/>
		</g>
	</g>
	<g>
		<g>
			<path class="st0" d="M61.68,476.58h-1.46c-0.05,0-0.09-0.04-0.09-0.09s0.04-0.09,0.09-0.09h1.46c0.05,0,0.09,0.04,0.09,0.09
				S61.73,476.58,61.68,476.58z"/>
			<path class="st0" d="M61.68,476.71h-1.46c-0.12,0-0.22-0.1-0.22-0.22s0.1-0.22,0.22-0.22h1.46c0.12,0,0.22,0.1,0.22,0.22
				S61.8,476.71,61.68,476.71z"/>
		</g>
	</g>
	<g>
		<g>
			<path class="st0" d="M59.38,476.58H59.3c-0.05,0-0.09-0.04-0.09-0.09s0.04-0.09,0.09-0.09h0.08c0.05,0,0.09,0.04,0.09,0.09
				S59.43,476.58,59.38,476.58z"/>
			<path class="st0" d="M59.38,476.71H59.3c-0.12,0-0.22-0.1-0.22-0.22s0.1-0.22,0.22-0.22h0.08c0.12,0,0.22,0.1,0.22,0.22
				S59.5,476.71,59.38,476.71z"/>
		</g>
	</g>
	<g>
		<g>
			<path class="st0" d="M63.83,482.06h-4.31c-0.1,0-0.18-0.08-0.18-0.18s0.08-0.18,0.18-0.18h4.31c0.1,0,0.18,0.08,0.18,0.18
				S63.94,482.06,63.83,482.06z"/>
			<path class="st0" d="M63.83,482.18h-4.31c-0.17,0-0.31-0.14-0.31-0.31s0.14-0.31,0.31-0.31h4.31c0.17,0,0.31,0.14,0.31,0.31
				S64,482.18,63.83,482.18z M59.52,481.82c-0.03,0-0.06,0.03-0.06,0.06s0.03,0.06,0.06,0.06h4.31c0.03,0,0.06-0.03,0.06-0.06
				s-0.03-0.06-0.06-0.06H59.52z"/>
		</g>
	</g>
	<g>
		<g>
			<path class="st0" d="M60.22,476.58h-0.84c-0.05,0-0.09-0.04-0.09-0.09s0.04-0.09,0.09-0.09h0.84c0.05,0,0.09,0.04,0.09,0.09
				S60.27,476.58,60.22,476.58z"/>
			<path class="st0" d="M60.22,476.71h-0.84c-0.12,0-0.22-0.1-0.22-0.22s0.1-0.22,0.22-0.22h0.84c0.12,0,0.22,0.1,0.22,0.22
				S60.34,476.71,60.22,476.71z"/>
		</g>
	</g>
</g>
</svg>
