<?xml version="1.0" encoding="utf-8"?>
<!-- Generator: Adobe Illustrator 25.0.1, SVG Export Plug-In . SVG Version: 6.00 Build 0)  -->
<svg version="1.1" id="Capa_1" xmlns="http://www.w3.org/2000/svg" xmlns:xlink="http://www.w3.org/1999/xlink" x="0px" y="0px"
	 viewBox="0 0 35.47 22.91" style="enable-background:new 0 0 35.47 22.91;" xml:space="preserve">
<style type="text/css">
	.st0{fill:#808181;}
</style>
<g>
	<path class="st0" d="M35.17,13.99c-1.55-1.71-3.16-3.15-4.82-4.34l3.13-4.51c0.13-0.19,0.09-0.46-0.11-0.59
		c-0.19-0.13-0.46-0.09-0.59,0.11l-3.13,4.51c-1.01-0.67-2.03-1.25-3.07-1.72c-1.44-0.66-2.91-1.16-4.35-1.51l0.98-5.43
		c0.04-0.23-0.11-0.45-0.34-0.49c-0.23-0.04-0.45,0.11-0.49,0.34l-0.98,5.4c-1.2-0.24-2.39-0.37-3.53-0.39l-0.16,0l-0.1,0
		c-1.15,0.01-2.34,0.15-3.54,0.39l-1.12-5.34c-0.05-0.23-0.27-0.38-0.5-0.33c-0.23,0.05-0.38,0.27-0.33,0.5l1.12,5.34
		c-1.45,0.35-2.91,0.85-4.35,1.51C7.83,7.92,6.8,8.5,5.78,9.18L2.07,4.93c-0.15-0.18-0.42-0.19-0.6-0.04
		c-0.18,0.15-0.19,0.42-0.04,0.6l3.65,4.18c-1.65,1.18-3.25,2.62-4.79,4.31c-0.41,0.46-0.39,1.17,0.06,1.58
		c2.36,2.2,8.77,7.33,17.25,7.35l0.12,0l0.11,0c0,0,0.01,0,0.01,0c0.01,0,0.02,0,0.02,0h0c8.49-0.01,14.89-5.14,17.25-7.35
		C35.56,15.15,35.59,14.44,35.17,13.99z M34.53,14.95c-2.28,2.14-8.48,7.11-16.67,7.12c0,0-0.01,0-0.02,0l-0.12,0l-0.12,0
		c-8.17-0.01-14.38-4.98-16.67-7.12c-0.11-0.1-0.11-0.28-0.01-0.39c1.62-1.78,3.3-3.27,5.03-4.47c0.01-0.01,0.03-0.01,0.04-0.02
		c0.01-0.01,0.02-0.02,0.02-0.03c1.05-0.72,2.13-1.33,3.21-1.83c2.81-1.28,5.71-1.98,8.38-2l0.09,0l0.15,0
		c2.66,0.03,5.56,0.72,8.37,2c2.89,1.32,5.69,3.45,8.31,6.34C34.64,14.67,34.64,14.85,34.53,14.95z"/>
	<path class="st0" d="M17.73,8.65c-3.12,0-5.66,2.46-5.66,5.49s2.54,5.49,5.66,5.49s5.66-2.46,5.66-5.49S20.85,8.65,17.73,8.65z
		 M17.73,18.77c-2.65,0-4.81-2.08-4.81-4.64s2.16-4.64,4.81-4.64s4.81,2.08,4.81,4.64S20.38,18.77,17.73,18.77z"/>
</g>
</svg>
