<?xml version="1.0" encoding="utf-8"?>
<!-- Generator: Adobe Illustrator 25.0.1, SVG Export Plug-In . SVG Version: 6.00 Build 0)  -->
<svg version="1.1" id="Capa_1" xmlns="http://www.w3.org/2000/svg" xmlns:xlink="http://www.w3.org/1999/xlink" x="0px" y="0px"
	 viewBox="0 0 24.05 34.2" style="enable-background:new 0 0 24.05 34.2;" xml:space="preserve">
<style type="text/css">
	.st0{fill:#808181;}
</style>
<path class="st0" d="M23.63,26.3c-0.23,0-0.43,0.19-0.43,0.43c0,3.65-2.97,6.63-6.63,6.63s-6.63-2.97-6.63-6.63v-4.27
	c5.06-0.22,9.1-4.4,9.1-9.51V6.92c0-0.23-0.19-0.42-0.42-0.42h-3.42V0.42c0-0.23-0.19-0.42-0.42-0.42s-0.42,0.19-0.42,0.42v6.07
	H4.69V0.42C4.69,0.19,4.5,0,4.27,0S3.85,0.19,3.85,0.42v6.07H0.42C0.19,6.49,0,6.68,0,6.92v6.03c0,5.11,4.05,9.28,9.1,9.51v4.27
	c0,4.12,3.35,7.48,7.48,7.48s7.48-3.35,7.48-7.48C24.05,26.49,23.86,26.3,23.63,26.3z M0.85,12.95V7.34H18.2v5.61
	c0,4.78-3.89,8.68-8.68,8.68c0,0,0,0,0,0s0,0,0,0C4.74,21.63,0.85,17.73,0.85,12.95z"/>
</svg>
