<?xml version="1.0" encoding="utf-8"?>
<!-- Generator: Adobe Illustrator 24.0.2, SVG Export Plug-In . SVG Version: 6.00 Build 0)  -->
<svg version="1.1" id="Capa_1" xmlns="http://www.w3.org/2000/svg" xmlns:xlink="http://www.w3.org/1999/xlink" x="0px" y="0px"
	 viewBox="0 0 37.9 189.9" style="enable-background:new 0 0 37.9 189.9;" xml:space="preserve">
<style type="text/css">
	.st0{fill:#808181;}
	.st1{fill:none;stroke:#808181;stroke-width:0.5669;stroke-linecap:round;stroke-linejoin:round;stroke-miterlimit:10;}
</style>
<g>
	<g>
		<g>
			<path class="st0" d="M24.8,129.9h-0.2c0,0,0,0,0-0.1s0-0.1,0-0.1h0.2C24.8,129.8,24.8,129.8,24.8,129.9
				C24.8,129.8,24.8,129.9,24.8,129.9z"/>
		</g>
	</g>
	<g>
		<g>
			<path class="st0" d="M25.1,128.1C25.1,128.1,25.1,128,25.1,128.1c0-0.1,0-0.1,0-0.1c0.1,0,0.2-0.1,0.2-0.2c0-0.1-0.1-0.2-0.2-0.2
				c0,0,0,0,0-0.1s0-0.1,0-0.1c0.2,0,0.3,0.2,0.3,0.3C25.5,127.9,25.3,128.1,25.1,128.1z"/>
		</g>
	</g>
	<g>
		<g>
			<path class="st0" d="M25.1,128.1c-0.2,0-0.3-0.2-0.3-0.3s0.1-0.3,0.3-0.3c0,0,0,0,0,0.1s0,0.1,0,0.1c-0.1,0-0.2,0.1-0.2,0.2
				C24.9,127.9,25,128,25.1,128.1C25.2,128,25.2,128,25.1,128.1C25.2,128,25.2,128.1,25.1,128.1z"/>
		</g>
	</g>
	<g>
		<g>
			<path class="st0" d="M25.1,132C25.1,132,25.1,132,25.1,132c0-0.1,0-0.1,0-0.1c0.1,0,0.2-0.1,0.2-0.2c0-0.1-0.1-0.2-0.2-0.2
				c0,0,0,0,0-0.1s0-0.1,0-0.1c0.2,0,0.3,0.1,0.3,0.3C25.5,131.9,25.3,132,25.1,132z"/>
		</g>
	</g>
	<g>
		<g>
			<path class="st0" d="M25.1,132c-0.2,0-0.3-0.1-0.3-0.3c0-0.2,0.1-0.3,0.3-0.3c0,0,0,0,0,0.1s0,0.1,0,0.1c-0.1,0-0.2,0.1-0.2,0.2
				c0,0.1,0.1,0.2,0.2,0.2C25.2,131.9,25.2,131.9,25.1,132C25.2,132,25.2,132,25.1,132z"/>
		</g>
	</g>
	<g>
		<g>
			<path class="st0" d="M24.6,131.2c-0.3,0-0.5-0.2-0.5-0.5c0-0.1,0-0.1,0.1-0.1s0.1,0,0.1,0.1c0,0.2,0.1,0.3,0.3,0.3
				c0,0,0.1,0,0.1,0.1S24.6,131.2,24.6,131.2z"/>
		</g>
	</g>
	<g>
		<g>
			<path class="st0" d="M25.2,129.1C25.2,129.1,25.2,129.1,25.2,129.1l0-0.1c0,0,0-0.1,0-0.1c0,0,0,0,0,0.1L25.2,129.1
				C25.3,129.1,25.3,129.1,25.2,129.1z"/>
		</g>
	</g>
	<g>
		<g>
			<path class="st0" d="M25.1,129.2C25.1,129.2,25.1,129.2,25.1,129.2C25.1,129.1,25.1,129.1,25.1,129.2l0-0.2c0,0,0,0,0.1,0
				c0,0,0,0.1,0,0.1L25.1,129.2C25.2,129.2,25.2,129.2,25.1,129.2z"/>
		</g>
	</g>
	<g>
		<g>
			<path class="st0" d="M25.1,129.2C25.1,129.2,25.1,129.1,25.1,129.2l0-0.3c0,0,0-0.1,0-0.1s0,0,0,0.1L25.1,129.2
				C25.2,129.1,25.2,129.2,25.1,129.2z"/>
		</g>
	</g>
	<g>
		<g>
			<path class="st0" d="M25.2,129C25.2,129,25.2,129,25.2,129l-0.1-0.1c0,0,0-0.1,0-0.1c0,0,0,0,0.1,0L25.2,129
				C25.3,129,25.3,129,25.2,129C25.3,129,25.3,129,25.2,129z"/>
		</g>
	</g>
	<g>
		<g>
			<path class="st0" d="M21.7,7.4H9.5c-0.1,0-0.1,0-0.1-0.1c0-0.1,0-0.1,0.1-0.1h12.2c0,0,0.1,0,0.1,0.1C21.8,7.3,21.7,7.4,21.7,7.4
				z"/>
		</g>
	</g>
	<g>
		<g>
			<path class="st0" d="M24,128.8c0,0-0.1,0-0.1-0.1c0-0.2,0.1-0.3,0.2-0.4c0,0,0.1,0,0.1,0c0,0,0,0.1,0,0.1
				C24.2,128.5,24.1,128.6,24,128.8C24.1,128.8,24.1,128.8,24,128.8z"/>
		</g>
	</g>
	<g>
		<g>
			<path class="st0" d="M24,130.8c0,0-0.1,0-0.1-0.1v-2c0-0.1,0-0.1,0.1-0.1c0,0,0.1,0,0.1,0.1v2C24.1,130.8,24.1,130.8,24,130.8z"
				/>
		</g>
	</g>
	<g>
		<g>
			<path class="st0" d="M24.2,131.2C24.2,131.2,24.2,131.2,24.2,131.2c-0.2-0.1-0.3-0.3-0.3-0.5c0-0.1,0-0.1,0.1-0.1
				c0,0,0.1,0,0.1,0.1c0,0.1,0,0.2,0.1,0.3C24.3,131.1,24.3,131.1,24.2,131.2C24.3,131.2,24.2,131.2,24.2,131.2z"/>
		</g>
	</g>
	<g>
		<g>
			<path class="st0" d="M26.1,131.2C26.1,131.2,26.1,131.2,26.1,131.2C26,131.1,26,131,26,131c0.1-0.1,0.1-0.2,0.1-0.3
				c0-0.1,0-0.1,0.1-0.1s0.1,0,0.1,0.1C26.4,130.9,26.3,131,26.1,131.2C26.1,131.2,26.1,131.2,26.1,131.2z"/>
		</g>
	</g>
	<g>
		<g>
			<path class="st0" d="M26.3,130.8c0,0-0.1,0-0.1-0.1v-2c0-0.1,0-0.1,0.1-0.1s0.1,0,0.1,0.1v2C26.4,130.8,26.3,130.8,26.3,130.8z"
				/>
		</g>
	</g>
	<g>
		<g>
			<path class="st0" d="M26.3,128.8c0,0-0.1,0-0.1-0.1c0-0.1,0-0.2-0.1-0.3c0,0,0-0.1,0-0.1c0,0,0.1,0,0.1,0
				c0.1,0.1,0.2,0.3,0.2,0.4C26.4,128.8,26.3,128.8,26.3,128.8z"/>
		</g>
	</g>
	<g>
		<g>
			<path class="st0" d="M25.1,131.9C25.1,131.9,25.1,131.9,25.1,131.9l-0.1-0.1c0,0,0,0,0,0s0,0,0,0l0.1-0.1c0,0,0,0,0.1,0l0.1,0.1
				c0,0,0,0.1,0,0.1L25.1,131.9C25.2,131.9,25.2,131.9,25.1,131.9z M25.1,131.7L25.1,131.7L25.1,131.7L25.1,131.7L25.1,131.7z"/>
		</g>
	</g>
	<g>
		<g>
			<path class="st0" d="M25.1,127.9C25.1,127.9,25.1,127.9,25.1,127.9l-0.1-0.1c0,0,0,0,0,0s0,0,0,0l0.1-0.1c0,0,0,0,0.1,0l0.1,0.1
				c0,0,0,0.1,0,0.1L25.1,127.9C25.2,127.9,25.2,127.9,25.1,127.9z M25.1,127.7L25.1,127.7L25.1,127.7L25.1,127.7L25.1,127.7z"/>
		</g>
	</g>
	<g>
		<g>
			<path class="st0" d="M23.2,150.4c-0.6,0-1-0.5-1-1c0-0.6,0.5-1,1-1c0.6,0,1,0.5,1,1S23.7,150.4,23.2,150.4z M23.2,148.4
				c-0.5,0-0.9,0.4-0.9,0.9s0.4,0.9,0.9,0.9s1-0.4,1-0.9C24.1,148.9,23.7,148.4,23.2,148.4z"/>
		</g>
	</g>
	<g>
		<g>
			<path class="st0" d="M23.2,153.5c-0.6,0-1-0.5-1-1c0-0.6,0.5-1,1-1c0.6,0,1,0.5,1,1S23.7,153.5,23.2,153.5z M23.2,151.5
				c-0.5,0-0.9,0.4-0.9,0.9c0,0.5,0.4,0.9,0.9,0.9s1-0.4,1-0.9C24.1,151.9,23.7,151.5,23.2,151.5z"/>
		</g>
	</g>
	<g>
		<g>
			<path class="st0" d="M26.2,128.6C26.2,128.6,26.2,128.6,26.2,128.6l-0.6-0.9c0-0.1,0-0.1,0-0.1c0,0,0.1,0,0.1,0l0.5,0.9
				C26.3,128.5,26.3,128.5,26.2,128.6C26.3,128.6,26.2,128.6,26.2,128.6z"/>
		</g>
	</g>
	<g>
		<g>
			<path class="st0" d="M25.7,127.7C25.7,127.7,25.6,127.7,25.7,127.7c-0.2-0.2-0.3-0.3-0.4-0.3s-0.3,0-0.4,0.1l-0.2,0.2
				c0,0-0.1,0-0.1,0s0-0.1,0-0.1l0.2-0.2c0.2-0.1,0.4-0.2,0.6-0.1s0.4,0.2,0.5,0.3C25.8,127.6,25.8,127.6,25.7,127.7
				C25.7,127.7,25.7,127.7,25.7,127.7z"/>
		</g>
	</g>
	<g>
		<g>
			<path class="st0" d="M24.1,128.6C24,128.6,24,128.6,24.1,128.6c-0.1,0-0.1-0.1-0.1-0.1l0.5-0.9c0-0.1,0.1-0.1,0.1,0
				c0,0,0.1,0.1,0,0.1L24.1,128.6C24.1,128.6,24.1,128.6,24.1,128.6z"/>
		</g>
	</g>
	<g>
		<g>
			<path class="st0" d="M24,128.9C24,128.9,24,128.9,24,128.9c-0.1,0-0.1-0.1-0.1-0.1l0.1-0.3c0-0.1,0.1-0.1,0.1-0.1
				c0,0,0.1,0.1,0.1,0.1L24,128.9C24.1,128.8,24,128.9,24,128.9z"/>
		</g>
	</g>
	<g>
		<g>
			<path class="st0" d="M24,130.8c0,0-0.1,0-0.1-0.1v-1.9c0-0.1,0-0.1,0.1-0.1s0.1,0,0.1,0.1v1.9C24.1,130.7,24,130.8,24,130.8z"/>
		</g>
	</g>
	<g>
		<g>
			<path class="st0" d="M24.1,131.1C24,131.1,24,131,24.1,131.1l-0.2-0.4c0-0.1,0-0.1,0.1-0.1c0,0,0.1,0,0.1,0.1l0.1,0.3
				C24.2,131,24.1,131,24.1,131.1C24.1,131.1,24.1,131.1,24.1,131.1z"/>
		</g>
	</g>
	<g>
		<g>
			<path class="st0" d="M24.6,131.9C24.6,131.9,24.5,131.9,24.6,131.9L24,131c0-0.1,0-0.1,0-0.1c0,0,0.1,0,0.1,0l0.5,0.9
				C24.7,131.8,24.7,131.9,24.6,131.9C24.6,131.9,24.6,131.9,24.6,131.9z"/>
		</g>
	</g>
	<g>
		<g>
			<path class="st0" d="M25.1,132.3c-0.1,0-0.1,0-0.2,0c-0.2-0.1-0.4-0.2-0.5-0.3c0-0.1,0-0.1,0-0.1c0,0,0.1,0,0.1,0
				c0.1,0.1,0.2,0.2,0.3,0.3s0.3,0,0.4-0.1l0.2-0.2c0,0,0.1,0,0.1,0c0,0,0,0.1,0,0.1l-0.2,0.2C25.4,132.2,25.3,132.3,25.1,132.3z"/>
		</g>
	</g>
	<g>
		<g>
			<path class="st0" d="M25.7,131.9C25.7,131.9,25.7,131.9,25.7,131.9c-0.1,0-0.1-0.1-0.1-0.1l0.5-0.9c0-0.1,0.1-0.1,0.1,0
				c0,0,0.1,0.1,0,0.1L25.7,131.9C25.8,131.9,25.7,131.9,25.7,131.9z"/>
		</g>
	</g>
	<g>
		<g>
			<path class="st0" d="M26.2,131.1C26.2,131.1,26.2,131.1,26.2,131.1c-0.1,0-0.1-0.1-0.1-0.1l0.1-0.3c0-0.1,0.1-0.1,0.1-0.1
				c0,0,0.1,0.1,0.1,0.1L26.2,131.1C26.3,131,26.3,131.1,26.2,131.1z"/>
		</g>
	</g>
	<g>
		<g>
			<path class="st0" d="M26.3,130.8c0,0-0.1,0-0.1-0.1v-1.9c0-0.1,0-0.1,0.1-0.1s0.1,0,0.1,0.1v1.9
				C26.4,130.7,26.4,130.8,26.3,130.8z"/>
		</g>
	</g>
	<g>
		<g>
			<path class="st0" d="M26.3,128.9C26.3,128.9,26.2,128.8,26.3,128.9l-0.2-0.4c0-0.1,0-0.1,0.1-0.1c0,0,0.1,0,0.1,0.1l0.1,0.3
				C26.4,128.8,26.4,128.9,26.3,128.9C26.3,128.9,26.3,128.9,26.3,128.9z"/>
		</g>
	</g>
	<g>
		<g>
			<path class="st0" d="M24.6,154.6h-3c0,0-0.1,0-0.1-0.1s0-0.1,0.1-0.1h3c0,0,0.1,0,0.1,0.1S24.7,154.6,24.6,154.6z"/>
		</g>
	</g>
	<g>
		<g>
			<path class="st0" d="M21.7,154.6c0,0-0.1,0-0.1-0.1V77.3c0-0.1,0-0.1,0.1-0.1s0.1,0,0.1,0.1v77.2
				C21.8,154.6,21.7,154.6,21.7,154.6z"/>
		</g>
	</g>
	<g>
		<g>
			<path class="st0" d="M27.1,77.4h-5.5c0,0-0.1,0-0.1-0.1s0-0.1,0.1-0.1h5.5C27.2,77.2,27.2,77.3,27.1,77.4
				C27.2,77.4,27.2,77.4,27.1,77.4z"/>
		</g>
	</g>
	<g>
		<g>
			<path class="st0" d="M27.1,139.7h-2.5c0,0-0.1,0-0.1-0.1s0-0.1,0.1-0.1h2.5c0,0,0.1,0,0.1,0.1S27.2,139.7,27.1,139.7z"/>
		</g>
	</g>
	<g>
		<g>
			<path class="st0" d="M24.6,154.6c0,0-0.1,0-0.1-0.1v-14.9c0-0.1,0-0.1,0.1-0.1s0.1,0,0.1,0.1v14.9
				C24.8,154.6,24.7,154.6,24.6,154.6z"/>
		</g>
	</g>
	<g>
		<g>
			<path class="st0" d="M27.1,139.7c0,0-0.1,0-0.1-0.1V77.3c0-0.1,0-0.1,0.1-0.1s0.1,0,0.1,0.1v62.3
				C27.2,139.7,27.2,139.7,27.1,139.7z"/>
		</g>
	</g>
	<g>
		<g>
			<path class="st0" d="M24.4,3.3c-0.6,0-1-0.5-1-1s0.5-1,1-1c0.6,0,1,0.5,1,1C25.4,2.8,25,3.3,24.4,3.3z M24.4,1.3
				c-0.5,0-1,0.4-1,0.9s0.4,1,1,1c0.5,0,0.9-0.4,0.9-1C25.4,1.7,24.9,1.3,24.4,1.3z"/>
		</g>
	</g>
	<g>
		<g>
			<path class="st0" d="M24.4,6.3c-0.6,0-1-0.5-1-1s0.5-1,1-1c0.6,0,1,0.5,1,1C25.4,5.9,25,6.3,24.4,6.3z M24.4,4.4
				c-0.5,0-1,0.4-1,0.9c0,0.5,0.4,0.9,1,0.9c0.5,0,0.9-0.4,0.9-0.9C25.4,4.8,24.9,4.4,24.4,4.4z"/>
		</g>
	</g>
	<g>
		<g>
			<path class="st0" d="M27.1,0.2h-5.5c0,0-0.1,0-0.1-0.1s0-0.1,0.1-0.1h5.5c0,0,0.1,0,0.1,0.1S27.2,0.2,27.1,0.2z"/>
		</g>
	</g>
	<g>
		<g>
			<path class="st0" d="M21.7,77.4c0,0-0.1,0-0.1-0.1V0.1c0,0,0-0.1,0.1-0.1s0.1,0,0.1,0.1v77.2C21.8,77.4,21.7,77.4,21.7,77.4z"/>
		</g>
	</g>
	<g>
		<g>
			<path class="st0" d="M27.1,77.4h-5.5c0,0-0.1,0-0.1-0.1s0-0.1,0.1-0.1h5.5C27.2,77.2,27.2,77.3,27.1,77.4
				C27.2,77.4,27.2,77.4,27.1,77.4z"/>
		</g>
	</g>
	<g>
		<g>
			<path class="st0" d="M27.1,77.4c0,0-0.1,0-0.1-0.1V0.1c0,0,0-0.1,0.1-0.1s0.1,0,0.1,0.1v77.2C27.2,77.4,27.2,77.4,27.1,77.4z"/>
		</g>
	</g>
	<g>
		<g>
			<path class="st0" d="M17.4,33.6C17.4,33.6,17.3,33.6,17.4,33.6C17.3,33.5,17.3,33.5,17.4,33.6l1.1-0.4c0,0,0,0,0.1,0
				c0,0,0,0,0,0.1L17.4,33.6L17.4,33.6z"/>
		</g>
	</g>
	<g>
		<g>
			<path class="st0" d="M18.5,33.2C18.5,33.2,18.5,33.2,18.5,33.2C18.5,33.2,18.5,33.2,18.5,33.2c0.1-0.1,0.2-0.3,0.2-0.4
				c0,0,0,0,0-0.1c0,0,0,0,0.1,0C18.8,33,18.7,33.2,18.5,33.2C18.5,33.2,18.5,33.2,18.5,33.2z"/>
		</g>
	</g>
	<g>
		<g>
			<path class="st0" d="M18.7,32.9C18.7,32.9,18.7,32.9,18.7,32.9l-4.2-13.7c0,0,0,0,0-0.1c0,0,0.1,0,0.1,0L18.7,32.9
				C18.8,32.8,18.8,32.9,18.7,32.9C18.7,32.9,18.7,32.9,18.7,32.9z"/>
		</g>
	</g>
	<g>
		<g>
			<path class="st0" d="M14.6,19.2C14.6,19.2,14.6,19.2,14.6,19.2c-0.1-0.1-0.1-0.2-0.2-0.2c-0.1,0-0.1,0-0.2,0c0,0-0.1,0-0.1,0
				c0,0,0,0,0-0.1c0.1,0,0.2,0,0.3,0C14.5,19,14.6,19,14.6,19.2C14.6,19.1,14.6,19.2,14.6,19.2L14.6,19.2z"/>
		</g>
	</g>
	<g>
		<g>
			<path class="st0" d="M13.1,19.3C13,19.3,13,19.3,13.1,19.3C13,19.3,13,19.2,13.1,19.3l1.1-0.4c0,0,0.1,0,0.1,0s0,0,0,0.1
				L13.1,19.3C13.1,19.3,13.1,19.3,13.1,19.3z"/>
		</g>
	</g>
	<g>
		<g>
			<path class="st0" d="M21.7,7.4H9.5c-0.1,0-0.1,0-0.1-0.1c0-0.1,0-0.1,0.1-0.1h12.2c0,0,0.1,0,0.1,0.1C21.8,7.3,21.7,7.4,21.7,7.4
				z"/>
		</g>
	</g>
	<g>
		<g>
			<path class="st0" d="M21.7,47.9C21.6,47.9,21.6,47.8,21.7,47.9l-4.4-14.3c0,0,0-0.1,0.1-0.1c0,0,0.1,0,0.1,0.1l4.3,14.2
				C21.8,47.8,21.7,47.8,21.7,47.9C21.7,47.9,21.7,47.9,21.7,47.9z"/>
		</g>
	</g>
	<g>
		<g>
			<path class="st0" d="M13.1,19.4C13,19.4,13,19.3,13.1,19.4L9.4,7.3c0-0.1,0-0.1,0.1-0.1s0.1,0,0.1,0.1l3.6,12
				C13.2,19.3,13.1,19.3,13.1,19.4C13.1,19.4,13.1,19.4,13.1,19.4z"/>
		</g>
	</g>
	<g>
		<g>
			<path class="st0" d="M21.7,47.9C21.6,47.9,21.6,47.8,21.7,47.9L9.4,7.3c0-0.1,0-0.1,0.1-0.1s0.1,0,0.1,0.1l12.2,40.5
				C21.8,47.8,21.8,47.8,21.7,47.9C21.7,47.9,21.7,47.9,21.7,47.9z"/>
		</g>
	</g>
	<g>
		<g>
			<path class="st0" d="M21.7,67H8.5c-0.1,0-0.1,0-0.1-0.1V7.3c0-0.1,0-0.1,0.1-0.1h1c0.1,0,0.1,0,0.1,0.1c0,0.1,0,0.1-0.1,0.1H8.6
				v59.4h13.1c0,0,0.1,0,0.1,0.1S21.7,67,21.7,67z"/>
		</g>
	</g>
	<g>
		<g>
			<path class="st0" d="M21.7,67H8.5c-0.1,0-0.1,0-0.1-0.1s0-0.1,0.1-0.1h13.2c0,0,0.1,0,0.1,0.1S21.7,67,21.7,67z"/>
		</g>
	</g>
	<g>
		<g>
			<path class="st0" d="M9.5,7.4h-1c-0.1,0-0.1,0-0.1-0.1c0-0.1,0-0.1,0.1-0.1h1c0.1,0,0.1,0,0.1,0.1C9.6,7.3,9.5,7.4,9.5,7.4z"/>
		</g>
	</g>
	<g>
		<g>
			<path class="st0" d="M21.7,47.9C21.6,47.9,21.6,47.8,21.7,47.9L9.4,7.3c0-0.1,0-0.1,0.1-0.1s0.1,0,0.1,0.1l12.2,40.5
				C21.8,47.8,21.8,47.8,21.7,47.9C21.7,47.9,21.7,47.9,21.7,47.9z"/>
		</g>
	</g>
	<g>
		<g>
			<path class="st0" d="M24.5,129.9C24.5,129.9,24.5,129.8,24.5,129.9l0-0.3c0,0,0-0.1,0-0.1s0,0,0,0.1L24.5,129.9
				C24.5,129.8,24.5,129.9,24.5,129.9z"/>
		</g>
	</g>
	<g>
		<g>
			<path class="st0" d="M25.5,129.2h-0.4c0,0,0,0,0-0.1s0-0.1,0-0.1h0.4C25.6,129.1,25.6,129.1,25.5,129.2
				C25.6,129.1,25.6,129.2,25.5,129.2z"/>
		</g>
	</g>
	<g>
		<g>
			<path class="st0" d="M25.5,129.2C25.5,129.2,25.5,129.2,25.5,129.2l-0.1-0.1c0,0,0-0.1,0-0.1c0,0,0,0,0.1,0L25.5,129.2
				C25.6,129.1,25.6,129.1,25.5,129.2C25.6,129.2,25.6,129.2,25.5,129.2z"/>
		</g>
	</g>
	<g>
		<g>
			<path class="st0" d="M25.1,129.9h-0.4c0,0,0,0,0-0.1s0-0.1,0-0.1h0.4C25.2,129.8,25.2,129.8,25.1,129.9
				C25.2,129.8,25.2,129.9,25.1,129.9z"/>
		</g>
	</g>
	<g>
		<g>
			<path class="st0" d="M25.5,130.6h-0.4c0,0,0,0,0-0.1s0-0.1,0-0.1h0.4C25.6,130.5,25.6,130.5,25.5,130.6
				C25.6,130.5,25.6,130.6,25.5,130.6z"/>
		</g>
	</g>
	<g>
		<g>
			<path class="st0" d="M25.5,130.6C25.5,130.6,25.5,130.5,25.5,130.6l0-0.3c0,0,0-0.1,0-0.1s0,0,0,0.1L25.5,130.6
				C25.6,130.5,25.6,130.6,25.5,130.6z"/>
		</g>
	</g>
	<g>
		<g>
			<path class="st0" d="M25.5,130.6C25.5,130.6,25.5,130.6,25.5,130.6l-0.1-0.1c0,0,0-0.1,0-0.1c0,0,0,0,0.1,0L25.5,130.6
				C25.6,130.5,25.6,130.5,25.5,130.6C25.6,130.6,25.6,130.6,25.5,130.6z"/>
		</g>
	</g>
	<g>
		<g>
			<path class="st0" d="M25.5,130.5C25.4,130.5,25.4,130.5,25.5,130.5l0-0.1c0,0,0-0.1,0-0.1s0,0,0,0.1L25.5,130.5
				C25.5,130.5,25.5,130.5,25.5,130.5z"/>
		</g>
	</g>
	<g>
		<g>
			<path class="st0" d="M25.5,130.5h-0.2c0,0,0,0,0-0.1s0-0.1,0-0.1h0.2C25.5,130.4,25.5,130.4,25.5,130.5
				C25.5,130.5,25.5,130.5,25.5,130.5z"/>
		</g>
	</g>
	<g>
		<g>
			<path class="st0" d="M24.2,128.9c0,0-0.1,0-0.1-0.1c0-0.3,0.2-0.5,0.5-0.5c0,0,0.1,0,0.1,0.1s0,0.1-0.1,0.1
				C24.4,128.5,24.3,128.6,24.2,128.9C24.3,128.8,24.2,128.9,24.2,128.9z"/>
		</g>
	</g>
	<g>
		<g>
			<path class="st0" d="M25.7,128.4h-1.2c0,0-0.1,0-0.1-0.1s0-0.1,0.1-0.1h1.2c0,0,0.1,0,0.1,0.1S25.8,128.4,25.7,128.4z"/>
		</g>
	</g>
	<g>
		<g>
			<path class="st0" d="M26.1,128.9c0,0-0.1,0-0.1-0.1c0-0.2-0.1-0.3-0.3-0.3c0,0-0.1,0-0.1-0.1s0-0.1,0.1-0.1
				c0.3,0,0.5,0.2,0.5,0.5C26.2,128.8,26.2,128.9,26.1,128.9z"/>
		</g>
	</g>
	<g>
		<g>
			<path class="st0" d="M25.1,131.9C25.1,131.9,25.1,131.9,25.1,131.9C25.1,131.9,25.1,131.9,25.1,131.9l0.1-0.2l-0.1-0.1
				c0,0,0-0.1,0-0.1s0,0,0.1,0l0.2,0.2c0,0,0,0,0,0s0,0,0,0L25.1,131.9C25.2,131.9,25.2,131.9,25.1,131.9z"/>
		</g>
	</g>
	<g>
		<g>
			<path class="st0" d="M25.1,127.9C25.1,127.9,25.1,127.9,25.1,127.9C25.1,127.9,25.1,127.9,25.1,127.9l0.1-0.2l-0.1-0.1
				c0,0,0-0.1,0-0.1s0,0,0.1,0l0.2,0.2c0,0,0,0,0,0s0,0,0,0L25.1,127.9C25.2,127.9,25.2,127.9,25.1,127.9z"/>
		</g>
	</g>
	<g>
		<g>
			<path class="st0" d="M25.1,132.2c-0.1,0-0.1,0-0.2,0c-0.2,0-0.3-0.2-0.4-0.3c0-0.1,0-0.1,0-0.1c0,0,0.1,0,0.1,0
				c0.1,0.1,0.2,0.2,0.3,0.2s0.3,0,0.4-0.1l0.2-0.2c0,0,0.1,0,0.1,0c0,0,0,0.1,0,0.1l-0.2,0.2C25.4,132.2,25.3,132.2,25.1,132.2z"/>
		</g>
	</g>
	<g>
		<g>
			<path class="st0" d="M25.5,129C25.4,129,25.4,129,25.5,129C25.4,129,25.4,129,25.5,129l0-0.2c0,0,0,0,0.1,0c0,0,0,0.1,0,0.1
				L25.5,129C25.5,129,25.5,129,25.5,129z"/>
		</g>
	</g>
	<g>
		<g>
			<path class="st0" d="M24.5,129.9L24.5,129.9C24.5,129.9,24.5,129.8,24.5,129.9c-0.1-0.1,0-0.1,0-0.1h0
				C24.6,129.8,24.6,129.8,24.5,129.9C24.6,129.8,24.5,129.9,24.5,129.9z"/>
		</g>
	</g>
	<g>
		<g>
			<path class="st0" d="M25.2,130.5C25.2,130.5,25.2,130.5,25.2,130.5l0-0.1c0,0,0-0.1,0-0.1s0,0,0,0.1L25.2,130.5
				C25.3,130.5,25.3,130.5,25.2,130.5z"/>
		</g>
	</g>
	<g>
		<g>
			<path class="st0" d="M25.1,130.6C25.1,130.6,25.1,130.6,25.1,130.6C25.1,130.5,25.1,130.5,25.1,130.6l0-0.2c0,0,0,0,0.1,0
				c0,0,0,0.1,0,0.1L25.1,130.6C25.2,130.6,25.2,130.6,25.1,130.6z"/>
		</g>
	</g>
	<g>
		<g>
			<path class="st0" d="M25.1,130.6C25.1,130.6,25.1,130.5,25.1,130.6l0-0.3c0,0,0-0.1,0-0.1s0,0,0,0.1L25.1,130.6
				C25.2,130.5,25.2,130.6,25.1,130.6z"/>
		</g>
	</g>
	<g>
		<g>
			<path class="st0" d="M25.3,129.9C25.2,129.9,25.2,129.8,25.3,129.9l0-0.3c0,0,0-0.1,0-0.1s0,0,0,0.1L25.3,129.9
				C25.3,129.8,25.3,129.9,25.3,129.9z"/>
		</g>
	</g>
	<g>
		<g>
			<path class="st0" d="M25.3,129.9h-0.1c0,0,0,0,0-0.1s0-0.1,0-0.1h0.1C25.3,129.8,25.3,129.8,25.3,129.9
				C25.3,129.8,25.3,129.9,25.3,129.9z"/>
		</g>
	</g>
	<g>
		<g>
			<path class="st0" d="M26.1,130.8c0,0-0.1,0-0.1-0.1v-1.9c0-0.1,0-0.1,0.1-0.1s0.1,0,0.1,0.1v1.9
				C26.2,130.7,26.2,130.8,26.1,130.8z"/>
		</g>
	</g>
	<g>
		<g>
			<path class="st0" d="M25.7,131.2c0,0-0.1,0-0.1-0.1s0-0.1,0.1-0.1c0.2,0,0.3-0.1,0.3-0.3c0-0.1,0-0.1,0.1-0.1s0.1,0,0.1,0.1
				C26.2,130.9,26,131.2,25.7,131.2z"/>
		</g>
	</g>
	<g>
		<g>
			<path class="st0" d="M25.1,131.9C25.1,131.9,25.1,131.9,25.1,131.9l-0.2-0.2c0,0,0-0.1,0-0.1l0.2-0.2c0,0,0,0,0.1,0s0,0.1,0,0.1
				l-0.1,0.1L25.1,131.9C25.2,131.9,25.2,131.9,25.1,131.9C25.2,131.9,25.2,131.9,25.1,131.9z"/>
		</g>
	</g>
	<g>
		<g>
			<path class="st0" d="M26.3,130.8c0,0-0.1,0-0.1-0.1v-1.9c0-0.1,0-0.1,0.1-0.1s0.1,0,0.1,0.1v1.9
				C26.4,130.7,26.3,130.8,26.3,130.8z"/>
		</g>
	</g>
	<g>
		<g>
			<path class="st0" d="M25.7,128.6h-0.9c0,0-0.1,0-0.1-0.1s0-0.1,0.1-0.1h0.9c0,0,0.1,0,0.1,0.1S25.8,128.6,25.7,128.6z"/>
		</g>
	</g>
	<g>
		<g>
			<path class="st0" d="M24.3,129.1C24.3,129.1,24.3,129.1,24.3,129.1c-0.1-0.1-0.1-0.1-0.1-0.2l0.5-0.5c0,0,0.1,0,0.1,0
				c0,0,0,0.1,0,0.1L24.3,129.1C24.4,129.1,24.4,129.1,24.3,129.1z"/>
		</g>
	</g>
	<g>
		<g>
			<path class="st0" d="M24.3,130.5c0,0-0.1,0-0.1-0.1V129c0-0.1,0-0.1,0.1-0.1s0.1,0,0.1,0.1v1.4C24.4,130.5,24.4,130.5,24.3,130.5
				z"/>
		</g>
	</g>
	<g>
		<g>
			<path class="st0" d="M24.8,131C24.8,131,24.8,131,24.8,131l-0.6-0.5c0,0,0-0.1,0-0.1s0.1,0,0.1,0l0.5,0.5
				C25,130.9,25,131,24.8,131C24.9,131,24.9,131,24.8,131z"/>
		</g>
	</g>
	<g>
		<g>
			<path class="st0" d="M25.7,131h-0.9c0,0-0.1,0-0.1-0.1s0-0.1,0.1-0.1h0.9c0,0,0.1,0,0.1,0.1S25.8,131,25.7,131z"/>
		</g>
	</g>
	<g>
		<g>
			<path class="st0" d="M25.7,131c0,0-0.1,0-0.1-0.1s0-0.1,0.1-0.1c0.1,0,0.1-0.1,0.1-0.1c0-0.1,0-0.1,0.1-0.1s0.1,0,0.1,0.1
				C26,130.9,25.9,131,25.7,131z"/>
		</g>
	</g>
	<g>
		<g>
			<path class="st0" d="M26,130.8c0,0-0.1,0-0.1-0.1v-1.9c0-0.1,0-0.1,0.1-0.1s0.1,0,0.1,0.1v1.9C26,130.7,26,130.8,26,130.8z"/>
		</g>
	</g>
	<g>
		<g>
			<path class="st0" d="M26,128.9c0,0-0.1,0-0.1-0.1c0-0.1-0.1-0.1-0.1-0.1c0,0-0.1,0-0.1-0.1s0-0.1,0.1-0.1c0.2,0,0.3,0.1,0.3,0.3
				C26,128.8,26,128.9,26,128.9z"/>
		</g>
	</g>
	<g>
		<g>
			<path class="st0" d="M25.5,130.4h-0.2c0,0,0,0,0-0.1s0-0.1,0-0.1h0.2C25.5,130.3,25.5,130.3,25.5,130.4
				C25.5,130.4,25.5,130.4,25.5,130.4z"/>
		</g>
	</g>
	<g>
		<g>
			<path class="st0" d="M25.2,130.4C25.2,130.4,25.2,130.4,25.2,130.4l-0.1-0.1c0,0,0-0.1,0-0.1c0,0,0,0,0.1,0L25.2,130.4
				C25.3,130.4,25.3,130.4,25.2,130.4C25.3,130.4,25.3,130.4,25.2,130.4z"/>
		</g>
	</g>
	<g>
		<g>
			<path class="st0" d="M25.5,130.4h-0.4c0,0,0,0,0-0.1s0-0.1,0-0.1h0.4C25.6,130.3,25.6,130.3,25.5,130.4
				C25.6,130.3,25.6,130.4,25.5,130.4z"/>
		</g>
	</g>
	<g>
		<g>
			<path class="st0" d="M25.5,130.4C25.4,130.4,25.4,130.4,25.5,130.4C25.4,130.4,25.4,130.4,25.5,130.4l0-0.2c0,0,0,0,0.1,0
				c0,0,0,0.1,0,0.1L25.5,130.4C25.5,130.4,25.5,130.4,25.5,130.4z"/>
		</g>
	</g>
	<g>
		<g>
			<path class="st0" d="M24.1,128.6C24.1,128.6,24.1,128.6,24.1,128.6c-0.1,0-0.1-0.1-0.1-0.1l0.5-0.9c0,0,0.1-0.1,0.1,0
				c0,0,0.1,0.1,0,0.1L24.1,128.6C24.2,128.6,24.1,128.6,24.1,128.6z"/>
		</g>
	</g>
	<g>
		<g>
			<path class="st0" d="M25.5,129.1C25.4,129.1,25.4,129.1,25.5,129.1l0-0.1c0,0,0-0.1,0-0.1s0,0,0,0.1L25.5,129.1
				C25.5,129.1,25.5,129.1,25.5,129.1z"/>
		</g>
	</g>
	<g>
		<g>
			<path class="st0" d="M25.5,129.1h-0.2c0,0,0,0,0-0.1s0-0.1,0-0.1h0.2C25.5,129,25.5,129,25.5,129.1
				C25.5,129.1,25.5,129.1,25.5,129.1z"/>
		</g>
	</g>
	<g>
		<g>
			<path class="st0" d="M25.5,129h-0.2c0,0,0,0,0-0.1s0-0.1,0-0.1h0.2C25.5,128.9,25.5,129,25.5,129C25.5,129,25.5,129,25.5,129z"/>
		</g>
	</g>
	<g>
		<g>
			<path class="st0" d="M24.6,131.9C24.6,131.9,24.6,131.9,24.6,131.9L24,131c0-0.1,0-0.1,0-0.1c0,0,0.1,0,0.1,0l0.5,0.9
				C24.8,131.8,24.7,131.9,24.6,131.9C24.7,131.9,24.6,131.9,24.6,131.9z"/>
		</g>
	</g>
	<g>
		<g>
			<path class="st0" d="M26.3,128.9C26.2,128.9,26.2,128.8,26.3,128.9l-0.2-0.3c0-0.1,0-0.1,0.1-0.1c0,0,0.1,0,0.1,0.1l0.1,0.3
				C26.4,128.8,26.3,128.9,26.3,128.9C26.3,128.9,26.3,128.9,26.3,128.9z"/>
		</g>
	</g>
	<g>
		<g>
			<path class="st0" d="M24,128.9C24,128.9,24,128.9,24,128.9c-0.1,0-0.1-0.1-0.1-0.1l0.1-0.3c0-0.1,0.1-0.1,0.1-0.1
				c0,0,0.1,0.1,0.1,0.1L24,128.9C24.1,128.8,24.1,128.9,24,128.9z"/>
		</g>
	</g>
	<g>
		<g>
			<path class="st0" d="M25.5,129.2C25.5,129.2,25.5,129.1,25.5,129.2l0-0.3c0,0,0-0.1,0-0.1s0,0,0,0.1L25.5,129.2
				C25.6,129.1,25.6,129.2,25.5,129.2z"/>
		</g>
	</g>
	<g>
		<g>
			<path class="st0" d="M25.1,129.8h-0.2c0,0,0,0,0-0.1s0-0.1,0-0.1h0.2C25.1,129.7,25.1,129.7,25.1,129.8
				C25.1,129.8,25.1,129.8,25.1,129.8z"/>
		</g>
	</g>
	<g>
		<g>
			<path class="st0" d="M25.1,129.7h-0.2c0,0,0,0,0-0.1s0-0.1,0-0.1h0.2C25.1,129.6,25.1,129.7,25.1,129.7
				C25.1,129.7,25.1,129.7,25.1,129.7z"/>
		</g>
	</g>
	<g>
		<g>
			<path class="st0" d="M25.1,127.9C25.1,127.9,25.1,127.9,25.1,127.9l-0.2-0.2c0,0,0,0,0,0s0,0,0,0l0.2-0.2c0,0,0,0,0.1,0
				s0,0.1,0,0.1l-0.1,0.1L25.1,127.9C25.2,127.9,25.2,127.9,25.1,127.9C25.2,127.9,25.2,127.9,25.1,127.9z"/>
		</g>
	</g>
	<g>
		<g>
			<path class="st0" d="M25.7,127.7C25.6,127.7,25.6,127.7,25.7,127.7c-0.1-0.2-0.3-0.3-0.4-0.3c-0.1,0-0.3,0-0.4,0.1l-0.2,0.2
				c0,0-0.1,0-0.1,0c0,0,0-0.1,0-0.1l0.2-0.2c0.2-0.1,0.4-0.1,0.5-0.1c0.2,0,0.3,0.2,0.4,0.3C25.8,127.6,25.7,127.7,25.7,127.7
				C25.7,127.7,25.7,127.7,25.7,127.7z"/>
		</g>
	</g>
	<g>
		<g>
			<path class="st0" d="M26.2,128.6C26.2,128.6,26.1,128.6,26.2,128.6l-0.6-0.9c0-0.1,0-0.1,0-0.1c0,0,0.1,0,0.1,0l0.5,0.9
				C26.3,128.5,26.3,128.5,26.2,128.6C26.2,128.6,26.2,128.6,26.2,128.6z"/>
		</g>
	</g>
	<g>
		<g>
			<path class="st0" d="M24.2,130.8c0,0-0.1,0-0.1-0.1v-1.9c0-0.1,0-0.1,0.1-0.1s0.1,0,0.1,0.1v1.9
				C24.3,130.7,24.2,130.8,24.2,130.8z"/>
		</g>
	</g>
	<g>
		<g>
			<path class="st0" d="M24,130.8c0,0-0.1,0-0.1-0.1v-1.9c0-0.1,0-0.1,0.1-0.1s0.1,0,0.1,0.1v1.9C24.1,130.7,24.1,130.8,24,130.8z"
				/>
		</g>
	</g>
	<g>
		<g>
			<path class="st0" d="M25.5,129h-0.4c0,0,0,0,0-0.1s0-0.1,0-0.1h0.4C25.6,128.9,25.6,128.9,25.5,129C25.6,128.9,25.6,129,25.5,129
				z"/>
		</g>
	</g>
	<g>
		<g>
			<path class="st0" d="M26.2,131C26.2,131,26.2,131,26.2,131c-0.1,0-0.1-0.1-0.1-0.1l0.1-0.3c0-0.1,0.1-0.1,0.1-0.1
				c0,0,0.1,0.1,0.1,0.1L26.2,131C26.3,131,26.2,131,26.2,131z"/>
		</g>
	</g>
	<g>
		<g>
			<path class="st0" d="M24.1,131C24.1,131,24,131,24.1,131l-0.2-0.3c0-0.1,0-0.1,0.1-0.1c0,0,0.1,0,0.1,0.1l0.1,0.3
				C24.2,131,24.2,131,24.1,131C24.1,131,24.1,131,24.1,131z"/>
		</g>
	</g>
	<g>
		<g>
			<path class="st0" d="M25.1,129.9C25.1,129.9,25.1,129.9,25.1,129.9l-0.1-0.1c0,0,0-0.1,0-0.1c0,0,0,0,0.1,0L25.1,129.9
				C25.2,129.8,25.2,129.8,25.1,129.9C25.2,129.9,25.2,129.9,25.1,129.9z"/>
		</g>
	</g>
	<g>
		<g>
			<path class="st0" d="M25.1,129.8C25,129.8,25,129.8,25.1,129.8l0-0.1c0,0,0-0.1,0-0.1s0,0,0,0.1L25.1,129.8
				C25.1,129.8,25.1,129.8,25.1,129.8z"/>
		</g>
	</g>
	<g>
		<g>
			<path class="st0" d="M25.1,129.7C25,129.7,25,129.7,25.1,129.7C25,129.7,25,129.7,25.1,129.7l0-0.2c0,0,0,0,0.1,0
				c0,0,0,0.1,0,0.1L25.1,129.7C25.1,129.7,25.1,129.7,25.1,129.7z"/>
		</g>
	</g>
	<g>
		<g>
			<path class="st0" d="M25.1,129.9C25.1,129.9,25.1,129.8,25.1,129.9l0-0.3c0,0,0-0.1,0-0.1s0,0,0,0.1L25.1,129.9
				C25.2,129.8,25.2,129.9,25.1,129.9z"/>
		</g>
	</g>
	<g>
		<g>
			<path class="st0" d="M24.8,129.8C24.8,129.8,24.8,129.8,24.8,129.8l0-0.1c0,0,0-0.1,0-0.1s0,0,0,0.1L24.8,129.8
				C24.9,129.8,24.9,129.8,24.8,129.8z"/>
		</g>
	</g>
	<g>
		<g>
			<path class="st0" d="M24.8,129.9C24.7,129.9,24.7,129.9,24.8,129.9C24.7,129.8,24.7,129.8,24.8,129.9l0.1-0.2c0,0,0,0,0.1,0
				c0,0,0,0.1,0,0.1L24.8,129.9C24.8,129.9,24.8,129.9,24.8,129.9z"/>
		</g>
	</g>
	<g>
		<g>
			<path class="st0" d="M24.8,129.7C24.8,129.7,24.8,129.7,24.8,129.7l-0.1-0.1c0,0,0-0.1,0-0.1c0,0,0,0,0.1,0L24.8,129.7
				C24.9,129.7,24.9,129.7,24.8,129.7C24.9,129.7,24.9,129.7,24.8,129.7z"/>
		</g>
	</g>
	<g>
		<g>
			<path class="st0" d="M24.8,129.9C24.7,129.9,24.7,129.8,24.8,129.9l0-0.3c0,0,0-0.1,0-0.1s0,0,0,0.1L24.8,129.9
				C24.8,129.8,24.8,129.9,24.8,129.9z"/>
		</g>
	</g>
	<g>
		<g>
			<path class="st0" d="M25.7,131.9C25.6,131.9,25.6,131.9,25.7,131.9c-0.1,0-0.1-0.1-0.1-0.1l0.5-0.9c0-0.1,0.1-0.1,0.1,0
				c0,0,0.1,0.1,0,0.1L25.7,131.9C25.7,131.9,25.7,131.9,25.7,131.9z"/>
		</g>
	</g>
	<g>
		<g>
			<path class="st0" d="M25.3,129.7h-0.1c0,0,0,0,0-0.1s0-0.1,0-0.1h0.1C25.3,129.6,25.3,129.6,25.3,129.7
				C25.3,129.6,25.3,129.7,25.3,129.7z"/>
		</g>
	</g>
	<g>
		<g>
			<path class="st0" d="M25.1,129.7h-0.4c0,0,0,0,0-0.1s0-0.1,0-0.1h0.4C25.2,129.6,25.2,129.6,25.1,129.7
				C25.2,129.6,25.2,129.7,25.1,129.7z"/>
		</g>
	</g>
	<g>
		<g>
			<path class="st0" d="M24.5,129.7L24.5,129.7C24.5,129.7,24.5,129.6,24.5,129.7c-0.1-0.1,0-0.1,0-0.1h0
				C24.6,129.6,24.6,129.6,24.5,129.7C24.6,129.6,24.5,129.7,24.5,129.7z"/>
		</g>
	</g>
	<g>
		<g>
			<path class="st0" d="M25.7,131.2h-1.2c0,0-0.1,0-0.1-0.1s0-0.1,0.1-0.1h1.2c0,0,0.1,0,0.1,0.1S25.8,131.2,25.7,131.2z"/>
		</g>
	</g>
	<g>
		<g>
			<path class="st0" d="M24.8,129.7h-0.2c0,0,0,0,0-0.1s0-0.1,0-0.1h0.2C24.8,129.6,24.8,129.6,24.8,129.7
				C24.8,129.6,24.8,129.7,24.8,129.7z"/>
		</g>
	</g>
</g>
<g>
	<path class="st0" d="M27,171.4H8.4c-0.1,0-0.1-0.1-0.1-0.1v-4.6c0-0.1,0.1-0.1,0.1-0.1s0.1,0.1,0.1,0.1v4.4h18.4v-4.4
		c0-0.1,0.1-0.1,0.1-0.1s0.1,0.1,0.1,0.1v4.6C27.2,171.4,27.1,171.4,27,171.4z"/>
</g>
<g>
	<path class="st0" d="M0,187.3c0-1.5,1.1-2.4,2.2-3.4c1.3-1.1,1.7-1.6,1.7-2.5c0-0.7-0.5-1.6-1.7-1.6c-0.9,0-1.8,0.6-1.8,0.6
		l-0.3-0.7c0.1-0.1,1-0.6,2.2-0.6c1.7,0,2.6,0.9,2.6,2.3c0,1.2-0.7,1.9-2.1,3.1c-1.6,1.4-1.8,2-1.8,3h4v0.8H0V187.3z"/>
	<path class="st0" d="M9.6,179.1h1v5.9h1.2v0.8h-1.2v2.4H9.6v-2.4H5.6v-0.5L9.6,179.1z M9.6,185.1v-4.6l-3,4.6H9.6z"/>
	<path class="st0" d="M13.4,186.9c0.4,0,0.7,0.3,0.7,0.7c0,0.2-0.1,0.4-0.2,0.5l-0.8,1.8l-0.4-0.1l0.4-1.4c-0.2-0.1-0.4-0.4-0.4-0.8
		C12.7,187.3,13,186.9,13.4,186.9z"/>
	<path class="st0" d="M17.4,183.9h-0.9v-0.8h0.7c1.5,0,2.3-0.8,2.3-1.9c0-1-0.7-1.6-1.9-1.6c-0.8,0-1.6,0.4-1.6,0.4
		c-0.4-0.7-0.3-0.7-0.3-0.7c0.2-0.1,0.9-0.5,2-0.5c1.8,0,2.8,0.8,2.8,2.3c0,1.2-0.8,1.9-1.6,2.2c1.1,0.3,1.6,1.3,1.6,2.1
		c0,1.4-0.9,2.7-2.9,2.7c-1.3,0-2.1-0.4-2.1-0.5l0.3-0.7c0,0,0.9,0.4,1.8,0.4c1.2,0,2-0.7,2-1.9C19.5,184.8,18.8,183.9,17.4,183.9z"
		/>
	<path class="st0" d="M28.2,188c-0.1,0.1-0.7,0.3-1.4,0.3c-1.5,0-2.6-0.8-2.6-3.3s1.1-3.3,2.6-3.3c0.5,0,1,0.1,1.4,0.3l-0.3,0.6
		c0,0-0.5-0.3-1-0.3c-1.4,0-1.7,1-1.7,2.6s0.3,2.6,1.7,2.6c0.6,0,1.1-0.3,1.1-0.3L28.2,188z"/>
	<path class="st0" d="M33.2,183.7c0-0.9-0.4-1.3-1.2-1.3c-0.8,0-1.5,0.6-1.7,0.8v5.1h-0.9v-6.5h0.6l0.2,0.7c0.5-0.4,1.1-0.7,1.9-0.7
		c0.9,0,1.4,0.3,1.7,0.9c0.5-0.5,1.3-0.9,2.1-0.9c1.5,0,1.9,0.8,1.9,2.1v4.5H37v-4.5c0-1-0.4-1.4-1.2-1.4c-0.7,0-1.4,0.5-1.8,0.8
		c0,0.2,0,0.4,0,0.6v4.4h-0.9C33.2,188.2,33.2,183.7,33.2,183.7z"/>
</g>
</svg>
