<?xml version="1.0" encoding="utf-8"?>
<!-- Generator: Adobe Illustrator 24.0.2, SVG Export Plug-In . SVG Version: 6.00 Build 0)  -->
<svg version="1.1" id="Capa_1" xmlns="http://www.w3.org/2000/svg" xmlns:xlink="http://www.w3.org/1999/xlink" x="0px" y="0px"
	 viewBox="0 0 71.5 189.9" style="enable-background:new 0 0 71.5 189.9;" xml:space="preserve">
<style type="text/css">
	.st0{fill:#808181;}
</style>
<g>
	<g>
		<g>
			<path class="st0" d="M14,64.1h-0.5c-0.1,0-0.1,0-0.1-0.1c0,0,0-0.1,0.1-0.1H14c0.1,0,0.1,0,0.1,0.1S14.1,64.1,14,64.1z"/>
		</g>
	</g>
	<g>
		<g>
			<path class="st0" d="M13.5,64.1c-0.1,0-0.1,0-0.1-0.1V36.6c0,0,0-0.1,0.1-0.1s0.1,0,0.1,0.1V64C13.6,64,13.6,64.1,13.5,64.1z"/>
		</g>
	</g>
	<g>
		<g>
			<path class="st0" d="M14,64.1c-0.1,0-0.1,0-0.1-0.1V35c0,0,0-0.1,0.1-0.1s0.1,0,0.1,0.1v29C14.1,64,14.1,64.1,14,64.1z"/>
		</g>
	</g>
	<g>
		<g>
			<path class="st0" d="M13.4,64.1c-0.1,0-0.1,0-0.1-0.1V36.9c0,0,0-0.1,0.1-0.1s0.1,0,0.1,0.1V64C13.5,64,13.5,64.1,13.4,64.1z"/>
		</g>
	</g>
	<g>
		<g>
			<path class="st0" d="M13.4,64.1h-3.3c-0.1,0-0.1,0-0.1-0.1c0,0,0-0.1,0.1-0.1h3.3c0.1,0,0.1,0,0.1,0.1
				C13.5,64,13.5,64.1,13.4,64.1z"/>
		</g>
	</g>
	<g>
		<g>
			<path class="st0" d="M13.4,64.1h-3.3c-0.1,0-0.1,0-0.1-0.1c0,0,0-0.1,0.1-0.1h3.3c0.1,0,0.1,0,0.1,0.1
				C13.5,64,13.5,64.1,13.4,64.1z"/>
		</g>
	</g>
	<g>
		<g>
			<path class="st0" d="M7.3,129.9C7.3,129.9,7.3,129.8,7.3,129.9l-0.1-0.3c0,0,0-0.1,0.1-0.1s0.1,0,0.1,0.1L7.3,129.9
				C7.4,129.8,7.3,129.9,7.3,129.9z"/>
		</g>
	</g>
	<g>
		<g>
			<path class="st0" d="M6.7,129.2H6.3c0,0-0.1,0-0.1-0.1s0-0.1,0.1-0.1h0.4C6.7,129.1,6.7,129.1,6.7,129.2
				C6.7,129.1,6.7,129.2,6.7,129.2z"/>
		</g>
	</g>
	<g>
		<g>
			<path class="st0" d="M6.3,129.2C6.3,129.2,6.2,129.2,6.3,129.2C6.2,129.1,6.2,129.1,6.3,129.2l0.1-0.2h0.1v0.1L6.3,129.2
				L6.3,129.2z"/>
		</g>
	</g>
	<g>
		<g>
			<path class="st0" d="M7.1,129.9H6.7c0,0-0.1,0-0.1-0.1s0-0.1,0.1-0.1h0.4C7.1,129.8,7.1,129.8,7.1,129.9
				C7.1,129.8,7.1,129.9,7.1,129.9z"/>
		</g>
	</g>
	<g>
		<g>
			<path class="st0" d="M6.7,130.6H6.3c0,0-0.1,0-0.1-0.1s0-0.1,0.1-0.1h0.4C6.7,130.5,6.7,130.5,6.7,130.6
				C6.7,130.5,6.7,130.6,6.7,130.6z"/>
		</g>
	</g>
	<g>
		<g>
			<path class="st0" d="M6.3,130.6C6.2,130.6,6.2,130.5,6.3,130.6l-0.1-0.3c0,0,0-0.1,0.1-0.1s0.1,0,0.1,0.1L6.3,130.6
				C6.3,130.5,6.3,130.6,6.3,130.6z"/>
		</g>
	</g>
	<g>
		<g>
			<path class="st0" d="M6.3,130.6C6.3,130.6,6.2,130.6,6.3,130.6C6.2,130.5,6.2,130.5,6.3,130.6l0.1-0.2h0.1v0.1L6.3,130.6
				L6.3,130.6z"/>
		</g>
	</g>
	<g>
		<g>
			<path class="st0" d="M6.3,130.5L6.3,130.5l-0.1-0.1c0,0,0-0.1,0.1-0.1s0.1,0,0.1,0.1L6.3,130.5C6.4,130.5,6.4,130.5,6.3,130.5z"
				/>
		</g>
	</g>
	<g>
		<g>
			<path class="st0" d="M6.6,130.5H6.3c0,0-0.1,0-0.1-0.1s0-0.1,0.1-0.1h0.2C6.6,130.4,6.6,130.4,6.6,130.5L6.6,130.5z"/>
		</g>
	</g>
	<g>
		<g>
			<path class="st0" d="M7.7,128.9c-0.1,0-0.1,0-0.1-0.1c0-0.2-0.1-0.3-0.3-0.3c-0.1,0-0.1,0-0.1-0.1s0-0.1,0.1-0.1
				c0.3,0,0.5,0.2,0.5,0.5C7.7,128.8,7.7,128.9,7.7,128.9z"/>
		</g>
	</g>
	<g>
		<g>
			<path class="st0" d="M7.2,128.4H6.1c-0.1,0-0.1,0-0.1-0.1s0-0.1,0.1-0.1h1.2c0.1,0,0.1,0,0.1,0.1S7.3,128.4,7.2,128.4z"/>
		</g>
	</g>
	<g>
		<g>
			<path class="st0" d="M5.7,128.9c-0.1,0-0.1,0-0.1-0.1c0-0.3,0.2-0.5,0.5-0.5c0.1,0,0.1,0,0.1,0.1s0,0.1-0.1,0.1
				C5.9,128.5,5.8,128.6,5.7,128.9C5.8,128.8,5.7,128.9,5.7,128.9z"/>
		</g>
	</g>
	<g>
		<g>
			<path class="st0" d="M6.7,131.9C6.7,131.9,6.6,131.9,6.7,131.9l-0.2-0.2l0,0l0,0l0.2-0.2h0.1v0.1l-0.1,0.1V131.9L6.7,131.9
				L6.7,131.9z"/>
		</g>
	</g>
	<g>
		<g>
			<path class="st0" d="M6.7,127.9C6.7,127.9,6.6,127.9,6.7,127.9l-0.2-0.2l0,0l0,0l0.2-0.2h0.1v0.1l-0.1,0.1V127.9L6.7,127.9
				L6.7,127.9z"/>
		</g>
	</g>
	<g>
		<g>
			<path class="st0" d="M6.7,132.2c-0.1,0-0.3,0-0.4-0.1l-0.2-0.2v-0.1h0.1l0.2,0.2c0.1,0.1,0.2,0.1,0.4,0c0.1,0,0.2-0.1,0.3-0.2
				c0-0.1,0.1-0.1,0.1,0c0.1,0,0.1,0.1,0,0.1C7.1,132.1,6.9,132.2,6.7,132.2C6.8,132.2,6.7,132.2,6.7,132.2z"/>
		</g>
	</g>
	<g>
		<g>
			<path class="st0" d="M6.3,129L6.3,129H6.2v-0.1h0.1L6.3,129C6.4,129,6.4,129,6.3,129C6.4,129,6.4,129,6.3,129z"/>
		</g>
	</g>
	<g>
		<g>
			<path class="st0" d="M7.3,129.9L7.3,129.9C7.3,129.9,7.2,129.8,7.3,129.9c-0.1-0.1-0.1-0.1,0-0.1l0,0
				C7.3,129.8,7.4,129.8,7.3,129.9C7.4,129.8,7.3,129.9,7.3,129.9z"/>
		</g>
	</g>
	<g>
		<g>
			<path class="st0" d="M6.6,130.5C6.5,130.5,6.5,130.5,6.6,130.5l-0.1-0.1c0,0,0-0.1,0.1-0.1s0.1,0,0.1,0.1L6.6,130.5L6.6,130.5z"
				/>
		</g>
	</g>
	<g>
		<g>
			<path class="st0" d="M6.7,130.6C6.7,130.6,6.6,130.6,6.7,130.6l-0.1-0.1v-0.1h0.1V130.6C6.7,130.5,6.7,130.5,6.7,130.6L6.7,130.6
				z"/>
		</g>
	</g>
	<g>
		<g>
			<path class="st0" d="M6.7,130.6C6.6,130.6,6.6,130.5,6.7,130.6l-0.1-0.3c0,0,0-0.1,0.1-0.1s0.1,0,0.1,0.1L6.7,130.6
				C6.7,130.5,6.7,130.6,6.7,130.6z"/>
		</g>
	</g>
	<g>
		<g>
			<path class="st0" d="M6.6,129.9C6.5,129.9,6.5,129.8,6.6,129.9l-0.1-0.3c0,0,0-0.1,0.1-0.1s0.1,0,0.1,0.1L6.6,129.9
				C6.6,129.8,6.6,129.9,6.6,129.9z"/>
		</g>
	</g>
	<g>
		<g>
			<path class="st0" d="M6.7,129.9L6.7,129.9c-0.1,0-0.2,0-0.2-0.1s0-0.1,0.1-0.1h0.1C6.7,129.8,6.7,129.8,6.7,129.9
				C6.7,129.8,6.7,129.9,6.7,129.9z"/>
		</g>
	</g>
	<g>
		<g>
			<path class="st0" d="M5.7,130.8c-0.1,0-0.1,0-0.1-0.1v-1.9c0-0.1,0-0.1,0.1-0.1s0.1,0,0.1,0.1v1.9C5.8,130.7,5.7,130.8,5.7,130.8
				z"/>
		</g>
	</g>
	<g>
		<g>
			<path class="st0" d="M6.1,131.2c-0.3,0-0.5-0.2-0.5-0.5c0-0.1,0-0.1,0.1-0.1s0.1,0,0.1,0.1c0,0.2,0.1,0.3,0.3,0.3
				C6.2,131,6.2,131,6.1,131.2C6.2,131.2,6.1,131.2,6.1,131.2z"/>
		</g>
	</g>
	<g>
		<g>
			<path class="st0" d="M6.7,131.9C6.7,131.9,6.6,131.9,6.7,131.9C6.6,131.9,6.6,131.9,6.7,131.9l0.1-0.2l-0.1-0.1v-0.1h0.1l0.2,0.2
				v0.1L6.7,131.9L6.7,131.9z"/>
		</g>
	</g>
	<g>
		<g>
			<path class="st0" d="M5.5,130.8c-0.1,0-0.1,0-0.1-0.1v-1.9c0-0.1,0-0.1,0.1-0.1s0.1,0,0.1,0.1v1.9C5.6,130.7,5.6,130.8,5.5,130.8
				z"/>
		</g>
	</g>
	<g>
		<g>
			<path class="st0" d="M7,128.6H6.1c-0.1,0-0.1,0-0.1-0.1s0-0.1,0.1-0.1H7c0.1,0,0.1,0,0.1,0.1S7,128.6,7,128.6z"/>
		</g>
	</g>
	<g>
		<g>
			<path class="st0" d="M7.5,129.1C7.4,129.1,7.4,129.1,7.5,129.1l-0.6-0.5v-0.1H7l0.5,0.5C7.6,129,7.6,129,7.5,129.1L7.5,129.1z"/>
		</g>
	</g>
	<g>
		<g>
			<path class="st0" d="M7.5,130.5c-0.1,0-0.1,0-0.1-0.1V129c0-0.1,0-0.1,0.1-0.1s0.1,0,0.1,0.1v1.4C7.6,130.5,7.5,130.5,7.5,130.5z
				"/>
		</g>
	</g>
	<g>
		<g>
			<path class="st0" d="M7,131C7,131,6.9,131,7,131c-0.1-0.1-0.1-0.1-0.1-0.2l0.5-0.5h0.1v0.1L7,131L7,131z"/>
		</g>
	</g>
	<g>
		<g>
			<path class="st0" d="M7,131H6.1C6,131,6,131,6,130.9s0-0.1,0.1-0.1H7c0.1,0,0.1,0,0.1,0.1S7,131,7,131z"/>
		</g>
	</g>
	<g>
		<g>
			<path class="st0" d="M6.1,131c-0.2,0-0.3-0.1-0.3-0.3c0-0.1,0-0.1,0.1-0.1s0.1,0,0.1,0.1s0.1,0.1,0.1,0.1
				C6.2,130.8,6.2,130.8,6.1,131C6.2,131,6.2,131,6.1,131z"/>
		</g>
	</g>
	<g>
		<g>
			<path class="st0" d="M5.9,130.8c-0.1,0-0.1,0-0.1-0.1v-1.9c0-0.1,0-0.1,0.1-0.1s0.1,0,0.1,0.1v1.9C5.9,130.7,5.9,130.8,5.9,130.8
				z"/>
		</g>
	</g>
	<g>
		<g>
			<path class="st0" d="M5.9,128.9c-0.1,0-0.1,0-0.1-0.1c0-0.2,0.1-0.3,0.3-0.3c0.1,0,0.1,0,0.1,0.1s0,0.1-0.1,0.1
				C6,128.6,5.9,128.7,5.9,128.9C5.9,128.8,5.9,128.9,5.9,128.9z"/>
		</g>
	</g>
	<g>
		<g>
			<path class="st0" d="M6.6,130.4H6.3c0,0-0.1,0-0.1-0.1s0-0.1,0.1-0.1h0.2C6.6,130.3,6.6,130.3,6.6,130.4L6.6,130.4z"/>
		</g>
	</g>
	<g>
		<g>
			<path class="st0" d="M6.6,130.4C6.6,130.4,6.5,130.4,6.6,130.4C6.5,130.4,6.5,130.4,6.6,130.4l0.1-0.2h0.1v0.1L6.6,130.4
				L6.6,130.4z"/>
		</g>
	</g>
	<g>
		<g>
			<path class="st0" d="M6.7,130.4H6.3c0,0-0.1,0-0.1-0.1s0-0.1,0.1-0.1h0.4C6.7,130.3,6.7,130.3,6.7,130.4
				C6.7,130.3,6.7,130.4,6.7,130.4z"/>
		</g>
	</g>
	<g>
		<g>
			<path class="st0" d="M6.3,130.4L6.3,130.4l-0.1-0.1v-0.1h0.1V130.4C6.4,130.4,6.4,130.4,6.3,130.4C6.4,130.4,6.4,130.4,6.3,130.4
				z"/>
		</g>
	</g>
	<g>
		<g>
			<path class="st0" d="M7.7,128.6C7.7,128.6,7.6,128.6,7.7,128.6l-0.6-0.9c0-0.1,0-0.1,0-0.1c0.1,0,0.1,0,0.1,0l0.5,0.9
				C7.8,128.5,7.8,128.6,7.7,128.6L7.7,128.6z"/>
		</g>
	</g>
	<g>
		<g>
			<path class="st0" d="M6.3,129.1L6.3,129.1V129c0,0,0-0.1,0.1-0.1s0.1,0,0.1,0.1L6.3,129.1C6.4,129.1,6.4,129.1,6.3,129.1z"/>
		</g>
	</g>
	<g>
		<g>
			<path class="st0" d="M6.6,129.1H6.3c0,0-0.1,0-0.1-0.1s0-0.1,0.1-0.1h0.2C6.6,129,6.6,129,6.6,129.1L6.6,129.1z"/>
		</g>
	</g>
	<g>
		<g>
			<path class="st0" d="M6.6,129H6.3c0,0-0.1,0-0.1-0.1s0-0.1,0.1-0.1h0.2C6.6,128.9,6.6,129,6.6,129L6.6,129z"/>
		</g>
	</g>
	<g>
		<g>
			<path class="st0" d="M7.2,131.9C7.2,131.9,7.1,131.9,7.2,131.9c-0.1,0-0.1-0.1-0.1-0.1l0.5-0.9c0,0,0.1-0.1,0.1,0
				c0.1,0,0.1,0.1,0,0.1L7.2,131.9L7.2,131.9z"/>
		</g>
	</g>
	<g>
		<g>
			<path class="st0" d="M5.5,128.9L5.5,128.9c-0.1,0-0.1-0.1-0.1-0.1l0.1-0.3c0-0.1,0.1-0.1,0.1-0.1c0.1,0,0.1,0.1,0.1,0.1
				L5.5,128.9C5.6,128.8,5.6,128.9,5.5,128.9z"/>
		</g>
	</g>
	<g>
		<g>
			<path class="st0" d="M7.8,128.9C7.7,128.9,7.7,128.8,7.8,128.9l-0.2-0.3c0-0.1,0-0.1,0.1-0.1s0.1,0,0.1,0.1V128.9
				C7.9,128.8,7.9,128.9,7.8,128.9L7.8,128.9z"/>
		</g>
	</g>
	<g>
		<g>
			<path class="st0" d="M6.3,129.2C6.2,129.2,6.2,129.1,6.3,129.2l-0.1-0.3c0,0,0-0.1,0.1-0.1s0.1,0,0.1,0.1L6.3,129.2
				C6.3,129.1,6.3,129.2,6.3,129.2z"/>
		</g>
	</g>
	<g>
		<g>
			<path class="st0" d="M7,129.8H6.7c0,0-0.1,0-0.1-0.1s0-0.1,0.1-0.1H7C7,129.7,7,129.7,7,129.8L7,129.8z"/>
		</g>
	</g>
	<g>
		<g>
			<path class="st0" d="M7,129.7H6.7c0,0-0.1,0-0.1-0.1s0-0.1,0.1-0.1H7C7,129.6,7,129.7,7,129.7L7,129.7z"/>
		</g>
	</g>
	<g>
		<g>
			<path class="st0" d="M6.7,127.9C6.7,127.9,6.6,127.9,6.7,127.9C6.6,127.9,6.6,127.9,6.7,127.9l0.1-0.2l-0.1-0.1v-0.1h0.1l0.2,0.2
				v0.1L6.7,127.9L6.7,127.9z"/>
		</g>
	</g>
	<g>
		<g>
			<path class="st0" d="M6.1,127.7L6.1,127.7C6,127.7,6,127.6,6.1,127.7c0-0.3,0.2-0.4,0.3-0.4c0.2,0,0.4,0,0.5,0.1l0.2,0.2v0.1H7
				l-0.2-0.2c-0.1-0.1-0.2-0.1-0.4,0S6.3,127.6,6.1,127.7C6.2,127.7,6.2,127.7,6.1,127.7z"/>
		</g>
	</g>
	<g>
		<g>
			<path class="st0" d="M5.6,128.6L5.6,128.6c-0.1,0-0.1-0.1-0.1-0.1l0.5-0.9c0-0.1,0.1-0.1,0.1,0c0.1,0,0.1,0.1,0,0.1L5.6,128.6
				C5.7,128.6,5.7,128.6,5.6,128.6z"/>
		</g>
	</g>
	<g>
		<g>
			<path class="st0" d="M7.7,130.8c-0.1,0-0.1,0-0.1-0.1v-1.9c0-0.1,0-0.1,0.1-0.1s0.1,0,0.1,0.1v1.9C7.7,130.7,7.7,130.8,7.7,130.8
				z"/>
		</g>
	</g>
	<g>
		<g>
			<path class="st0" d="M7.8,130.8c-0.1,0-0.1,0-0.1-0.1v-1.9c0-0.1,0-0.1,0.1-0.1s0.1,0,0.1,0.1v1.9L7.8,130.8z"/>
		</g>
	</g>
	<g>
		<g>
			<path class="st0" d="M6.7,129H6.3c0,0-0.1,0-0.1-0.1s0-0.1,0.1-0.1h0.4C6.7,128.9,6.7,128.9,6.7,129C6.7,128.9,6.7,129,6.7,129z"
				/>
		</g>
	</g>
	<g>
		<g>
			<path class="st0" d="M5.6,131C5.6,131,5.5,131,5.6,131l-0.2-0.3c0-0.1,0-0.1,0.1-0.1s0.1,0,0.1,0.1V131C5.7,131,5.7,131,5.6,131
				L5.6,131z"/>
		</g>
	</g>
	<g>
		<g>
			<path class="st0" d="M7.7,131L7.7,131c-0.1,0-0.1-0.1-0.1-0.1l0.1-0.3c0-0.1,0.1-0.1,0.1-0.1c0.1,0,0.1,0.1,0.1,0.1L7.7,131
				C7.8,131,7.7,131,7.7,131z"/>
		</g>
	</g>
	<g>
		<g>
			<path class="st0" d="M6.7,129.9C6.7,129.9,6.6,129.9,6.7,129.9C6.6,129.8,6.6,129.8,6.7,129.9l0.1-0.2h0.1v0.1L6.7,129.9
				L6.7,129.9z"/>
		</g>
	</g>
	<g>
		<g>
			<path class="st0" d="M6.7,129.8L6.7,129.8l-0.1-0.1c0,0,0-0.1,0.1-0.1s0.1,0,0.1,0.1L6.7,129.8C6.8,129.8,6.8,129.8,6.7,129.8z"
				/>
		</g>
	</g>
	<g>
		<g>
			<path class="st0" d="M6.7,129.7L6.7,129.7l-0.1-0.1v-0.1h0.1V129.7C6.8,129.7,6.8,129.7,6.7,129.7C6.8,129.7,6.8,129.7,6.7,129.7
				z"/>
		</g>
	</g>
	<g>
		<g>
			<path class="st0" d="M6.7,129.9C6.6,129.9,6.6,129.8,6.7,129.9l-0.1-0.3c0,0,0-0.1,0.1-0.1s0.1,0,0.1,0.1L6.7,129.9
				C6.7,129.8,6.7,129.9,6.7,129.9z"/>
		</g>
	</g>
	<g>
		<g>
			<path class="st0" d="M7,129.8C6.9,129.8,6.9,129.8,7,129.8l-0.1-0.1c0,0,0-0.1,0.1-0.1s0.1,0,0.1,0.1L7,129.8L7,129.8z"/>
		</g>
	</g>
	<g>
		<g>
			<path class="st0" d="M7.1,129.9C7,129.9,7,129.9,7.1,129.9L7,129.8v-0.1h0.1V129.9C7.1,129.8,7.1,129.8,7.1,129.9L7.1,129.9z"/>
		</g>
	</g>
	<g>
		<g>
			<path class="st0" d="M7,129.7C7,129.7,6.9,129.7,7,129.7C6.9,129.7,6.9,129.7,7,129.7l0.1-0.2h0.1v0.1L7,129.7L7,129.7z"/>
		</g>
	</g>
	<g>
		<g>
			<path class="st0" d="M7.1,129.9C7,129.9,7,129.8,7.1,129.9L7,129.6c0,0,0-0.1,0.1-0.1s0.1,0,0.1,0.1L7.1,129.9
				C7.1,129.8,7.1,129.9,7.1,129.9z"/>
		</g>
	</g>
	<g>
		<g>
			<path class="st0" d="M6.2,131.9C6.1,131.9,6.1,131.9,6.2,131.9L5.5,131c0-0.1,0-0.1,0-0.1c0.1,0,0.1,0,0.1,0l0.5,0.9
				C6.3,131.8,6.2,131.9,6.2,131.9L6.2,131.9z"/>
		</g>
	</g>
	<g>
		<g>
			<path class="st0" d="M6.7,129.7L6.7,129.7c-0.1,0-0.2,0-0.2-0.1s0-0.1,0.1-0.1h0.1C6.7,129.6,6.7,129.6,6.7,129.7
				C6.7,129.6,6.7,129.7,6.7,129.7z"/>
		</g>
	</g>
	<g>
		<g>
			<path class="st0" d="M7.1,129.7H6.7c0,0-0.1,0-0.1-0.1s0-0.1,0.1-0.1h0.4C7.1,129.6,7.1,129.6,7.1,129.7
				C7.1,129.6,7.1,129.7,7.1,129.7z"/>
		</g>
	</g>
	<g>
		<g>
			<path class="st0" d="M7.3,129.7L7.3,129.7C7.3,129.7,7.2,129.6,7.3,129.7c-0.1-0.1-0.1-0.1,0-0.1l0,0
				C7.3,129.6,7.4,129.6,7.3,129.7C7.4,129.6,7.3,129.7,7.3,129.7z"/>
		</g>
	</g>
	<g>
		<g>
			<path class="st0" d="M7.2,131.2H6.1c-0.1,0-0.1,0-0.1-0.1s0-0.1,0.1-0.1h1.2c0.1,0,0.1,0,0.1,0.1S7.3,131.2,7.2,131.2z"/>
		</g>
	</g>
	<g>
		<g>
			<path class="st0" d="M7.3,129.7H7.1c0,0-0.1,0-0.1-0.1s0-0.1,0.1-0.1h0.2C7.3,129.6,7.3,129.6,7.3,129.7
				C7.3,129.6,7.3,129.7,7.3,129.7z"/>
		</g>
	</g>
	<g>
		<g>
			<path class="st0" d="M7.3,129.9H7.1c0,0-0.1,0-0.1-0.1s0-0.1,0.1-0.1h0.2C7.3,129.8,7.3,129.8,7.3,129.9
				C7.3,129.8,7.3,129.9,7.3,129.9z"/>
		</g>
	</g>
	<g>
		<g>
			<path class="st0" d="M6.7,128.1c-0.2,0-0.3-0.2-0.3-0.3s0.1-0.3,0.3-0.3c0,0,0.1,0,0.1,0.1s0,0.1-0.1,0.1s-0.2,0.1-0.2,0.2
				C6.4,127.9,6.5,128,6.7,128.1C6.7,128,6.7,128,6.7,128.1C6.7,128,6.7,128.1,6.7,128.1z"/>
		</g>
	</g>
	<g>
		<g>
			<path class="st0" d="M6.7,128.1C6.6,128.1,6.6,128,6.7,128.1c-0.1-0.1,0-0.1,0-0.1c0.1,0,0.2-0.1,0.2-0.2s-0.1-0.2-0.2-0.2
				c0,0-0.1,0-0.1-0.1s0-0.1,0.1-0.1c0.2,0,0.3,0.2,0.3,0.3C7,127.9,6.8,128.1,6.7,128.1z"/>
		</g>
	</g>
	<g>
		<g>
			<path class="st0" d="M6.7,132c-0.2,0-0.3-0.1-0.3-0.3s0.1-0.3,0.3-0.3c0,0,0.1,0,0.1,0.1s0,0.1-0.1,0.1s-0.2,0.1-0.2,0.2
				S6.5,131.9,6.7,132C6.7,131.9,6.7,132,6.7,132L6.7,132z"/>
		</g>
	</g>
	<g>
		<g>
			<path class="st0" d="M6.7,132C6.6,132,6.6,132,6.7,132c-0.1-0.1,0-0.1,0-0.1c0.1,0,0.2-0.1,0.2-0.2c0-0.1-0.1-0.2-0.2-0.2
				c0,0-0.1,0-0.1-0.1s0-0.1,0.1-0.1c0.2,0,0.3,0.1,0.3,0.3C7,131.9,6.8,132,6.7,132z"/>
		</g>
	</g>
	<g>
		<g>
			<path class="st0" d="M7.2,131.2c-0.1,0-0.1,0-0.1-0.1s0-0.1,0.1-0.1c0.2,0,0.3-0.1,0.3-0.3c0-0.1,0-0.1,0.1-0.1s0.1,0,0.1,0.1
				C7.7,130.9,7.5,131.2,7.2,131.2z"/>
		</g>
	</g>
	<g>
		<g>
			<path class="st0" d="M6.6,129.1C6.5,129.1,6.5,129.1,6.6,129.1L6.5,129c0,0,0-0.1,0.1-0.1s0.1,0,0.1,0.1L6.6,129.1L6.6,129.1z"/>
		</g>
	</g>
	<g>
		<g>
			<path class="st0" d="M6.7,129.2C6.7,129.2,6.6,129.2,6.7,129.2l-0.1-0.1V129h0.1V129.2C6.7,129.1,6.7,129.1,6.7,129.2L6.7,129.2z
				"/>
		</g>
	</g>
	<g>
		<g>
			<path class="st0" d="M6.7,129.2C6.6,129.2,6.6,129.1,6.7,129.2l-0.1-0.3c0,0,0-0.1,0.1-0.1s0.1,0,0.1,0.1L6.7,129.2
				C6.7,129.1,6.7,129.2,6.7,129.2z"/>
		</g>
	</g>
	<g>
		<g>
			<path class="st0" d="M6.6,129C6.6,129,6.5,129,6.6,129C6.5,129,6.5,129,6.6,129l0.1-0.2h0.1v0.1L6.6,129L6.6,129z"/>
		</g>
	</g>
	<g>
		<g>
			<path class="st0" d="M21.5,10L21.5,10L21.5,10l0.1-0.2h0.1v0.1L21.5,10C21.6,10,21.5,10,21.5,10z"/>
		</g>
	</g>
	<g>
		<g>
			<path class="st0" d="M21.8,9.4L21.8,9.4l-0.1-0.1V9.2h0.1V9.4C21.9,9.4,21.9,9.4,21.8,9.4L21.8,9.4z"/>
		</g>
	</g>
	<g>
		<g>
			<path class="st0" d="M21.7,10L21.7,10C21.6,10,21.6,9.9,21.7,10l0.1-0.6c0,0,0,0,0.1,0s0,0,0,0.1L21.7,10L21.7,10z"/>
		</g>
	</g>
	<g>
		<g>
			<path class="st0" d="M4.7,14.3L4.7,14.3c-0.1,0-0.1,0-0.1-0.1s0-0.1,0.1-0.1s0.1,0,0.1,0.1S4.7,14.3,4.7,14.3z"/>
		</g>
	</g>
	<g>
		<g>
			<path class="st0" d="M22.3,7.4H10.1c-0.1,0-0.1,0-0.1-0.1s0-0.1,0.1-0.1h12.2c0.1,0,0.1,0,0.1,0.1C22.4,7.3,22.4,7.4,22.3,7.4z"
				/>
		</g>
	</g>
	<g>
		<g>
			<path class="st0" d="M7.8,128.8c-0.1,0-0.1,0-0.1-0.1s-0.1-0.2-0.1-0.3v-0.1h0.1c0.1,0.1,0.2,0.3,0.2,0.4
				C7.9,128.8,7.8,128.8,7.8,128.8z"/>
		</g>
	</g>
	<g>
		<g>
			<path class="st0" d="M7.8,130.8c-0.1,0-0.1,0-0.1-0.1v-2c0-0.1,0-0.1,0.1-0.1s0.1,0,0.1,0.1v2C7.9,130.8,7.8,130.8,7.8,130.8z"/>
		</g>
	</g>
	<g>
		<g>
			<path class="st0" d="M7.6,131.2L7.6,131.2c-0.1-0.1-0.1-0.1-0.1-0.2c0.1-0.1,0.1-0.2,0.1-0.3s0-0.1,0.1-0.1s0.1,0,0.1,0.1
				C7.9,130.9,7.8,131,7.6,131.2C7.7,131.2,7.6,131.2,7.6,131.2z"/>
		</g>
	</g>
	<g>
		<g>
			<path class="st0" d="M5.7,131.2L5.7,131.2c-0.2-0.1-0.3-0.3-0.3-0.5c0-0.1,0-0.1,0.1-0.1s0.1,0,0.1,0.1s0.1,0.2,0.1,0.3
				C5.8,131,5.8,131.1,5.7,131.2C5.8,131.2,5.7,131.2,5.7,131.2z"/>
		</g>
	</g>
	<g>
		<g>
			<path class="st0" d="M5.5,130.8c-0.1,0-0.1,0-0.1-0.1v-2c0-0.1,0-0.1,0.1-0.1s0.1,0,0.1,0.1v2C5.6,130.8,5.6,130.8,5.5,130.8z"/>
		</g>
	</g>
	<g>
		<g>
			<path class="st0" d="M5.5,128.8c-0.1,0-0.1,0-0.1-0.1c0-0.2,0.1-0.3,0.2-0.4h0.1v0.1C5.7,128.5,5.6,128.6,5.5,128.8
				C5.6,128.8,5.6,128.8,5.5,128.8z"/>
		</g>
	</g>
	<g>
		<g>
			<path class="st0" d="M6.7,131.9C6.7,131.9,6.6,131.9,6.7,131.9l-0.1-0.1l0,0l0,0l0.1-0.1l0,0l0,0l0,0l0.1,0.1L6.7,131.9
				L6.7,131.9L6.7,131.9z M6.6,131.7L6.6,131.7L6.6,131.7L6.6,131.7L6.6,131.7z"/>
		</g>
	</g>
	<g>
		<g>
			<path class="st0" d="M6.7,127.9C6.7,127.9,6.6,127.9,6.7,127.9L6.7,127.9L6.7,127.9L6.7,127.9v-0.2l0,0l0,0l0,0V127.9L6.7,127.9
				L6.7,127.9L6.7,127.9z M6.6,127.7L6.6,127.7L6.6,127.7L6.6,127.7L6.6,127.7z"/>
		</g>
	</g>
	<g>
		<g>
			<path class="st0" d="M8.6,150.4c-0.6,0-1-0.5-1-1c0-0.6,0.5-1,1-1c0.6,0,1,0.5,1,1S9.2,150.4,8.6,150.4z M8.6,148.4
				c-0.5,0-0.9,0.4-0.9,0.9s0.4,0.9,0.9,0.9s0.9-0.4,0.9-0.9C9.6,148.9,9.2,148.4,8.6,148.4z"/>
		</g>
	</g>
	<g>
		<g>
			<path class="st0" d="M8.6,153.5c-0.6,0-1-0.5-1-1s0.5-1,1-1c0.6,0,1,0.5,1,1S9.2,153.5,8.6,153.5z M8.6,151.5
				c-0.5,0-0.9,0.4-0.9,0.9s0.4,0.9,0.9,0.9s0.9-0.4,0.9-0.9S9.2,151.5,8.6,151.5z"/>
		</g>
	</g>
	<g>
		<g>
			<path class="st0" d="M5.6,128.6L5.6,128.6c-0.1,0-0.1-0.1-0.1-0.1l0.5-0.9c0-0.1,0.1-0.1,0.1,0c0.1,0,0.1,0.1,0,0.1L5.6,128.6
				L5.6,128.6z"/>
		</g>
	</g>
	<g>
		<g>
			<path class="st0" d="M6.1,127.7L6.1,127.7C6,127.7,6,127.6,6.1,127.7c0.1-0.4,0.6-0.6,0.9-0.4l0.2,0.2v0.1H7.1l-0.2-0.2
				C6.7,127.3,6.3,127.4,6.1,127.7C6.2,127.7,6.1,127.7,6.1,127.7z"/>
		</g>
	</g>
	<g>
		<g>
			<path class="st0" d="M7.7,128.6L7.7,128.6l-0.6-0.9c0-0.1,0-0.1,0-0.1c0.1,0,0.1,0,0.1,0l0.5,0.9C7.8,128.5,7.8,128.5,7.7,128.6
				C7.8,128.6,7.8,128.6,7.7,128.6z"/>
		</g>
	</g>
	<g>
		<g>
			<path class="st0" d="M7.8,128.9C7.8,128.9,7.7,128.8,7.8,128.9l-0.2-0.4c0-0.1,0-0.1,0.1-0.1s0.1,0,0.1,0.1V128.9
				C7.9,128.8,7.9,128.9,7.8,128.9L7.8,128.9z"/>
		</g>
	</g>
	<g>
		<g>
			<path class="st0" d="M7.8,130.8c-0.1,0-0.1,0-0.1-0.1v-1.9c0-0.1,0-0.1,0.1-0.1s0.1,0,0.1,0.1v1.9C7.9,130.7,7.9,130.8,7.8,130.8
				z"/>
		</g>
	</g>
	<g>
		<g>
			<path class="st0" d="M7.7,131.1L7.7,131.1c-0.1,0-0.1-0.1-0.1-0.1l0.1-0.3c0-0.1,0.1-0.1,0.1-0.1c0.1,0,0.1,0.1,0.1,0.1
				L7.7,131.1C7.8,131,7.8,131.1,7.7,131.1z"/>
		</g>
	</g>
	<g>
		<g>
			<path class="st0" d="M7.2,131.9L7.2,131.9c-0.1,0-0.1-0.1-0.1-0.1l0.5-0.9c0-0.1,0.1-0.1,0.1,0c0.1,0,0.1,0.1,0,0.1L7.2,131.9
				C7.3,131.9,7.2,131.9,7.2,131.9z"/>
		</g>
	</g>
	<g>
		<g>
			<path class="st0" d="M6.7,132.3c-0.1,0-0.3,0-0.4-0.1L6,131.9v-0.1h0.1l0.2,0.2c0.2,0.1,0.6,0.1,0.7-0.2c0-0.1,0.1-0.1,0.1,0
				c0.1,0,0.1,0.1,0,0.1C7.2,132.1,6.9,132.3,6.7,132.3z"/>
		</g>
	</g>
	<g>
		<g>
			<path class="st0" d="M6.1,131.9C6.1,131.9,6,131.9,6.1,131.9L5.5,131c0-0.1,0-0.1,0-0.1c0.1,0,0.1,0,0.1,0l0.5,0.9
				C6.2,131.8,6.2,131.9,6.1,131.9L6.1,131.9z"/>
		</g>
	</g>
	<g>
		<g>
			<path class="st0" d="M5.6,131.1C5.5,131.1,5.5,131,5.6,131.1l-0.2-0.4c0-0.1,0-0.1,0.1-0.1s0.1,0,0.1,0.1V131.1
				C5.7,131,5.7,131,5.6,131.1L5.6,131.1z"/>
		</g>
	</g>
	<g>
		<g>
			<path class="st0" d="M5.5,130.8c-0.1,0-0.1,0-0.1-0.1v-1.9c0-0.1,0-0.1,0.1-0.1s0.1,0,0.1,0.1v1.9C5.6,130.7,5.6,130.8,5.5,130.8
				z"/>
		</g>
	</g>
	<g>
		<g>
			<path class="st0" d="M5.5,128.9L5.5,128.9c-0.1,0-0.1-0.1-0.1-0.1l0.1-0.3c0-0.1,0.1-0.1,0.1-0.1c0.1,0,0.1,0.1,0.1,0.1
				L5.5,128.9C5.6,128.8,5.5,128.9,5.5,128.9z"/>
		</g>
	</g>
	<g>
		<g>
			<path class="st0" d="M10.1,154.6h-3c-0.1,0-0.1,0-0.1-0.1s0-0.1,0.1-0.1h3c0.1,0,0.1,0,0.1,0.1S10.2,154.6,10.1,154.6z"/>
		</g>
	</g>
	<g>
		<g>
			<path class="st0" d="M10.1,154.6c-0.1,0-0.1,0-0.1-0.1V77.3c0-0.1,0-0.1,0.1-0.1s0.1,0,0.1,0.1v77.2
				C10.2,154.6,10.2,154.6,10.1,154.6z"/>
		</g>
	</g>
	<g>
		<g>
			<path class="st0" d="M10.1,77.4H4.7c-0.1,0-0.1,0-0.1-0.1s0-0.1,0.1-0.1h5.5c0.1,0,0.1,0,0.1,0.1S10.2,77.4,10.1,77.4z"/>
		</g>
	</g>
	<g>
		<g>
			<path class="st0" d="M7.2,139.7H4.7c-0.1,0-0.1,0-0.1-0.1s0-0.1,0.1-0.1h2.5c0.1,0,0.1,0,0.1,0.1S7.2,139.7,7.2,139.7z"/>
		</g>
	</g>
	<g>
		<g>
			<path class="st0" d="M7.2,154.6c-0.1,0-0.1,0-0.1-0.1v-14.9c0-0.1,0-0.1,0.1-0.1s0.1,0,0.1,0.1v14.9
				C7.3,154.6,7.2,154.6,7.2,154.6z"/>
		</g>
	</g>
	<g>
		<g>
			<path class="st0" d="M4.7,139.7c-0.1,0-0.1,0-0.1-0.1V77.3c0-0.1,0-0.1,0.1-0.1s0.1,0,0.1,0.1L4.7,139.7
				C4.8,139.7,4.7,139.7,4.7,139.7z"/>
		</g>
	</g>
	<g>
		<g>
			<path class="st0" d="M7.4,3.3c-0.6,0-1-0.5-1-1s0.5-1,1-1s1,0.5,1,1S8,3.3,7.4,3.3z M7.4,1.3c-0.5,0-0.9,0.4-0.9,1s0.4,1,0.9,1
				s0.9-0.4,0.9-1S7.9,1.3,7.4,1.3z"/>
		</g>
	</g>
	<g>
		<g>
			<path class="st0" d="M7.4,6.3c-0.6,0-1-0.5-1-1s0.5-1,1-1s1,0.5,1,1S8,6.3,7.4,6.3z M7.4,4.4c-0.5,0-0.9,0.4-0.9,0.9
				s0.4,0.9,0.9,0.9s0.9-0.4,0.9-0.9S7.9,4.4,7.4,4.4z"/>
		</g>
	</g>
	<g>
		<g>
			<path class="st0" d="M10.1,0.2H4.7c-0.1,0-0.1,0-0.1-0.1S4.6,0,4.7,0h5.5c0.1,0,0.1,0,0.1,0.1S10.2,0.2,10.1,0.2z"/>
		</g>
	</g>
	<g>
		<g>
			<path class="st0" d="M10.1,77.4c-0.1,0-0.1,0-0.1-0.1V0.1c0,0,0-0.1,0.1-0.1s0.1,0,0.1,0.1v77.2C10.2,77.4,10.2,77.4,10.1,77.4z"
				/>
		</g>
	</g>
	<g>
		<g>
			<path class="st0" d="M10.1,77.4H4.7c-0.1,0-0.1,0-0.1-0.1s0-0.1,0.1-0.1h5.5c0.1,0,0.1,0,0.1,0.1S10.2,77.4,10.1,77.4z"/>
		</g>
	</g>
	<g>
		<g>
			<path class="st0" d="M4.7,77.4C4.6,77.4,4.6,77.4,4.7,77.4L4.6,0.1c0,0,0-0.1,0.1-0.1s0.1,0,0.1,0.1v77.2
				C4.8,77.4,4.7,77.4,4.7,77.4z"/>
		</g>
	</g>
	<g>
		<g>
			<path class="st0" d="M14.4,33.6L14.4,33.6l-1.1-0.3c0,0,0,0,0-0.1c0,0,0,0,0.1,0L14.4,33.6C14.5,33.5,14.5,33.5,14.4,33.6
				C14.5,33.6,14.5,33.6,14.4,33.6z"/>
		</g>
	</g>
	<g>
		<g>
			<path class="st0" d="M13.3,33.2L13.3,33.2c-0.1,0-0.2-0.1-0.2-0.2c0-0.1-0.1-0.2,0-0.3c0,0,0,0,0.1,0c0,0,0,0,0,0.1s0,0.1,0,0.2
				C13.2,33.1,13.2,33.1,13.3,33.2L13.3,33.2L13.3,33.2z"/>
		</g>
	</g>
	<g>
		<g>
			<path class="st0" d="M13.1,32.9L13.1,32.9C13.1,32.9,13,32.8,13.1,32.9l4.1-13.8c0,0,0,0,0.1,0s0,0,0,0.1L13.1,32.9
				C13.1,32.8,13.1,32.9,13.1,32.9z"/>
		</g>
	</g>
	<g>
		<g>
			<path class="st0" d="M17.2,19.2L17.2,19.2C17.2,19.2,17.2,19.1,17.2,19.2c0-0.1,0.1-0.2,0.1-0.3c0.1,0,0.2,0,0.3,0c0,0,0,0,0,0.1
				c0,0,0,0-0.1,0s-0.1,0-0.2,0S17.3,19.1,17.2,19.2C17.3,19.2,17.2,19.2,17.2,19.2z"/>
		</g>
	</g>
	<g>
		<g>
			<path class="st0" d="M18.7,19.3L18.7,19.3L17.6,19c0,0,0,0,0-0.1c0,0,0,0,0.1,0L18.7,19.3C18.8,19.2,18.8,19.3,18.7,19.3
				C18.8,19.3,18.8,19.3,18.7,19.3z"/>
		</g>
	</g>
	<g>
		<g>
			<path class="st0" d="M22.3,7.4H10.1c-0.1,0-0.1,0-0.1-0.1s0-0.1,0.1-0.1h12.2c0.1,0,0.1,0,0.1,0.1C22.4,7.3,22.4,7.4,22.3,7.4z"
				/>
		</g>
	</g>
	<g>
		<g>
			<path class="st0" d="M10.1,47.9L10.1,47.9c-0.1,0-0.1-0.1-0.1-0.1l4.3-14.2l0.1-0.1c0.1,0,0.1,0.1,0.1,0.1L10.1,47.9
				C10.2,47.8,10.2,47.9,10.1,47.9z"/>
		</g>
	</g>
	<g>
		<g>
			<path class="st0" d="M18.7,19.4L18.7,19.4c-0.1,0-0.1-0.1-0.1-0.1l3.6-12c0-0.1,0.1-0.1,0.1-0.1c0.1,0,0.1,0.1,0.1,0.1L18.7,19.4
				C18.8,19.3,18.8,19.4,18.7,19.4z"/>
		</g>
	</g>
	<g>
		<g>
			<path class="st0" d="M14.4,33.6L14.4,33.6c-0.1,0-0.1-0.1-0.1-0.1l4.3-14.3l0.1-0.1c0.1,0,0.1,0.1,0.1,0.1L14.4,33.6
				C14.5,33.6,14.5,33.6,14.4,33.6z"/>
		</g>
	</g>
	<g>
		<g>
			<path class="st0" d="M10.2,65.1L10.2,65.1L10.2,65.1C10.1,65,10,65,10,64.9s0.1-0.1,0.1-0.1h0.1C10.3,64.9,10.3,64.9,10.2,65.1
				C10.3,65,10.2,65.1,10.2,65.1z"/>
		</g>
	</g>
	<g>
		<g>
			<path class="st0" d="M67.4,82.3L67.4,82.3L10.2,65.1c-0.1,0-0.1-0.1-0.1-0.1l0.1-0.1l57.2,17.3C67.5,82.1,67.5,82.2,67.4,82.3
				C67.5,82.3,67.4,82.3,67.4,82.3z"/>
		</g>
	</g>
	<g>
		<g>
			<path class="st0" d="M67.4,83.3H10.1c-0.1,0-0.1,0-0.1-0.1s0-0.1,0.1-0.1h57.2C67.4,83.1,67.4,83.1,67.4,83.3
				C67.4,83.3,67.4,83.3,67.4,83.3z"/>
		</g>
	</g>
	<g>
		<g>
			<path class="st0" d="M67.4,83.3C67.3,83.3,67.3,83.3,67.4,83.3l-0.1-1.1c0-0.1,0-0.1,0.1-0.1s0.1,0,0.1,0.1L67.4,83.3
				C67.5,83.3,67.4,83.3,67.4,83.3z"/>
		</g>
	</g>
	<g>
		<g>
			<path class="st0" d="M67.4,83.3H10.1c-0.1,0-0.1,0-0.1-0.1s0-0.1,0.1-0.1h57.2C67.4,83.1,67.4,83.1,67.4,83.3
				C67.4,83.3,67.4,83.3,67.4,83.3z"/>
		</g>
	</g>
	<g>
		<g>
			<path class="st0" d="M67.4,83.3C67.3,83.3,67.3,83.3,67.4,83.3l-0.1-1.1c0-0.1,0-0.1,0.1-0.1s0.1,0,0.1,0.1L67.4,83.3
				C67.5,83.3,67.4,83.3,67.4,83.3z"/>
		</g>
	</g>
	<g>
		<g>
			<path class="st0" d="M67.4,82.3L67.4,82.3L10.2,65.1c-0.1,0-0.1-0.1-0.1-0.1l0.1-0.1l57.2,17.3C67.5,82.1,67.5,82.2,67.4,82.3
				C67.5,82.3,67.4,82.3,67.4,82.3z"/>
		</g>
	</g>
	<g>
		<g>
			<path class="st0" d="M10.2,65.1L10.2,65.1L10.2,65.1C10.1,65,10,65,10,64.9s0.1-0.1,0.1-0.1h0.1C10.3,64.9,10.3,64.9,10.2,65.1
				C10.3,65,10.2,65.1,10.2,65.1z"/>
		</g>
	</g>
</g>
<g>
	<path class="st0" d="M67.4,171.4H4.6c-0.1,0-0.1-0.1-0.1-0.1v-4.6c0-0.1,0.1-0.1,0.1-0.1l0.1,0.1v4.4h62.5v-4.4
		c0-0.1,0.1-0.1,0.1-0.1l0.1,0.1v4.6C67.5,171.4,67.5,171.4,67.4,171.4z"/>
</g>
<g>
	<path class="st0" d="M78.1,154.7h-4c-0.1,0-0.1-0.1-0.1-0.1l0.1-0.1H78V0.3h-3.9C74,0.3,74,0.2,74,0.2L74.1,0h4
		c0.1,0,0.1,0.1,0.1,0.1v154.4C78.3,154.6,78.2,154.7,78.1,154.7z"/>
</g>
<g>
	<path class="st0" d="M21.4,179.1c0,0-1.8,2.1-2.4,3.2c0,0,0.3-0.1,0.8-0.1c1.9,0,2.7,1.5,2.7,3.1c0,1.2-0.6,3.1-2.8,3.1
		c-2,0-2.8-1.6-2.8-3.1c0-2.2,2.1-4.5,3.4-6.2H21.4z M19.4,182.9c-0.6,0-0.9,0.3-0.9,0.3c-0.3,0.4-0.6,1.3-0.6,2.1
		c0,1.3,0.6,2.3,1.9,2.3c1.2,0,1.9-1,1.9-2.3C21.5,183.9,20.9,182.9,19.4,182.9z"/>
	<path class="st0" d="M25.3,183.9h-0.9v-0.8h0.8c1.5,0,2.3-0.8,2.3-1.9c0-1-0.7-1.6-1.9-1.6c-0.8,0-1.6,0.4-1.6,0.4
		c-0.4-0.7-0.3-0.7-0.3-0.7c0.2-0.1,0.9-0.5,2-0.5c1.8,0,2.8,0.8,2.8,2.3c0,1.2-0.8,1.9-1.6,2.2c1.1,0.3,1.6,1.3,1.6,2.1
		c0,1.4-0.9,2.7-2.9,2.7c-1.3,0-2.1-0.4-2.1-0.5l0.3-0.7c0,0,0.9,0.4,1.8,0.4c1.2,0,2-0.7,2-1.9C27.5,184.8,26.8,183.9,25.3,183.9z"
		/>
	<path class="st0" d="M30.3,186.9c0.4,0,0.7,0.3,0.7,0.7c0,0.2-0.1,0.4-0.2,0.5l-0.8,1.8l-0.4-0.1l0.4-1.4c-0.2-0.1-0.4-0.4-0.4-0.8
		C29.6,187.3,29.9,186.9,30.3,186.9z"/>
	<path class="st0" d="M32.7,179.1h4.4v0.8h-3.6v2.7h0.6c2.1,0,3.3,1.1,3.3,2.8c0,1.6-0.9,3-3.1,3c-1,0-1.6-0.2-2-0.4l0.3-0.8
		c0,0,0.8,0.4,1.7,0.4c1.4,0,2.2-0.8,2.2-2.2c0-1.3-0.9-2-2.6-2h-1.3L32.7,179.1L32.7,179.1z"/>
	<path class="st0" d="M45.2,188c-0.1,0.1-0.7,0.3-1.4,0.3c-1.5,0-2.6-0.8-2.6-3.3s1.1-3.3,2.6-3.3c0.5,0,1,0.1,1.4,0.3l-0.3,0.6
		c-0.1,0-0.5-0.3-1-0.3c-1.4,0-1.7,1-1.7,2.6s0.3,2.6,1.7,2.6c0.6,0,1.1-0.3,1.1-0.3L45.2,188z"/>
	<path class="st0" d="M50.3,183.7c0-0.9-0.4-1.3-1.2-1.3s-1.5,0.6-1.7,0.8v5.1h-0.9v-6.5h0.6l0.2,0.7c0.5-0.4,1.1-0.7,1.9-0.7
		c0.9,0,1.4,0.3,1.7,0.9c0.5-0.5,1.3-0.9,2.1-0.9c1.5,0,1.9,0.8,1.9,2.1v4.5H54v-4.5c0-1-0.4-1.4-1.2-1.4c-0.7,0-1.4,0.5-1.8,0.8
		c0,0.2,0.1,0.4,0.1,0.6v4.4h-0.9L50.3,183.7L50.3,183.7z"/>
</g>
<g>
	<path class="st0" d="M82,70.9l2.1-1h0.7v8.3h1.7V79h-4.3v-0.8H84v-7.4l-1.7,0.7L82,70.9z"/>
	<path class="st0" d="M88,69.9h4.4v0.8h-3.6v2.7h0.6c2.1,0,3.3,1.1,3.3,2.8c0,1.6-0.9,3-3.1,3c-1,0-1.6-0.2-2-0.4l0.3-0.8
		c0,0,0.8,0.4,1.7,0.4c1.4,0,2.2-0.8,2.2-2.2c0-1.3-0.9-2-2.6-2H88V69.9L88,69.9z"/>
	<path class="st0" d="M94.4,69.9h4.5v0.8h-3.6v2.7h0.6c2.1,0,3.3,1.1,3.3,2.8c0,1.6-1,3-3.1,3c-1,0-1.6-0.2-2-0.4l0.3-0.8
		c0,0,0.8,0.4,1.7,0.4c1.4,0,2.2-0.8,2.2-2.2c0-1.3-0.8-2-2.6-2h-1.3V69.9L94.4,69.9z"/>
	<path class="st0" d="M101,77.8c0.4,0,0.7,0.3,0.7,0.7c0,0.2-0.1,0.4-0.2,0.5l-0.8,1.8l-0.4-0.1l0.4-1.4c-0.2-0.1-0.4-0.4-0.4-0.8
		C100.3,78.1,100.7,77.8,101,77.8z"/>
	<path class="st0" d="M107.3,69.9c0,0-1.8,2.1-2.4,3.2c0,0,0.3-0.1,0.8-0.1c1.9,0,2.7,1.5,2.7,3.1c0,1.2-0.6,3.1-2.8,3.1
		c-2,0-2.8-1.6-2.8-3.1c0-2.2,2.1-4.5,3.4-6.2H107.3z M105.3,73.7c-0.5,0-0.9,0.3-0.9,0.3c-0.3,0.4-0.6,1.3-0.6,2.1
		c0,1.3,0.6,2.3,1.9,2.3c1.2,0,1.9-1,1.9-2.3C107.4,74.7,106.7,73.7,105.3,73.7z"/>
	<path class="st0" d="M116,78.8c-0.1,0.1-0.7,0.3-1.4,0.3c-1.5,0-2.6-0.8-2.6-3.3c0-2.6,1.1-3.3,2.6-3.3c0.5,0,1,0.1,1.4,0.3
		l-0.3,0.7c0,0-0.5-0.3-1-0.3c-1.4,0-1.7,1-1.7,2.6s0.3,2.6,1.7,2.6c0.6,0,1.1-0.3,1.1-0.3L116,78.8z"/>
	<path class="st0" d="M121.1,74.5c0-0.9-0.4-1.3-1.2-1.3c-0.8,0-1.5,0.6-1.7,0.8v5.1h-0.9v-6.5h0.6l0.2,0.7c0.5-0.4,1.1-0.7,1.9-0.7
		c0.9,0,1.4,0.3,1.7,0.9c0.5-0.5,1.3-0.9,2.1-0.9c1.5,0,1.9,0.8,1.9,2.1v4.5h-0.9v-4.5c0-1-0.4-1.4-1.2-1.4c-0.7,0-1.4,0.5-1.8,0.8
		c0,0.2,0,0.4,0,0.6v4.4h-0.9L121.1,74.5L121.1,74.5z"/>
</g>
</svg>
