<?xml version="1.0" encoding="utf-8"?>
<!-- Generator: Adobe Illustrator 25.0.1, SVG Export Plug-In . SVG Version: 6.00 Build 0)  -->
<svg version="1.1" id="Capa_1" xmlns="http://www.w3.org/2000/svg" xmlns:xlink="http://www.w3.org/1999/xlink" x="0px" y="0px"
	 viewBox="0 0 30.32 30.32" style="enable-background:new 0 0 30.32 30.32;" xml:space="preserve">
<style type="text/css">
	.st0{fill:#808181;}
</style>
<g>
	<path class="st0" d="M25.4,0H4.92C2.21,0,0,2.21,0,4.92V25.4c0,2.71,2.21,4.92,4.92,4.92H25.4c2.71,0,4.92-2.21,4.92-4.92V4.92
		C30.32,2.21,28.11,0,25.4,0z M29.47,25.4c0,2.24-1.83,4.07-4.07,4.07H4.92c-2.24,0-4.07-1.83-4.07-4.07V4.92
		c0-2.24,1.83-4.07,4.07-4.07H25.4c2.24,0,4.07,1.83,4.07,4.07V25.4z"/>
	<path class="st0" d="M25,4.86h-8.42c-0.23,0-0.43,0.19-0.43,0.43s0.19,0.43,0.43,0.43h7.39l-7.01,7.01c-0.17,0.17-0.17,0.44,0,0.6
		c0.08,0.08,0.19,0.12,0.3,0.12s0.22-0.04,0.3-0.12l7.01-7.01v7.39c0,0.23,0.19,0.43,0.43,0.43s0.43-0.19,0.43-0.43V5.28
		C25.43,5.05,25.23,4.86,25,4.86z"/>
	<path class="st0" d="M13.58,24.69H6.19l7.01-7.01c0.17-0.17,0.17-0.44,0-0.6s-0.44-0.17-0.6,0l-7.01,7.01V16.7
		c0-0.23-0.19-0.43-0.43-0.43s-0.43,0.19-0.43,0.43v8.42c0,0.23,0.19,0.43,0.43,0.43h8.42c0.23,0,0.43-0.19,0.43-0.43
		S13.82,24.69,13.58,24.69z"/>
</g>
</svg>
