<?xml version="1.0" encoding="utf-8"?>
<!-- Generator: Adobe Illustrator 25.0.1, SVG Export Plug-In . SVG Version: 6.00 Build 0)  -->
<svg version="1.1" id="Capa_1" xmlns="http://www.w3.org/2000/svg" xmlns:xlink="http://www.w3.org/1999/xlink" x="0px" y="0px"
	 viewBox="0 0 36.68 28.72" style="enable-background:new 0 0 36.68 28.72;" xml:space="preserve">
<style type="text/css">
	.st0{fill:#808181;}
</style>
<g>
	<path class="st0" d="M18.48,23.13c-0.23,0-0.43,0.19-0.43,0.42v4.74c0,0.23,0.19,0.42,0.43,0.42s0.43-0.19,0.43-0.42v-4.74
		C18.91,23.32,18.72,23.13,18.48,23.13z"/>
	<path class="st0" d="M25.17,21.37c-0.17-0.17-0.44-0.17-0.6,0s-0.17,0.44,0,0.6l3.35,3.35c0.08,0.08,0.19,0.12,0.3,0.12
		s0.22-0.04,0.3-0.12c0.17-0.17,0.17-0.44,0-0.6L25.17,21.37z"/>
	<path class="st0" d="M11.61,21.42l-3.35,3.35c-0.17,0.17-0.17,0.44,0,0.6c0.08,0.08,0.19,0.12,0.3,0.12s0.22-0.04,0.3-0.12
		l3.35-3.35c0.17-0.17,0.17-0.44,0-0.6S11.78,21.26,11.61,21.42z"/>
	<path class="st0" d="M35.73,11.8l-13.4-6.41V4.13C22.33,1.85,20.47,0,18.2,0c-2.27,0-4.13,1.85-4.13,4.13v1.26L0.94,11.8
		c-0.71,0.35-1.07,1.1-0.89,1.87c0.18,0.77,0.83,1.29,1.62,1.29h11.9c0.21,2.38,2.19,4.26,4.63,4.26s4.42-1.88,4.63-4.26h12.18
		c0.8,0,1.45-0.52,1.62-1.3C36.81,12.89,36.45,12.14,35.73,11.8z M14.93,4.13c0-1.81,1.47-3.27,3.27-3.27s3.28,1.47,3.28,3.27v1.1
		h-6.55V4.13z M18.2,18.38c-1.97,0-3.57-1.5-3.78-3.41h7.55C21.77,16.88,20.17,18.38,18.2,18.38z M35.81,13.48
		c-0.07,0.31-0.32,0.64-0.8,0.64H1.67c-0.48,0-0.72-0.33-0.79-0.63c-0.07-0.31,0.01-0.71,0.44-0.92L14.6,6.07h7.21l13.56,6.49
		C35.8,12.77,35.88,13.17,35.81,13.48z"/>
</g>
</svg>
