<?xml version="1.0" encoding="utf-8"?>
<!-- Generator: Adobe Illustrator 25.0.1, SVG Export Plug-In . SVG Version: 6.00 Build 0)  -->
<svg version="1.1" id="Capa_1" xmlns="http://www.w3.org/2000/svg" xmlns:xlink="http://www.w3.org/1999/xlink" x="0px" y="0px"
	 viewBox="0 0 33.11 25.02" style="enable-background:new 0 0 33.11 25.02;" xml:space="preserve">
<style type="text/css">
	.st0{fill:#808181;}
</style>
<path class="st0" d="M33.11,12.54c0-0.58-0.33-1.08-0.87-1.3l-3.17-1.3l3.16-1.29c0.54-0.22,0.87-0.71,0.87-1.29
	c0-0.58-0.33-1.08-0.87-1.3L18.27,0.32c-1.03-0.43-2.17-0.43-3.2,0L0.87,6.17C0.33,6.39,0,6.89,0,7.47c0,0.57,0.35,1.08,0.89,1.29
	l3.19,1.26l-3.21,1.32C0.33,11.57,0,12.07,0,12.65c0,0.57,0.35,1.08,0.89,1.29l3.19,1.26l-3.21,1.32C0.33,16.75,0,17.25,0,17.84
	c0,0.57,0.35,1.08,0.89,1.29l14.22,5.6c0.5,0.2,1.02,0.29,1.54,0.29c0.54,0,1.07-0.1,1.58-0.31l14-5.69
	c0.54-0.22,0.87-0.71,0.87-1.29c0-0.58-0.33-1.08-0.87-1.3l-3.17-1.3l3.16-1.29C32.77,13.62,33.11,13.12,33.11,12.54z M0.85,7.47
	c0-0.09,0.02-0.38,0.34-0.51l14.2-5.85c0.83-0.34,1.73-0.34,2.56,0l13.97,5.75c0.32,0.13,0.34,0.42,0.34,0.51
	c0,0.09-0.03,0.38-0.34,0.51l-4.12,1.68l-6.33,2.57l-3.55,1.44c-0.8,0.33-1.69,0.33-2.5,0.01l-3.61-1.42L5.38,9.62c0,0,0,0,0,0
	l-0.01,0L1.2,7.98C0.88,7.85,0.85,7.56,0.85,7.47z M32.26,17.72c0,0.09-0.03,0.38-0.34,0.51l-14,5.69c-0.8,0.33-1.69,0.33-2.5,0.01
	L1.2,18.34c-0.32-0.13-0.35-0.42-0.35-0.51c0-0.09,0.02-0.38,0.34-0.51l4.03-1.66l9.88,3.89c0.25,0.1,0.51,0.17,0.77,0.22
	c0.11,0.02,0.23,0.02,0.34,0.03c0.14,0.02,0.29,0.04,0.43,0.04c0,0,0.01,0,0.01,0c0.2,0,0.4-0.03,0.6-0.06
	c0.07-0.01,0.13-0.01,0.2-0.02c0.26-0.05,0.52-0.13,0.78-0.23l9.72-3.95l3.97,1.63C32.23,17.34,32.26,17.64,32.26,17.72z
	 M31.91,13.05l-4.12,1.68l-9.88,4.02c-0.4,0.16-0.82,0.25-1.25,0.25c-0.42,0-0.85-0.08-1.25-0.23l-10.2-4.02l0,0L1.2,13.16
	c-0.32-0.13-0.35-0.42-0.35-0.51c0-0.09,0.02-0.38,0.34-0.51l4.03-1.66l6.27,2.47l3.61,1.42c0.5,0.2,1.02,0.29,1.54,0.29
	c0.54,0,1.08-0.1,1.59-0.31l3.55-1.44l6.17-2.51l3.97,1.63c0.32,0.13,0.34,0.42,0.34,0.51C32.26,12.63,32.23,12.92,31.91,13.05z"/>
</svg>
