<?xml version="1.0" encoding="utf-8"?>
<!-- Generator: Adobe Illustrator 24.0.2, SVG Export Plug-In . SVG Version: 6.00 Build 0)  -->
<svg version="1.1" id="Capa_1" xmlns:svgjs="http://svgjs.com/svgjs"
	 xmlns="http://www.w3.org/2000/svg" xmlns:xlink="http://www.w3.org/1999/xlink" x="0px" y="0px" viewBox="0 0 512 512"
	 style="enable-background:new 0 0 512 512;" xml:space="preserve">
<style type="text/css">
	.st0{fill:#FFFFFF;}
</style>
<g>
	<path class="st0" d="M168,443.4c181.1,0,280.2-150.1,280.2-280.2c0-4.3-0.1-8.5-0.3-12.7c19.2-13.9,35.9-31.3,49.1-51
		c-17.6,7.8-36.6,13.1-56.6,15.5c20.3-12.2,35.9-31.5,43.3-54.5c-19,11.3-40.1,19.5-62.5,23.9c-18-19.1-43.6-31.1-71.9-31.1
		c-54.4,0-98.5,44.1-98.5,98.5c0,7.7,0.9,15.2,2.6,22.5c-81.8-4.1-154.4-43.3-203-102.9c-8.5,14.6-13.3,31.5-13.3,49.5
		c0,34.2,17.4,64.3,43.8,82c-16.2-0.5-31.3-4.9-44.6-12.3c0,0.4,0,0.8,0,1.3c0,47.7,33.9,87.5,79,96.5c-8.3,2.3-17,3.5-26,3.5
		c-6.3,0-12.5-0.6-18.5-1.8c12.5,39.1,48.9,67.6,92,68.4c-33.7,26.4-76.2,42.2-122.3,42.2c-7.9,0-15.8-0.5-23.5-1.4
		C60.6,427.1,112.4,443.4,168,443.4"/>
</g>
</svg>
